<svg xmlns="http://www.w3.org/2000/svg" viewBox="0 0 217.51 205.35"><defs><style>.cls-1{fill:#1d1c1a;}.cls-1,.cls-2{stroke:#1d1c1a;}.cls-1,.cls-3{stroke-miterlimit:10;}.cls-2{fill:none;}.cls-3{fill:#fef9e9;stroke:#fef9e9;fill-rule:evenodd;}</style></defs><title>instagram icon</title><g id="Layer_22" data-name="Layer 22"><g id="Group_3" data-name="Group 3"><g id="Ellipse_3" data-name="Ellipse 3"><circle id="Ellipse_35" data-name="Ellipse 35" class="cls-1" cx="108.75" cy="104.38" r="67"/><circle id="Ellipse_36" data-name="Ellipse 36" class="cls-2" cx="108.75" cy="104.38" r="66.5"/></g><path id="Path_3" data-name="Path 3" class="cls-3" d="M108.59,73.66a114.45,114.45,0,0,1,15,.42,19.37,19.37,0,0,1,7.1,1.26,14.63,14.63,0,0,1,7.1,7.1,19.28,19.28,0,0,1,1.25,7.09c0,3.76.42,5,.42,15a114.36,114.36,0,0,1-.42,15,19.29,19.29,0,0,1-1.25,7.1,14.63,14.63,0,0,1-7.1,7.1,19.37,19.37,0,0,1-7.1,1.26c-3.76,0-5,.42-15,.42a114.4,114.4,0,0,1-15-.42,19.34,19.34,0,0,1-7.1-1.26,14.63,14.63,0,0,1-7.1-7.1,19.3,19.3,0,0,1-1.26-7.1c0-3.76-.41-5-.41-15a116.2,116.2,0,0,1,.41-15,19.28,19.28,0,0,1,1.26-7.09,15.05,15.05,0,0,1,2.92-4.18,7.07,7.07,0,0,1,4.18-2.93,19.36,19.36,0,0,1,7.1-1.25,114.4,114.4,0,0,1,15-.42m0-6.68a120.87,120.87,0,0,0-15.46.42,25.77,25.77,0,0,0-9.19,1.66A17.55,17.55,0,0,0,73.08,79.93a19,19,0,0,0-1.67,9.19,284.56,284.56,0,0,0,0,30.91,25.83,25.83,0,0,0,1.67,9.2,17.58,17.58,0,0,0,10.86,10.86,25.83,25.83,0,0,0,9.2,1.67,284.56,284.56,0,0,0,30.91,0,25.77,25.77,0,0,0,9.19-1.67,17.51,17.51,0,0,0,10.86-10.86,25.84,25.84,0,0,0,1.68-9.2c0-4.17.41-5.42.41-15.45a124.64,124.64,0,0,0-.42-15.46,25.77,25.77,0,0,0-1.67-9.19,17.56,17.56,0,0,0-10.86-10.86,25.77,25.77,0,0,0-9.19-1.67A124.64,124.64,0,0,0,108.59,67m0,18.38A18.91,18.91,0,0,0,89.37,104v.63a19.22,19.22,0,1,0,19.22-19.22h0m0,31.75A12.29,12.29,0,0,1,96.06,105v-.46a12.3,12.3,0,0,1,12.07-12.53h.46a12.3,12.3,0,0,1,12.53,12.08v.45A12.31,12.31,0,0,1,109,117.12h-.45m20-37.18a4.6,4.6,0,1,0,4.6,4.6h0a4.61,4.61,0,0,0-4.6-4.6"/></g></g></svg>