<svg xmlns="http://www.w3.org/2000/svg" viewBox="0 0 938.51 886.04">
  <defs>
    <style>
      .cls-1 {
        fill: #2b9845;
      }

      .cls-2, .cls-4 {
        fill: #e04817;
      }

      .cls-2, .cls-3, .cls-5 {
        isolation: isolate;
      }

      .cls-3 {
        fill: #fef9e9;
      }

      .cls-5 {
        fill: #fff;
      }

      .cls-6 {
        fill: #1d1c1a;
        stroke: #1d1c1a;
        stroke-miterlimit: 10;
        stroke-width: 1px;
      }

      .cls-7 {
        fill: #e9cfbf;
      }
    </style>
  </defs>
  <title>pizza luigi logo</title>
  <g id="Layer_21" data-name="Layer 21">
    <g>
      <path class="cls-1" d="M343.23,149.16a216.52,216.52,0,0,1,22.62-15.43c14.94-8.87,18.33-8.47,27.77-15.43,5.81-4.28,17-12.77,23.66-27.77,2.56-5.81,5.94-13.76,4.11-23.66-.66-3.57-2.51-13.63-11.31-18.51-7.86-4.36-16.18-1.76-18.51-1-9.34,2.92-14,10.13-15.43,12.34-2.68,4.25-3.32,7.63-5.14,21.6-3.09,23.59-2.59,24-4.12,29.83a71.94,71.94,0,0,1-10.28,23.66A67.35,67.35,0,0,1,343.23,149.16Z"/>
      <path class="cls-1" d="M211.57,228.35c-.12-7.8,0-18.79,1-31.88,2-25.23,3.58-44.83,13.37-66.86,12.74-28.66,30.93-42.33,35-45.25,10.87-7.84,20-10.42,26.74-11.32,4.82-.63,10.36-1.29,16.46,1,12.91,4.92,17.69,19.14,18.51,21.6,6.94,20.63-6,40.76-10.28,47.32-7.32,11.34-15.53,17.43-30.86,28.79-17.93,13.3-23.68,13.82-38,24.69A167.42,167.42,0,0,0,211.57,228.35Z"/>
      <path class="cls-2" d="M527.33,103.9c-4.3,4.35-13.36,13.74-17.48,28.8-1,3.73-6.55,23.91,4.11,42.17,10.35,17.72,29.59,22.72,41.14,25.71,28.4,7.37,51.79-.13,80.23-9.25,39.43-12.65,57.92-28.86,66.85-38.06,13.81-14.22,15.41-22.62,15.43-27.77.07-17.27-17.5-29.83-24.68-35C644.13,55.63,561.87,69,527.33,103.9Z"/>
      <path class="cls-2" d="M185.06,505.35c2.52,11.06,5.67,24.57,13.13,41.25,2.05,4.6,11.95,26.28,33.74,51.57,8.29,9.6,43.2,49.32,97.5,74.06,106.44,48.48,213.8,5.9,221.25,2.81,99-41,180.47-144,176.25-258.75-3.09-84-50.89-141.17-62.81-154.68-62-70.27-143-81.63-172.5-85.31-23.09-2.88-112.87-12.68-195.94,45-58.12,40.35-83.93,93.59-92.81,112.49-19.78,42.11-23.65,77.28-24.37,84.38C174.49,457.81,181.27,488.74,185.06,505.35Z"/>
      <path class="cls-3" d="M355.78,380.18q.69,57.18,1.39,114.36c-5.43,4.52-14.07,11.51-25.1,19.53-24.15,17.54-44.65,29-75.31,46-8.72,4.83-21.12,11.61-36.27,19.52a229.35,229.35,0,0,0,29.29,36.26C321,687.6,420.79,691.7,459,691.19q-2.09-11.87-4.18-23.71A286,286,0,0,0,498,656.32c64.8-22.28,108-63.43,132.49-92.05L479.9,512.67q-.7-13.95-1.4-27.89a39.82,39.82,0,0,0,8.37-8.37c3.86-5.24,5.4-10.09,7-15.34,4-13.28,6-19.91,7-25.11,4.63-24.25,5.2-47.79,5.58-65.54A305.82,305.82,0,0,0,505,330c-.48-4.64-1-8.48-1.39-11.16q-.71-22.31-1.4-44.63l-69.73-13.94a19.48,19.48,0,0,1-5.58,8.37c-9,7.68-25.81,6.11-41.84-4.19q-3,16.2-5.58,33.47c-3.34,22.93-5.58,44.84-7,65.55L355.78,321.6a26.56,26.56,0,0,0-29.29,12.56c-4.08,6.68-4.12,13-4.19,22.31-.05,8-.08,12.75,2.79,18.13,1.37,2.56,5,9.27,12.55,11.16C347.28,388.16,355.16,380.78,355.78,380.18Z"/>
      <path class="cls-4" d="M296.42,538.59h22.87l4.29,4.29,18.59,18.58H260.68q8.22-5.69,17.16-11.43C284.15,546,290.36,542.17,296.42,538.59Z"/>
      <path class="cls-4" d="M224.94,590.05c5.66,1.25,13.49,2.83,22.88,4.29A382.38,382.38,0,0,0,295,598.63c13.26.43,34.47.56,95.78-4.29,57.54-4.55,70.69-7.18,77.2-8.57,20-4.28,36-9.41,55.75-15.73,24.69-7.9,45.13-15.55,60-21.44L620.93,560c-4.61,2.83-11.48,6.91-20,11.44-46.11,24.49-86.93,33.71-115.8,40-4.9,1.07-28.35,6.14-60,10-37.5,4.58-85.77,10.13-144.38,0-14.26-2.46-25.72-5.26-32.88-7.14Z"/>
      <path class="cls-4" d="M539.45,547.17a53.78,53.78,0,0,0,25.73-4.29l-15.73-5.72Z"/>
      <path class="cls-4" d="M283.56,643a276.44,276.44,0,0,0,34.3,5.72c22.22,2.27,42.28,1.07,81.49-1.43,6.27-.4,2-.17,40-2.86,33.31-2.36,34.73-2.41,40-2.86,15.05-1.28,36.5-3.67,62.9-8.58A135.6,135.6,0,0,1,508,658.67,140.47,140.47,0,0,1,463.68,673,144.81,144.81,0,0,1,448,674.4c-31.93,1.28-81.94.38-100.06,0Z"/>
      <path class="cls-1" d="M577.73,449.49c13.34-4.41,18.2-4.64,26.74-7.2,6.89-2.06,28-8.63,45.26-26.74,5.5-5.76,18.94-19.83,21.6-41.14a62.49,62.49,0,0,0-2.06-24.69C667.16,342.43,665,335,658,330.18c-6-4.08-12.35-4.1-15.43-4.12-12.1,0-20.63,6.77-23.66,9.26-7.86,6.48-11.17,14-14.4,21.6-5.54,13-4.06,18.31-8.22,32.91-3.65,12.79-8.47,21.66-12.35,28.8A164,164,0,0,1,552,459.77,226.86,226.86,0,0,1,577.73,449.49Z"/>
      <path class="cls-5" d="M483.11,670.62q22.62,52.47,45.25,104.92a461.43,461.43,0,0,0,78.17-32.92c12.37-6.61,52.94-29,97.71-69.94,23.65-21.61,56.89-52.5,85.37-102.85a369.3,369.3,0,0,0,23.66-50.4l-108-48.34a484.46,484.46,0,0,1-73,103.88c-19.08,20.68-40.72,43.77-76.11,64.8A292.67,292.67,0,0,1,483.11,670.62Z"/>
      <path class="cls-1" d="M258.22,441.2a152.46,152.46,0,0,0-2.69-33.69c-2.39-12.34-6.54-22.6-14.83-43.12-10.11-25-13.95-30-17.51-33.69S211.72,319,198.93,315.88c-5.15-1.24-14.68-3.54-24.25,1.35-13,6.61-15.87,21.22-16.18,22.9-3.38,18.58,11.17,33.83,16.18,39.08,6.11,6.42,13.51,10.57,28.29,18.87,16.37,9.19,19.63,9,28.3,14.82C238.82,418,248.87,426.43,258.22,441.2Z"/>
      <path class="cls-1" d="M177.37,495.88c-1,1.23-8.7,10-20.21,9.43-12.08-.56-20.45-11-22.91-20.21-3.82-14.34,6.45-26.38,8.08-28.3,15.53-18.2,44.38-14.65,53.91-13.47a90.13,90.13,0,0,1,39.07,14.82,36.2,36.2,0,0,0-16.17,1.35c-6.83,2.23-11.16,6.07-14.82,9.43C197.52,475.16,188.23,484.11,177.37,495.88Z"/>
      <g>
        <path d="M477.63,798.47c-7.61-29.1-11.59-58.69-17.32-88.22-2.62,0-5.11,0-7.59,0-8.87-.18-17.75-.19-26.61-.64-7.33-.38-14.65-1.18-21.95-2a260.47,260.47,0,0,1-55.74-13,257.82,257.82,0,0,1-75.15-40.26c-5.81-4.5-11-9.73-16.78-14.31-9.3-7.42-16.7-16.67-24.55-25.44-5-5.57-8.89-12.11-13.26-18.23-.7-1-1.23-2.07-2-3-8.83-10.74-13-23.93-18.8-36.22a54.62,54.62,0,0,1-2.16-6.76l2.89-3.37c7.39,10.29,13.53,20.78,21.76,30.09,2.56-1.76,5-3.31,7.25-5,12.57-9.27,26.12-17,39.71-24.55,16.73-9.36,33.36-18.89,49.56-29.16,7.8-5,15.61-9.9,23.33-15,3.71-2.44,7.2-5.19,11-7.94.11-1.57.24-3.08.3-4.59.25-5.62.62-11.25.65-16.87,0-3.92-.6-7.83-.66-11.74-.12-7.71,0-15.41,0-22.67-4.19-2.46-8.08-4.53-11.71-7a16.83,16.83,0,0,1-4.07-4.52,3.78,3.78,0,0,1,.29-4.78,4.08,4.08,0,0,1,4.62-1.36c3.25,1,6.42,2.56,10.56,1.2.72-4.12.09-8.54.33-12.91s.64-8.52.85-12.78.31-8.78.46-13.22c-1.59,1-3.31,2-5,3.1-7,4.69-13.13,2.41-18.46-1.82-7.5-6-11.3-14.08-11.86-23.6a62.65,62.65,0,0,1,1.11-18.38c1.86-7.82,5.34-14.83,11.45-20.25,2.73-2.42,5.92-3.94,10.05-3.1,0-1.16,0-2,0-2.8a134.25,134.25,0,0,1,1.91-25c.77-4.52.72-9.18,1.17-13.77.37-3.89.93-7.77,1.44-11.86,4.46-2.68,9.41-1.67,14-1.45A63,63,0,0,1,386,273.6c-.71,5.06-1.54,9.92-2,14.8-1.08,10.72-2,21.45-3,32.18-.56,6.13-1.12,12.26-1.64,18.39-.43,5.11-.54,10.27-1.28,15.33-.77,5.22-2.14,10.34-3.12,14.92-2.33,2.06-4.32,2.28-6.2.94-2.21-1.57-4.65-3.09-6.21-5.21a38.07,38.07,0,0,1-5.06-9.45c-3.07-8.35-5.76-16.85-8.63-25.28-.43-1.27-1-2.5-1.67-4.21a50.2,50.2,0,0,1-5.63,0c-4.61-.53-8.1,1.43-10.56,5a41.15,41.15,0,0,0-5.41,9.84c-3.61,10.85-4.43,21.76,1,32.43a27.08,27.08,0,0,0,7.06,8.72c4.62,3.82,10.12,4.38,15.26,1.33,2.48-1.46,4.7-3.36,7.22-5.19,2.05,14,1,28,1.46,42.14,2.47-.19,3.69-1.71,4.91-3,5.62-6,11.22-12,16.73-18.11,4.7-5.21,9.07-10.71,14.58-15.16a52.34,52.34,0,0,1,17.07-9.23c3.11-1,6.32-1.62,9.61-.59a11.1,11.1,0,0,0,2.6.16c-.28-3.29-.54-6.26-.8-9.23l.74-.21c.69,1.27,1.27,2.6,2.07,3.79a41.63,41.63,0,0,0,4.58,6.15c3.06,3.06,5.78,3,9,.23,1.41-1.19,2.87-2.32,4.07-3.28,3.12.45,4.57,2.32,6.09,4.22a34.18,34.18,0,0,0,4.84,5.27c3.2,2.59,5.59,2.65,9.73.64-.35-4-.3-8.34-1.15-12.44-3.06-14.74-2.78-29.62-2.48-44.51a19,19,0,0,1,2.36-9,8.38,8.38,0,0,1,1.23,2.22,53.74,53.74,0,0,1,1.07,8.13,293.91,293.91,0,0,0,3.91,40.82c.31,2,.45,4,.69,6.15,2.6-.34,4.8-.5,6.94-.94,5.7-1.18,10.9.21,15.68,3.16,3.64,2.24,7,4.91,10.5,7.38,1,.68,1.94,1.33,3.38,2.32a13.3,13.3,0,0,0,1-3.48c-.13-7.7-.38-15.39-.61-23.09-.05-1.54-.21-3.08-.21-4.62a250.17,250.17,0,0,0-3.68-41.32c-1.59-9.59-1.69-19.42-2.45-29.14-.13-1.68-.18-3.37-.28-5.15C491,276.22,483,274,474.86,272c-11.47-2.78-23-5.33-34.46-8.11a12.15,12.15,0,0,0-8.16.76c-.66,1.47-1.32,3-2.05,4.56a9.08,9.08,0,0,1-8.49,5.57c-7.63.32-14.94-1.17-22.3-2.95-10.63-2.57-21-6.06-31.46-9.08a33.11,33.11,0,0,0-11.66-1.43c-6.62.49-13.29.44-19.72,2.61-3.52,1.18-4.82.77-7.64-1.48,1.89-3.74,5.08-6.28,8.46-8.53,7.92-5.29,16.73-8.65,25.86-11.06A174.06,174.06,0,0,1,386.29,238a90.67,90.67,0,0,1,27.2.58c-1.46-1.1-2-1.76-2.57-1.88a99.48,99.48,0,0,0-11.55-2.06c-4.25-.36-8.56,0-12.85-.12-11.31-.25-22,2.73-32.52,6.39a64.46,64.46,0,0,1-8.34,2.51,28.92,28.92,0,0,1-5.72.07c-1.34-2-.57-3.24.37-4.55a49,49,0,0,1,11.21-11.18c9.92-7.16,20.17-13.62,32.35-16.21,9.19-2,18.33-4.31,27.62-5.47a103.74,103.74,0,0,1,24.07.32,106,106,0,0,1,26.38,6.24c16.72,6.39,30.6,16.62,40.68,31.64a50.72,50.72,0,0,1,8.05,20.37c.9,5.59-.05,10.67-5.88,13.81a42.82,42.82,0,0,0,0,5.07,239.21,239.21,0,0,1,1.86,32.21c0,2.44.09,4.68,1.82,6.72a7.1,7.1,0,0,1,1.32,3.81c.49,5.44,1,10.89,1.16,16.35.43,11.8.7,23.6,1,35.41.09,3.57,0,7.15,0,11.32,4.39,3.19,9.06,7.07,15.9,6.77,4.21-.19,5.62,2.91,3.57,6.6a21.15,21.15,0,0,1-9.86,8.67c-3.67,1.71-7.71,2.63-12.44,4.19-1.2,1.8-1.91,4.78-2.34,7.8-.77,5.41-1.2,10.87-2.1,16.25-1.26,7.59-2.81,15.1-6.48,22-1.58,3-2.42,6.39-3.7,9.56-3,7.35-5.92,14.69-13.07,18.79.67,7.86,1.31,15.46,2,23.53,3.12,1.54,7,1.9,10.77,2.88,2.64.69,5.26,1.45,7.88,2.18,3.12.87,6.27,1.66,9.36,2.63,10.29,3.22,20.59,6.43,30.84,9.8q42.7,14,85.36,28.21c1,.32,2,.57,3.18.91C649.33,543,663,522.24,675.25,500.38S696.18,455.2,699.77,430c5.83.54,10.37,2.87,15.6,4.95,1.06-30.94-4.07-60.53-14.39-89.26-12.37-34.41-32.36-63.89-58.54-89.94a52.91,52.91,0,0,0-5.25,3.34c-10.07,8.22-20.05,16.54-30.11,24.77-5.29,4.34-10.67,8.56-16,12.8a23.92,23.92,0,0,1-3,2,4.79,4.79,0,0,1-5.34-.08c-2-1.34-3.23-3.14-2.79-5.65.41-2.35.88-4.7,1.47-7,2-7.95,4.12-15.89,6.16-23.84a23.79,23.79,0,0,0,.35-2.84c-12.75-3.25-25.2-6.73-36.45-13.53a117.85,117.85,0,0,1-30-25.4c-8.45-10.11-14.75-21.37-19.9-33.44-4.3-2.24-9-2-13.54-2.59-14-1.79-28-1.23-42.07-1.13-9.93.08-19.73,1.4-29.56,2.75a260.41,260.41,0,0,0-50.22,12.42,289.46,289.46,0,0,0-56.42,27,279.8,279.8,0,0,0-37.92,28c-7.59,6.65-14.28,14.31-21.6,21.29-10.5,10-18.25,22.16-26.55,33.87-2,2.77-3.44,5.87-5.34,9.16a71,71,0,0,1,11.78,12.55c4.29,5.89,7.69,13.7,14.49,29.3,1.85,4.24,3.17,7.29,4.6,10.86,2.23,5.56,4.29,11.19,6.6,16.72,3.18,7.64,4.25,15.82,6.31,23.74,2.75,10.58,3.15,21.24,3,32.06-.08,7.34.66,14.68.92,22,.06,1.61.61,3.42-.93,4.94-1.71-.31-1.9-1.63-2.16-3-1-5.2-2.14-10.38-3.12-15.58-1.29-6.91-4.92-12-10.58-16.29A238.9,238.9,0,0,0,219,415.68c-9.47-5.15-19-10.16-28.49-15.32a37.36,37.36,0,0,1-4.11-2.64c-5-3.43-25.86-17.6-31.22-41.91-1-4.39-2.14-10.2-.5-17.45a37.77,37.77,0,0,1,26.76-27.67,36.54,36.54,0,0,1,18.37.17c1-5.33,3.93-9.33,6.58-13.49,9.56-15,19.94-29.5,32.36-42.3,8-8.19,15.79-16.52,24.55-24a300.91,300.91,0,0,1,134.6-66.29,271.25,271.25,0,0,1,68.77-6.21c9.06.38,18.1,1.13,27.15,1.69.31,0,.62-.23,1.46-.57a33,33,0,0,0,0-4.21c-1.8-14.34.44-28.23,4.14-42.06,5.34-20,15.84-34.37,21.47-41.59,2.5-3.2,32.68-40.81,79-47.91a119.55,119.55,0,0,1,34.58,0,111,111,0,0,1,22.85,6.4,116.26,116.26,0,0,1,30.3,18,120.48,120.48,0,0,1,24.74,27.76c9.51,14.49,15,30.58,17.42,47.71a106.16,106.16,0,0,1-10,63.26,128.85,128.85,0,0,1-21.88,32.07,153.21,153.21,0,0,1-26,22.37c-4,2.7-4.24,5.86-1,9.38a265.53,265.53,0,0,1,35.19,49A259.09,259.09,0,0,1,730,358.06a291.32,291.32,0,0,1,8,42.75c1.49,12.29,1,24.61.93,36.92a39,39,0,0,1-.75,6.63c-.68,3.67.71,6.33,3.71,8.31.57.37,1.15.73,1.75,1.05,16.19,8.54,32.34,17.15,48.58,25.59,5.84,3,15.32,6.79,27.48,13.72,3.58,2,5.38,3.08,6,3.77,3.15,3.79,6.57,13.95-27,69.5-22.47,37.13-40,59-44.43,64.53-2.17,2.68-11.34,14.44-24.88,28.67-9.31,9.79-18.71,19.53-28.5,28.84-7.41,7.06-15.33,13.61-23.32,20-10.52,8.44-21.13,16.8-32.07,24.69a458.13,458.13,0,0,1-73.8,43.28c-24.81,11.62-50.25,18.58-65.52,23.15-4,1.19-7.28,2.15-9.57,2.8a77.9,77.9,0,0,1-18.85-3.81ZM316,531.34c-1.94,1.16-3.43,2-4.83,2.91-6.4,4.28-12.56,9-19.2,12.82-15.66,9.16-31.5,18-47.37,26.81a100.75,100.75,0,0,1-12.19,5.28,15.88,15.88,0,0,0-7.2,4.82,32,32,0,0,0,2.39,3.51c2.72,3,5.47,6.07,8.34,9,7.94,8,15.52,16.53,24,23.94,12.38,10.78,25.35,20.83,40.12,28.43,10.2,5.24,20,11.13,30.66,15.58,12.94,5.43,25.88,10.87,39.41,14.73a248.94,248.94,0,0,0,51,8.83c10.58.73,21.24.29,31.87.31a16.59,16.59,0,0,0,3.31-.66c.57-7.21-3.05-13.55-3-20.52,1.65-.47,2.92-.89,4.23-1.19a271.53,271.53,0,0,0,54.18-19q19.82-9.18,39.14-19.41a150.47,150.47,0,0,0,18.45-12.09c7.17-5.26,14-11,20.95-16.54a378,378,0,0,0,33.18-29.94,21.14,21.14,0,0,0,1.9-2.79c-2-.67-3.62-1.23-5.23-1.7-6.23-1.83-12.54-3.44-18.71-5.47-11-3.64-22-7.62-33-11.28-5.35-1.78-10.83-3.17-16.26-4.72-1.11-.31-2.25-.52-2.62-.6-7.52,7-14.26,13.83-21.65,19.9a187.62,187.62,0,0,1-21.74,15.44c-9.85,5.95-20.69,9.84-31.76,13-8.41,2.43-17,4.36-25.67,4.63-14.48.46-28.95.93-43.39-2.59-13.24-3.23-26.06-7.18-38.21-13.24A146.87,146.87,0,0,1,343,563.86c-9.71-7.51-18.14-16.07-23.85-27.09C318.32,535.12,317.28,533.56,316,531.34Zm225.39,7.44-57.6-20.22-3.37,2.7c-2.82-.75-2.52-2.83-2.53-4.65,0-6.51,0-13,0-19.53,0-1.64.59-3.45-1.23-5-1.11.41-2.4.8-3.61,1.35-4.3,1.95-8.4.92-12.38-.89a34.93,34.93,0,0,1-4.22-2.69c-.55.47-1,.77-1.31,1.12s-.66.8-1,1.15c-5.27,4.95-11.24,8.35-18.66,8.69a50.08,50.08,0,0,1-25.82-5.52c-12-6.28-20.87-15.43-24.49-28.91-.65-2.4-1.26-4.81.84-7.61,1,2.42,1.78,4.32,2.69,6.14,1.68,3.36,3.08,6.95,5.27,10,8.4,11.53,19.91,18.05,34,20,7.61,1,14.69-.37,20.74-5.44,1.18-1,2.24-2.12,3.34-3.19,3.76-3.62,5.1-3.76,9.11-.42a9.24,9.24,0,0,0,8.58,2.09c7.09-1.83,13-5.24,15.67-12.66a132.26,132.26,0,0,1,6.37-15.68c4.44-8.53,6.11-17.74,7.82-27,.91-4.88,1.7-9.77,2.53-14.66.16-.93.22-1.87.37-3.18-3.11-.13-5.82-.12-8.52-.38-4.75-.45-9.73-.41-13.73-3.5-5.79-4.48-12.51-7.06-19.13-9.84a11.12,11.12,0,0,0-6-.92c-5.9,1.14-11.84,2.82-16.29,7-5.15,4.87-11,8.68-16.64,12.84a70.94,70.94,0,0,1-23.77,11.78c-10.4,2.81-20.67,6.13-31.55,6.65-3.19.15-6.37.53-9.63.81a4.57,4.57,0,0,0-.49,1.41c0,6.86,0,13.71.16,20.56.23,11.13.62,22.25.78,33.38a7.9,7.9,0,0,1-1.42,4.75c-2.78,3.45-5.55,7.09-9,9.77-8.25,6.39-16.9,12.26-25.37,18.36-1.07.77-2.07,1.64-3.2,2.55a126.32,126.32,0,0,0,23.58,26.77c17.48,15.08,37.71,24.63,60.29,29.37a149,149,0,0,0,27,3.06c8.86.22,17.7-1.08,26.5-2.58,29.37-5,55-17.48,76.55-38C535.44,545.71,538,542.5,541.35,538.78Zm188.52,42.93,5.9-7.29c2.4,1.73,3.91,3.72,4.29,6.42,1,7.34-7.12,15.13-14.29,13.45a17.14,17.14,0,0,1-5.83-3.07c-6.37-4.63-12.64-9.4-18.89-14.18a14.42,14.42,0,0,1-3.65-3.57,12.25,12.25,0,0,1-2.17-5.57,11.34,11.34,0,0,1,15.35-11.09c2.53,1,4.95,2.2,7.39,3.29,3.25-4.93,8.83-17.68,9.49-21.71a62.12,62.12,0,0,0-18.54-8.32c-8.91-2.18-17.37-1.22-24.92,4.26a40.94,40.94,0,0,0-12.69,15.27c-4.76,9.68-4.82,19.48.17,29.11a51.69,51.69,0,0,0,5.52,8.64,102.43,102.43,0,0,0,39.78,29.95c8.05,3.49,16.51,4.62,25.07,2,9.61-2.9,15.83-9.72,20.58-18.24a20.13,20.13,0,0,0,2.14-14.86,9.69,9.69,0,0,1-.11-1.57l7,1.37a51.33,51.33,0,0,0,3.37-4.22c.87-1.37,2.52-2.39,2.36-4.28-6.87-6.35-36.21-28.17-40-29.69l-19,25.18Zm-135.11,40.7a35.51,35.51,0,0,0,1.71,3.48c3.61,5.61,7.26,11.2,10.9,16.79q10.92,16.8,21.83,33.59c2.21,3.41,3.07,7.18.31,10.52-3.11,3.78-7.14,6.47-12.38,6.07a7.09,7.09,0,0,1-3.59-1.8,16.39,16.39,0,0,1-3-3.45c-2.7-4-5.32-8-7.94-12q-12.47-19.15-24.92-38.31a23.92,23.92,0,0,0-2.4-2.68l-20.5,13.44,5,7.69c9.15,14.06,18.24,28.16,27.48,42.16,4.36,6.62,9.41,12.66,16.32,16.82,11.13,6.7,22.54,7.45,34.18,1.39,13.45-7,21.77-21,18.43-37.65-1.58-7.88-5.17-14.85-9.42-21.48-9.62-15-19.44-29.82-29.2-44.7-.73-1.11-1.63-2.11-2.63-3.39C608.23,613.62,601.13,617.32,594.76,622.41ZM253,412.72l1-.34c-1.39-5.59-2.19-11.42-4.28-16.74-8.18-20.8-19.52-44.61-19.52-44.61-10.8-19.94-15.14-23.52-17.71-25.37A40,40,0,0,0,193,318.07c-3.34-.32-8-.77-13.37,1.23C167,324,163.21,337.57,163,338.42a29.49,29.49,0,0,0,.27,16c.32,1,.6,2,1,2.93,4.22,11,10,20.8,20,27.8a260,260,0,0,0,28.55,17.19,207.86,207.86,0,0,1,28.4,17.46c2.77,2.06,5.68,3.91,8.53,5.86a20.63,20.63,0,0,0-2.51-6.45c-9.83-16.91-21.59-32.46-33.9-47.58-8.42-10.34-17.36-20.25-26-30.38-.52-.6-.67-1.52-1.36-3.17a31.62,31.62,0,0,1,10.33,7.37c9.64,9.48,19.74,18.5,28.32,29C234.65,386.8,244.77,399.05,253,412.72Zm294,318c-5-11.5-9.66-22.49-14.61-33.34s-9.24-21.94-14.78-32.84l-22.26,9.84c2,6.93,37.72,87.72,40.08,90.85,4-.68,48.38-20,52.37-22.82-1.68-6.08-8.87-21.65-11.37-24.47Zm-5.85-583.44a25.19,25.19,0,0,1,.56,2.56,40.08,40.08,0,0,0,8.74,21.55c4.32,5.2,10,8.43,16.9,8.46A31.78,31.78,0,0,0,598,157c.09-.29-.08-.66-.22-1.55l-3.64-2c-.52.74-.86,1.13-1.12,1.57-.68,1.19-1.38,2.37-2,3.6-4.47,9.36-18.06,12.11-24.9,1.15a62.69,62.69,0,0,1-7-15.33c-.46-1.56-1.61-3.13-.83-4.34,5.82-3.38,11.37-6.11,16.36-9.64,6.19-4.38,10.7-10,10.3-18.36-.34-7.16-6.14-11.35-12.9-10.76a23.26,23.26,0,0,0-13.82,6.18,37.75,37.75,0,0,0-9.17,11.6c-2.67,5.69-5,11.53-7.5,17.31-5.41,1.46-11.14,2.62-16.56,4.61a24.18,24.18,0,0,0-9,5.69c-7.45,7.82-4,16.84,3.23,20.59,4.79,2.5,9.81,2.79,15,2.14.79-.1,1.48-1,2.35-1.67-1.88-1.63-3.41-3-5-4.29-3.89-3.28-2.77-8.79.38-11.24C534.74,150.17,537.49,148.11,541.19,147.32ZM703.92,503.68c3.9,3.16,85.54,42.51,90.2,43.48,3.4-7.08,6.84-14.25,10.53-21.9l-90.1-43.41Zm-77.13,93.91c7.79,8.58,15.24,16.79,22.7,25s14.62,16.29,22.14,24.23,14.53,16.66,22.79,24.51L712.8,654.6c-7.84-8.55-15.35-16.72-22.84-24.9s-14.81-16.11-22.15-24.23S653.23,588.86,645,580.9ZM646,144.25c4.81,2.64,9.56,4,14.58,2.13.16-.5.27-.67.25-.82a8.23,8.23,0,0,0-.32-1.49c-2.17-5.87-3.34-11.82-1.67-18.06.7-2.63,1.19-5.32,1.76-8,.72-3.36.1-4.62-3.23-5.86a21.94,21.94,0,0,0-14.11-.36c-11.21,3.35-18.18,11.15-21.83,22a23.61,23.61,0,0,0-.48,13.61c1.18,4.54,4.19,7.06,8.89,6.79a19.07,19.07,0,0,0,4.92-1.22C639.35,151.47,642.33,147.81,646,144.25Zm33-.28c12.85.92,27.28-10.28,28.85-23.33.84-6.92-1.83-12.27-8.4-14.38-8.11-2.61-15.52-.51-22.47,3.68a7.33,7.33,0,0,0-3.23,4.28,9.35,9.35,0,0,1-3.39,5.51,19.6,19.6,0,0,0-5.57,9.63c-2,7.11,2.3,13.64,9.6,14.58A35.42,35.42,0,0,0,679,144Zm-64.58,16.44a8,8,0,0,0,.21-2.52c-1.78-6.76-.94-13.62-.6-20.4a55.71,55.71,0,0,0-.26-7.55,5.1,5.1,0,0,0-3.54-4.6c-3.62-1.38-7.24-1.7-10.77,1,0,.84-.06,1.68,0,2.51.3,3.9.8,7.78.92,11.68.15,4.95,0,9.91,0,14.87,0,2.44.26,4.79,2.28,6.72A15.09,15.09,0,0,0,614.41,160.41Zm-.58-52.28a23.91,23.91,0,0,0-.16-2.55c-.87-5.16-5.66-7.19-10-4.27a9.84,9.84,0,0,0-3.46,11.79,6.34,6.34,0,0,0,10.32,2.73A9,9,0,0,0,613.83,108.13ZM370.91,227.6c16-1,31.94-.8,48.27,2.74-3.87-3.2-4.57-3.59-21.78-5.8C388.4,223.38,379.48,224.78,370.91,227.6Z"/>
        <path d="M534.55,465.36c1.23-.76,2.42-1.59,3.69-2.27,4.22-2.28,8.53-4.41,12.67-6.81a16.84,16.84,0,0,0,3.63-3.45C570.92,435.07,578,423.09,578,423.09c13.33-22.59,16.83-47.18,17.41-50.71,1.49-9.08,3.15-18.22,7.41-26.6,6.78-13.36,17.91-20.86,32.3-23.72,5.84-1.17,11.75-1.74,17.8-.26a22.43,22.43,0,0,1,14.38,10.77,68.21,68.21,0,0,1,9.39,30.09c1.05,12.67-1.7,24.5-7.24,35.66a80,80,0,0,1-9.88,14.93,86.72,86.72,0,0,1-27,21.76c-16.06,8.45-33.15,13.77-50.85,17.33a29.31,29.31,0,0,1-4.1.31,27.82,27.82,0,0,0-11.29,3c-6.57,3.32-13.23,6.48-19.93,9.52-3.59,1.62-7.37,2.63-11.32,1.4Zm55.3-22.59.37.59c5.76-2.12,11.54-4.19,17.27-6.37,10.42-4,20.73-8.21,29.61-15.14a70,70,0,0,0,21.24-24,61.06,61.06,0,0,0,8.75-32.28,91.3,91.3,0,0,0-.9-9.16c-.83-7.2-2.47-14.48-6.2-18.89-8-9.43-29.76-8.56-41.6,1.9-5.37,4.75-7.48,10.4-10.84,19.45a104.28,104.28,0,0,0-6.2,28c-1.1,12.67-8.18,32.14-35.38,61.29a5.55,5.55,0,0,0,1.32-.4c9.87-6.78,19.86-13.4,29.55-20.43a67.35,67.35,0,0,0,15.5-14.88c3.7-5.13,7.4-10.26,11.19-15.32,1.07-1.43,1.61-3.44,4.19-4.25a41.31,41.31,0,0,1-1.35,7.71c-4.22,13.14-12.44,23.5-22.84,32.21C599.23,436.48,594.43,439.49,589.85,442.77Z"/>
        <path d="M243.56,455.77l-.56,3.8c3.34,4.68,9.43,6.56,12.51,11.62.1.17-.22.6-.34.91-7.93-2.91-16.34-5.59-25.21-7.91-1.38-.36-2.76-.71-4.13-1a38.58,38.58,0,0,0-13.59,8.73c-10.35,10.5-10.86,12.37-22.49,22.58a93.51,93.51,0,0,1-9.94,7.32c-10.86,7-16.17,10.69-23.36,10.6-8.18-.1-14.26-4.73-17-6.85a36.53,36.53,0,0,1-10.71-13.6,27.52,27.52,0,0,1-.8-24.18A45.32,45.32,0,0,1,145.55,447a85.14,85.14,0,0,1,29.26-11.7c6.5-1.39,12.71-1.09,19.2-.16a130.65,130.65,0,0,1,23.9,5.31c8,2.73,15.65,6,21.47,12.52C240.35,454,241.86,454.64,243.56,455.77Zm-17-1.2c-1.48-.68-2.91-1.51-4.45-2a104.32,104.32,0,0,0-16.74-4.67c-8.61-1.44-17.2-2.87-26-2.46a57.33,57.33,0,0,0-29.93,9.47c-6,4-10.74,8.81-13.44,15.05a23.42,23.42,0,0,0-2.11,7.44c-.93,9.55,4.83,16.56,6,18a20.13,20.13,0,0,0,8.87,6.74,18.08,18.08,0,0,0,7.06,1c3.94-.18,7.26-1.78,10.51-3.67,10.64-6.19,18.7-15.3,27.15-24,3.22-3.3,6.62-6.43,9.94-9.62.82-.79,1.68-1.54,3.37-3.09-16.28.43-30.31,5.4-44.46,10.36,3.92-4.26,9.09-6.36,14.26-8.36a160.37,160.37,0,0,1,16-5.59c5.59-1.5,11.39-2.17,17.07-3.36C215.19,454.65,220.78,455.83,226.56,454.57Z"/>
        <path d="M346.57,369c-4-3.55-3.06-7.83-5-11.26l-7.61-3c2.55-1.5,2.55-1.5,6.51-1.11,1.56-5.55.39-9-4.36-12.34a21.71,21.71,0,0,0-1.79,1.59,26.71,26.71,0,0,0-1.61,2.15c-.52-3,.19-5.26,2-6.61,2-1.47,3.88-.79,5.77.18a10.88,10.88,0,0,1,5.66,6.31,29.91,29.91,0,0,1,1.5,15.62C347.21,363,347,365.46,346.57,369Z"/>
        <path d="M493.8,314.34a3.26,3.26,0,0,1-3.26-2.6,38.93,38.93,0,0,0-1.41-3.83c-1.23-2.6-3.1-4.58-6.17-4.7s-5.12,1.59-6.56,4.13c-.76,1.33-1.35,2.75-2.08,4.1-.37.7-.87,1.33-1.42,2.17-2.07-4.95.11-10.48,5.05-13.49,4.53-2.77,9.27-1.8,13.26,2.58a14.74,14.74,0,0,1,3.73,8.77C495,312.43,494.16,313.47,493.8,314.34Z"/>
        <path d="M476.79,325.51c3.79-.25,4.45-.06,4.88,2.42.57,3.31.73,6.7,1.15,10.94l1.93,1.34c-3.66,0-6.86,1.61-10,1.06.14-1.78.53-3.22.29-4.55A18.31,18.31,0,0,1,476.79,325.51Z"/>
        <path d="M415.85,344.41l2.77,1.74-9.11,1.52,1-1.56c-.11-4.69-.32-8.59-.25-12.47.05-2.45,1.09-3.46,2.93-3.41s2.62,1.21,2.92,2.94C416.8,336.88,417.92,340.56,415.85,344.41Z"/>
        <path d="M405.53,323.14c6.79-6.47,15.13-5.61,24-5-.89,2.23-2.47,2.33-3.85,2.51C419,321.54,412.24,322.32,405.53,323.14Z"/>
        <path d="M463.52,467.2c-.1,1.84-.07,3.05-.25,4.22-.42,2.55-1.77,4.13-4.24,4.42a31.58,31.58,0,0,1-7.14.07,4.71,4.71,0,0,1-4.39-5.75q1.35-8.82,3.06-17.61a16.14,16.14,0,0,1,2-4.66,4.17,4.17,0,0,1,7.8.84c.6,2.48,1.12,5,1.54,7.49C462.51,460.07,463,464,463.52,467.2Z"/>
        <path d="M446.29,406.31c.52,1.26,1,2.1,1.22,3,.34,1.14.42,2.37.82,3.49.84,2.38,2.28,4.4,5,4.63s4.24-1.87,5.27-4.12c.56-1.23.76-2.62,1.24-3.9a14.52,14.52,0,0,1,1.35-2.14,10,10,0,0,1-3,11.07,7.69,7.69,0,0,1-8.64.17C446,416,444.64,411.2,446.29,406.31Z"/>
        <path d="M568,110.08c4.22,2.54,5.14,4.51,4,8.36-1.68,6-7.42,11.38-14,13.1-1.69-3.76,0-7.31,1.11-10.66C561.22,114.2,562.44,113,568,110.08Z"/>
        <path d="M645.6,118.26c1.77,4.59,1.13,8.36-3,17.79-1.21,2.78-2.33,5.74-6.15,6.51-4-4.56-1.24-9.2,0-13.51C637.84,124.29,640.36,120.05,645.6,118.26Z"/>
        <path d="M693,112.75c.26,1.45.95,3,.72,4.33a38.71,38.71,0,0,1-6.47,16.46,6.86,6.86,0,0,1-7,3.1c-2.93-3.86-2.07-8-.79-12.62l4.73,1.21c1.71-1.73.34-3.14.08-4.51a7.46,7.46,0,0,1,1.92-6.55C687.8,112.29,689.76,111.66,693,112.75Z"/>
      </g>
      <g>
        <path d="M202.33,268.61c-.07-.48-.2-1.31-.31-2.35-1.18-11,2.42-17.43,5.14-33.14a43.5,43.5,0,0,0,1-6.78c.09-7.64-.28-15.29,0-22.91.05-1.15.15-2.2.33-4.31.53-6.35,1.73-18.27,4.64-34.32,1.4-7.68,2.89-14.07,3.51-16.62,5.52-22.5,24.65-64.13,59.13-78.85,12-5.11,19.73-4.38,23.89-3.53,10.41,2.13,16.93,8.79,19.78,11.78,1.78,1.87,12,12.9,12.06,28.72a42.43,42.43,0,0,1-3,16.07,84,84,0,0,1-6,13c-9.75,16.28-29.86,35.36-49.73,48.63-1,.65-6.79,4.55-14.57,9.53C247,200.7,241.41,204.3,241,204.59c-4.86,3.43-19.11,13.46-27.29,30.64-3.38,7.1-5.7,15.36-7.33,21.17-1.39,5-2.35,9.18-3,12.21Zm25.87-65.53c10.46-7.56,18.82-13.67,24.58-17.91,13.34-9.8,14.18-10.34,18.63-13.52,4.28-3.07,8.73-5.9,12.95-9.05,0,0,4.35-3.23,9.35-7.8,5.87-5.35,18.31-16.71,24.09-34.71,4.16-13,2-20.77,1.67-22.47-.53-2.91-2.24-5.67-3.73-8.33-2.47-4.42-6.61-7.31-10.64-10a26.51,26.51,0,0,0-13.49-3.2c-9.93.18-17,5.93-26.93,14.06a111.11,111.11,0,0,0-12.88,12.69,101.53,101.53,0,0,0-9.62,13.43,123.34,123.34,0,0,0-7.84,14.93,191.36,191.36,0,0,0-7.05,18.58,241.62,241.62,0,0,0-7.76,31.87c-1.15,6.29-1.16,7-1.39,8.47-.11.64-.22,1.16-.28,1.49,0,.17-.07.29-.07.31-.12.55-1.33,7.53-4.16,24.1,1.4-3.14,3.32-7.34,5.7-12.26.35-.72,1.52-3.27,2.92-5.94,3.19-6,6.13-12.2,9.68-18,4.11-6.71,8.66-13.16,13.23-19.57s9.19-12.6,14-18.72c1.25-1.58,2.44-3.67,5.45-4.16-.74,1.46-1.19,2.5-1.77,3.46-2.61,4.37-5.3,8.7-7.9,13.08q-6.75,11.39-13.41,22.83c-2,3.41-4.08,6.77-5.87,10.28-2.26,4.46-4.27,9.05-6.37,13.59C228.91,201.42,228.57,202.25,228.2,203.08Z"/>
        <path d="M335.23,155.16l1.57-1.83c9.49-11,12-12.32,15.89-17.37s5.53-9.42,8.23-15.33a96.17,96.17,0,0,0,5-14.92c2.82-10.38,1.08-12.56,2.73-26.07,1.75-14.33,2.77-21.81,8.66-28.33a28.85,28.85,0,0,1,12.26-8,26.46,26.46,0,0,1,11-1.05,27.55,27.55,0,0,1,17.68,9.23c6.12,7.21,6.2,15.84,6.17,20.57-.16,28.43-28.9,48.68-31.79,50.65-6.87,4.71-15.25,9.36-15.25,9.36-6.4,3.61-13,6.87-19.38,10.49-2.65,1.5-5.12,3.46-10,6.49-2.24,1.39-5.23,3.2-9.14,5.25-1.27.66-2.34,1.2-3.12,1.58Zm41.88-31a69.55,69.55,0,0,0,16.56-10c14.9-12.13,31-35.76,23.61-52.46-.22-.51-5.36-11.67-16-13.86a19.55,19.55,0,0,0-9.45.5c-6.74,2-12,7.5-14.38,14.69A75.42,75.42,0,0,0,374.6,77.8c-1,8.3-1.12,16.62-2.8,24.94A97.89,97.89,0,0,1,368.6,114a107.75,107.75,0,0,1-6.49,15c2.95-3.84,6.15-7.52,8.79-11.57,3-4.58,4.78-7.88,8.31-14.49C390.14,82.42,391.1,81,391.66,81.14c1.39.47,0,10.91-3.67,20.23-.73,1.83-3,6.52-7.53,15.88C379.36,119.55,378.23,121.85,377.11,124.15Z"/>
      </g>
      <g>
        <path class="cls-1" d="M700.42,771.44a38.11,38.11,0,0,1,8.6-2.16c7.78-1.24,11-1.66,11-1.66a9,9,0,0,0,5.38-2.06c1-.87,2.41-2.67,2-3.86s-2.26-.62-5.58-2.07c-1.78-.78-3.06-1.33-3.54-2.59-.78-2,.94-5.1,2.71-6.8,2-2,4.32-2.36,12.54-2.44,9.12-.09,10.76.37,15.41-.45a21.3,21.3,0,0,0,9.53-3.87c.28-.21,5-3.76,4.32-5.58-.53-1.53-4.14,0-8.47-2.39-1.14-.64-3.45-1.93-4.12-4.3-.25-.9-.77-3.75,3.47-9.08,5.84-7.35,11.29-7.55,24.89-16.22,0,0,4.19-2.67,9.63-9.43.72-.89,2.82-3.56,2.23-4.5-.76-1.23-5.11,1.92-7.92-.35a3.89,3.89,0,0,1-1.27-1.87c-1-3.31,3.32-7.4,4.43-8.46,3.43-3.29,5.46-3.19,9.56-5.76a36.51,36.51,0,0,0,8.94-8.25,49.49,49.49,0,0,0,9.17-17.13,70.41,70.41,0,0,0-.47,15c.18,2.35.48,4.62,2.19,12.94,2.3,11.18,3.21,14.07,4.88,23,1.93,10.31-.17,1.63,1.52,15.33.27,2.17.69,5.38-1,8.16-.42.69-1.72,2.85-3.42,2.86-3.68,0-5.34-10-8-9.69-1.25.15-2,2.4-2.37,3.5-2.71,8.5-1.85,14.91-2.42,22.5-.72,9.74-3.38,15.86-5.09,19.08-3.85,7.31-7.22,8.13-8.43,8.29a5.35,5.35,0,0,1-3.87-.83c-1.42-1-1.74-2.59-2.65-5.08a49.87,49.87,0,0,0-3.12-6.9c-3.34,5-5.92,9.08-7.59,11.8-5.71,9.31-6.65,11.89-10.56,15.47-1.68,1.54-4.28,3.06-9.48,6.1-2.81,1.63-4.56,2.51-5.76,1.7-.39-.27-.61-.65-2.26-4.95-.89-2.33-1-2.58-1.3-2.87-1.31-1.11-3.74-.27-6.84,1.51-5.76,3.31-6.23,5.51-10.34,8.15-2.06,1.32-8.09,5.18-13.68,2.8-3.79-1.62-5.73-5.41-6.52-7.25a8.92,8.92,0,0,0-3.27-2c-3.3-1.11-5.41.58-10.87.11-1.68-.15-2.43-.39-3-1-1.83-1.81-1.15-5.56-1.09-5.86C689.63,775.72,697.6,772.56,700.42,771.44Z"/>
        <path class="cls-6" d="M781.07,761c-.67.85-1.63,2.12-2.72,3.73-3.5,5.15-3.48,6.69-6.25,11.31A58.53,58.53,0,0,1,762,788.3,28.88,28.88,0,0,1,749.64,795c-3.09.8-5.8-1.59-5.89-5.07-.07-2.3-.85-3.27-2.92-3.09a6.13,6.13,0,0,0-3.17,1.21c-2.07,1.66-3.84,3.8-6,5.32-3,2.17-6,4.56-9.62,5.55a19.32,19.32,0,0,1-6.78.64c-4.48-.37-7.57-3-9.65-7.24-1.23-2.48-1.78-2.7-4.14-2.15a31.05,31.05,0,0,1-6.31,1c-2.08.17-4.88.4-6.9-1.55a7.65,7.65,0,0,1-2-4.25,10.82,10.82,0,0,1,2.6-8.36c3.57-3.88,7.53-6.83,12.57-8.26a54.56,54.56,0,0,1,10.3-1.71,34.41,34.41,0,0,0,9.92-1.83c.67-.25,4.2-1.55,4.09-2.57,0-.26-.29-.53-3.26-1.49-2.75-.89-2.78-.86-3.22-1-4.1-1.64-4-8.12-.35-11a13,13,0,0,1,7.45-2.78c16.47-1.3,22.68.73,29.06-3.37a19.37,19.37,0,0,0,5.33-5.25,19.27,19.27,0,0,1-6.31-.93c-2.11-.68-3.28-1.15-4.36-2.28a8.28,8.28,0,0,1-1-9.49,24.4,24.4,0,0,1,6-7.33c3.48-3,7.48-4.75,11.31-7s7.95-4.16,11.39-7.34c2-1.87,4.46-3.18,6.54-5,1.58-1.37,3.39-2.68,3.9-5.43-1,0-1.95,0-2.91,0a24.71,24.71,0,0,1-3.65-.28,3.51,3.51,0,0,1-2.45-4.36c1.07-3.44,2.31-6.85,5.17-9a30.89,30.89,0,0,1,5.38-3.31,37.43,37.43,0,0,0,11.39-7.73,25.92,25.92,0,0,0,3.58-4.9c1.65-2.81,3.12-5.75,4.67-8.63a32.39,32.39,0,0,0,2.65-8.5,51,51,0,0,0,.84-8.83c.07-2.28,0-4.18,0-5.53.17.57.35,1.14.52,1.7a89.28,89.28,0,0,1,.9,12.13c0,7.69-.49,11.73-.11,20a39.8,39.8,0,0,0,.68,5.23c1,5.51,1.78,9.64,2.23,11.5,4.57,19.35,5.19,20.4,5.81,25.61.7,6,2.1,17.85-2.54,20.72-1.63,1-4.58,1.39-6-.19a25.12,25.12,0,0,1-4.09-6.48c-.27-.59-.78-1.35-1.27-1.43-1-.17-1.21.93-1.3,1.74-.29,2.51-.48,5-.68,7.56-.23,2.76-.22,6.94-1.22,15.32A56.15,56.15,0,0,1,804,755.53a32.55,32.55,0,0,1-4.87,10.24,25.79,25.79,0,0,1-4.29,4.45c-1.83,1.5-3.82,3.08-6.47,2.76a5.38,5.38,0,0,1-3.6-1.79,6.65,6.65,0,0,1-1.26-2.9A46.06,46.06,0,0,0,781.07,761Zm1-70.83c1.58-.13,2.69-.25,3.79-.32a31.84,31.84,0,0,1,4.77-.2,2,2,0,0,1,1.88,2.6,13.9,13.9,0,0,1-1.37,3.65,8.21,8.21,0,0,1-1.54,2.18,62.7,62.7,0,0,1-10.91,9.56c-2.67,1.79-5.37,3.6-9.36,5.8-5.41,3-7.89,3.76-12.24,7,0,0-4.19,3.06-5.53,7.19-.68,2.07-.56,3.63.94,4.85a5.46,5.46,0,0,0,2.32.91c4.85,1,6.54.92,8.08,1.58,1.15.49,1.72.75,1.91,1.23,1.1,2.66-5,10.07-12.62,12.3-.38.12-2.45.37-6.59.78-4.56.46-9.12,1-13.68,1.26-2.74.15-5.46-.21-8.22.49a7.3,7.3,0,0,0-4.33,2.61,2.88,2.88,0,0,0-.7,2.3c.14.47.56.9,3.1,1.6a31.28,31.28,0,0,1,5.22,1.68,3,3,0,0,1,1.43,2,5.59,5.59,0,0,1-1.43,5.08,12.74,12.74,0,0,1-7.16,3.71c-1.27.22-2.55.4-3.83.57-4.73.61-9.33.94-11,1.2-6.44,1-13.55,4.54-15.69,9.52-.34.8-1.3,3-.43,4.57a2.92,2.92,0,0,0,2,1.33,22.19,22.19,0,0,0,6.37.26c2-.08,4.09-.51,6.14-.65,2.24-.16,3.56,1.08,4.67,3.25,1,1.9,2.34,4,4,4.87a11.6,11.6,0,0,0,10.09.31,32.74,32.74,0,0,0,10.65-7.74c2.14-2.28,4.56-4.31,7.73-4.54a4.7,4.7,0,0,1,1.94.2c2.66,1,4.2,2.77,4,6.13-.12,1.77.35,2.25,2,2.25a11.82,11.82,0,0,0,7-2c9.12-6,14.15-15.59,14.15-15.59,2.21-4.43,4.24-7.95,5.78-10.48,3.37-5.52,5.07-7.42,6.2-7a1.42,1.42,0,0,1,.69.65c2.55,4.22,3.27,11.15,5.62,12.33s6.74-3.52,8.72-6.19a29.91,29.91,0,0,0,5.12-12.42c2.3-11.52-.22-20.41,2.51-29.38.83-2.73,1.91-4.72,3.48-5.09a3.49,3.49,0,0,1,2.66.75c4.62,2.83,5.63,7.82,7.27,7.56,1.15-.18,1.72-2.82,1.85-3.42,1.9-9.09-2.24-16.17-4-30-.34-2.77-.88-8.19-2.28-16-.21-1.21-.4-2.19-.52-2.82-.19,1.49-.51,3.69-1,6.32-.86,4.47-1.91,7.86-3.05,12.19a74.13,74.13,0,0,1-2.17,7.22c-1.6,4.29-3.33,8.53-5.1,12.75-1,2.45-2.14,4.86-3.38,7.19-1.42,2.7-3,5.33-4.56,7.92-2,3.21-4,6.42-6.1,9.51-1.9,2.74-4,5.37-6.05,7.93-1.79,2.19-3.7,4.29-5.67,6.29s-4,3.84-6.11,5.68a89.07,89.07,0,0,1-7.11,6,100.27,100.27,0,0,1-15.24,9.21c-3.09,1.44-6.24,2.75-9.42,3.94-2.89,1.07-5.86,1.92-8.8,2.83-2.2.67-4.4,1.39-6.77.81,4.51-2.18,7.61-3.5,9.65-4.31.5-.2,1.45-.6,2.74-1.17,1.91-.84,3.71-2,5.56-3,4.2-2.26,8.46-4.35,12.56-6.79a111.66,111.66,0,0,0,15.4-11.52,113.37,113.37,0,0,0,13.6-14.67c4.18-5.4,7-10.27,9.32-13.79,1.08-1.64,2-3.37,3-5.12,1.3-2.48,2.57-5,3.74-7.56.87-1.88,2.81-6.06,4.26-9.8,4.77-12.36,5.62-23.5,8.41-31.75.09-.25.28-.84.52-1.69a33,33,0,0,0,.74-9.48,49.38,49.38,0,0,0-3.29,5.43c-1.49,2.65-2.71,5.6-4.62,7.83a30.15,30.15,0,0,1-10.4,7.73c-2.25,1-4.44,2.26-6.61,3.53C784.13,683.71,783,686.48,782.08,690.21Z"/>
      </g>
      <g>
        <path class="cls-3" d="M233.13,697.24a41,41,0,0,0,9.33,11.8c7.55,6.5,15,7.73,26.4,10.22,24.48,5.35,36.88,8.16,44.52,15a40.28,40.28,0,0,1,12,19.14c.89,3.32,5,18.86-4.72,30.84-7,8.6-16.93,10.19-19.89,10.54a107.79,107.79,0,0,1-9.67,14.69c-5.63,7.21-8.53,10.84-12.51,11.72-2.5.55-3.43-.16-12.66,0-2.17,0-3.94.11-5.08.16a18.05,18.05,0,0,1-4.37,5.48c-5.23,4.37-11.5,4.15-15.53,3.94-9.28-.47-15.93-4.68-21.73-8.35a99,99,0,0,1-11.67-9c-4.45-3.82-6.68-5.73-8.1-7.62-7.22-9.64-5.36-22.18-5.24-22.95.79-4.84,2.57-8.12,9.95-18.73,14.56-21,17.35-22.17,20.53-29.11,3.08-6.69,5.81-17.14,3-32.76Z"/>
        <path d="M224.22,687.39l1.88,3.78c.74-1.86-.07-4.69,3-4.55,1.27,2.18,2.55,4.35,3.81,6.54,5.61,9.79,15,14.15,24.87,17.55,7,2.43,14.24,4.41,21.46,6.26,4.64,1.18,9.45,1.7,14.16,2.61a36.69,36.69,0,0,1,4.19,1.27c3.81,1.21,7.64,2.36,11.41,3.68,5.66,2,10,6,13.75,10.46,2.42,2.91,4,6.83,5.16,10.57a55.24,55.24,0,0,1,2.92,16,90.39,90.39,0,0,1-.62,10.64,30.09,30.09,0,0,1-1.3,5.81c-2,6.45-6.86,10.3-12.22,13.54-2.89,1.74-5.94,3.18-8.93,4.72a6.4,6.4,0,0,1-1.57.43c-2.1.45-3.76,1.41-4.47,3.73-1.27,4.14-4,7.38-6.7,10.57-1.36,1.62-3.34,2.66-4.92,4.1-2.47,2.28-4.85,4.65-7.23,7-3.19,3.17-6.54,4.91-11.17,3.85-3.07-.7-6.48-.32-9.7.07-1.22.15-2.26,1.81-3.51,2.57-2.6,1.59-5.31,3-7.93,4.55-4.39,2.63-9.12,1.7-13.7,1.82-4.86.13-9.78-.63-13.83-3.32-3.54-2.35-7.33-4.41-9.9-8.29a27.09,27.09,0,0,0-7.47-7c-5-3.46-8.17-8.43-10.87-13.73-3.28-6.44-3.11-13.64-3.23-20.85a23.11,23.11,0,0,1,3.43-12.1,29.58,29.58,0,0,1,3-4.13c2.87-3.52,5.82-7,8.67-10.49,1.85-2.28,3.55-4.67,5.38-7A58.93,58.93,0,0,0,221.22,731a63.13,63.13,0,0,0,2.32-9.63c.76-4,1.47-8,1.88-12a28.09,28.09,0,0,0-.33-7.21c-.58-3.57-1.46-7.08-2.3-10.59A3.64,3.64,0,0,1,224.22,687.39Zm31.84,45a68.38,68.38,0,0,0,14,16.3c2.67,2.32,5.44,4.52,8,7,3.63,3.41,7.15,6.95,10.66,10.49,3.93,4,7.67,8.09,9.77,13.52.14.35.76.49,1.15.73l.55-.33c-.68-3.12-.92-6.46-2.12-9.33-2.39-5.72-6.44-10.26-10.67-14.61a41,41,0,0,1-3.75-5.29,27.88,27.88,0,0,1,6.45,4.22,138.07,138.07,0,0,1,10,10.26,18.87,18.87,0,0,1,4.65,12.42c0,4.64-.27,9.29-.45,14.48,1.94-1.36,3.71-2.47,5.34-3.77,3.39-2.71,6.76-5.5,8.16-9.92a21.4,21.4,0,0,0,.8-4.45c.34-3.63,1-7.32.76-10.91a72.36,72.36,0,0,0-2.14-13.37c-1.39-5.4-4.08-10-9.08-12.8a74.71,74.71,0,0,0-20-7.2c-6.55-1.48-13.22-2.68-19.52-4.89-7.83-2.75-15.41-6.25-22.95-9.75-2.84-1.31-5.23-3.55-7.87-5.31a17.7,17.7,0,0,0-2.47-1.17c1.94,4.53,4.12,8.58,5.45,13,2.23,7.27,4,14.7,5.8,22.13,1.31,5.54,2.3,11.17,3.38,16.77,1,5.26,2.4,10.45,2,16-.29,3.63-.33,7.27-.32,10.91a94.75,94.75,0,0,0,.39,11.69,68.22,68.22,0,0,0,2.4,9.56c.41,1.48,2.68,3.56,3.87,3.74-2.25-6.51-2.67-13-.92-15.21.25.4.52.76.72,1.15a4.37,4.37,0,0,1,.37,1.05,36.12,36.12,0,0,0,8.55,16.91c2.31,2.54,5.17,1.57,7.78,2.2.17,0,.45-.29.66-.47,4.79-4.44,10.24-8,14.48-13.21a13,13,0,0,0,2.76-9.3A26.81,26.81,0,0,0,289,783.27a132.07,132.07,0,0,0-10.25-14.65c-4.25-5.39-8.85-10.49-13.36-15.67-3.73-4.28-6.39-9.28-8.85-14.42A8.84,8.84,0,0,1,256.06,732.35ZM234.4,768.19l.74-.1c.84,4.22,2.12,8.4,2.39,12.69.33,5.12.63,10.19,2.24,15,.95,2.86,2.17,5.61,3.38,8.68.51-.65.68-.78.73-.94a1.8,1.8,0,0,0,.08-.85c-1.39-5-.65-10,.18-15a137.06,137.06,0,0,0,2.32-17.95,41.78,41.78,0,0,0-2.7-16.83c-2.3-5.89-3.51-12.1-5.29-18.13s-3-12.3-4.56-18.44c-.13-.52-.74-.89-1.39-1.62-.12,3-.17,5.59-.33,8.15-.28,4.31-.28,8.66-1,12.9-1,5.78-1.45,11.73-4.05,17.19a3.29,3.29,0,0,0-.15.56c-.94,3.58-1.64,7.25-2.9,10.72-1.79,5-4.09,9.76-6,14.7a84.55,84.55,0,0,0-2.66,8.73,24.36,24.36,0,0,0-1.11,6.14,44.09,44.09,0,0,0,4,18.83c.47,1,1,2,1.47,3-1.14-6-3.69-11.55-1.78-17.84a43.05,43.05,0,0,0,6.17,14.62c3,4.56,6.85,8.19,10.4,12.18a10.35,10.35,0,0,0,8.67,3.61c1.1,0,2.19.1,3.28,0a21.81,21.81,0,0,0,9.35-2.95c-.41-.38-.57-.64-.8-.71-7.22-2.31-11.29-8.24-15-14.34a37.74,37.74,0,0,1-4.12-9.55c-1.08-3.86-2.29-7.77-1.83-12a78.58,78.58,0,0,0,.33-8.94c0-3-.28-6-.35-9A13.17,13.17,0,0,1,234.4,768.19ZM219.67,749.9l-.7-.14c-.73,1.12-1.37,2.31-2.18,3.36-2,2.55-4,5.07-6.08,7.52-3.14,3.69-5.87,7.7-8.78,11.54a19.49,19.49,0,0,0-4,14.05,75,75,0,0,0,2.34,12c.91,3.63,2.22,7.13,5.62,9.73-.35-3.68-.69-6.93-1-10.18A35.28,35.28,0,0,1,207.09,783c3.73-10.28,8-20.38,12-30.56A17.94,17.94,0,0,0,219.67,749.9Z"/>
      </g>
      <g id="Group_21" data-name="Group 21">
        <path id="Path_103" data-name="Path 103" class="cls-4" d="M844.53,256.92A53.36,53.36,0,0,1,847,274.39a62,62,0,0,1-11.54,36.48c-3.09,4.26-13,17.51-31.8,22.45-19.78,5.2-35.83-2.4-40.22-4.68-23.31-12.1-29-35.65-29.62-38.66-4.05-18.26,2.14-33.1,5.3-39.29a57.42,57.42,0,0,1,83-22.24C827.6,232,839.34,241,844.53,256.92Z"/>
        <g id="Group_20" data-name="Group 20">
          <path id="Path_104" data-name="Path 104" d="M772.5,217.13a80.8,80.8,0,0,1,8.18-1.41c5.63-.69,16.36-1.88,28.77,1.76a61.4,61.4,0,0,1,17.66,8.44c22.16,15.6,25.24,43.09,25.37,44.41,3.14,32.48-21.15,53.33-23.26,55.09-2.75,2.28-21.63,17.49-47.53,14.48-23.55-2.75-44.86-19.13-52.39-45.55s4.89-56.35,29.33-70.44c2.2-1.27,4.38-2.59,6.74-4-3.49-8.74-11.33-12.62-16.93-18.45,1-2.92,2.76-3.09,5.16-2.53,5.73,1.32,9.44,5.31,12.89,9.59C768.56,211.09,770.29,213.94,772.5,217.13Zm-6.25,26.79a11.35,11.35,0,0,1-2.13-1.65c-1.3-1.81-3.63-3.81-3.46-5.53.32-3.18,3.55-3.15,6.25-3.13a17.56,17.56,0,0,0,3-.59l-1.61-4.12a11.87,11.87,0,0,0-2.42.52c-26.72,12.84-39,50.84-21,76.76,14,20.19,38.95,28.57,63,20.23,23.77-8.23,39-35.63,34.51-59.8-3.79-20.28-25.33-41.25-42.54-43.27-7.55-.89-15-.93-22.78,2.2l7,6.21c2.73-.7,5-1.7,7.33-1.73,1.66,0,4,.87,4.79,2.13s.19,3.47-.4,5c-.52,1.4-1.86,2.5-3,4,1.4,1,2.32,1.69,3.28,2.33,2.07,1.38,4.41,3.18,2.81,5.64-1.05,1.62-3.76,2.52-5.88,3s-4.18-.2-6.68-.4c-.63,2.73-.88,5.38-1.9,7.68-.76,1.73-2.28,3.86-3.89,4.32-2.76.79-4.09-1.65-4.94-4-.7-2-1.46-3.94-2.27-6.1-3,1.59-5.66,3.32-8.53,4.27-1.52.5-4.13.2-5.05-.81s-.35-3.57.43-5c1.49-2.67,3.61-5,6-8.15Z"/>
        </g>
        <path id="Path_105" data-name="Path 105" class="cls-7" d="M753.32,263.76a7,7,0,0,1-1.55,7.17c-1.64,2.48-2.85,3.08-3.75,3-2.78-.36-5.66-8.08-2.73-11.62a4.88,4.88,0,0,1,4.29-1.78C752.05,260.84,753.17,263.4,753.32,263.76Z"/>
        <path id="Path_106" data-name="Path 106" class="cls-7" d="M750.21,283.56a12.36,12.36,0,0,0,0,5.61,33.77,33.77,0,0,0,4,10.14,40.36,40.36,0,0,0,10.45,11.07c6.37,4.6,12.21,6.06,17.92,7.48a41.25,41.25,0,0,0,15,.93c2.67-.35,4.6-.93,5.6-2.55.81-1.32,1-3.34.06-4.44-1.27-1.46-4-.64-6.65-.31-4.48.58-7.75-.37-14-2.18a42.38,42.38,0,0,1-18.34-10.94c-3.64-3.78-7.17-7.45-9.36-13.25-.72-1.92-1.66-5.05-2.8-5S750.35,283,750.21,283.56Z"/>
      </g>
    </g>
  </g>
</svg>
