<svg xmlns="http://www.w3.org/2000/svg" viewBox="0 0 217.51 205.35">
  <defs>
    <style>
      .cls-1 {
        fill: #1d1c1a;
        stroke-miterlimit: 10;
      }

      .cls-1, .cls-2 {
        stroke: #1d1c1a;
      }

      .cls-2 {
        fill: none;
      }

      .cls-3 {
        fill: #fef9e9;
      }
    </style>
  </defs>
  <title>tripadvisor icon</title>
  <g id="Layer_22" data-name="Layer 22">
    <g id="Group_24" data-name="Group 24">
      <g id="Group_4-2" data-name="Group 4-2">
        <g id="Ellipse_2-2" data-name="Ellipse 2-2">
          <circle id="Ellipse_39" data-name="Ellipse 39" class="cls-1" cx="108.75" cy="104.38" r="67"/>
          <circle id="Ellipse_40" data-name="Ellipse 40" class="cls-2" cx="108.75" cy="104.38" r="66.5"/>
        </g>
      </g>
      <g id="Group_23" data-name="Group 23">
        <path id="Path_122" data-name="Path 122" class="cls-3" d="M115.07,123.37l-6.29,6.83-6.52-7a20.32,20.32,0,0,1-17.48,4.9,19.51,19.51,0,0,1-11.78-7c-5.63-6.83-6.87-18.43,1.93-27.57l-6.15-6.94c4.13,0,7.75.12,11.36-.06a11.42,11.42,0,0,0,4.75-1.29c16-8.9,32-9,47.91.3a7.79,7.79,0,0,0,3.55,1c3.9.13,7.8,0,12.42,0l-6.29,7.11c4.81,4.8,7.07,10.54,6.34,17.3A19.36,19.36,0,0,1,143,122.9C137.17,128.72,126,132.12,115.07,123.37ZM88.73,122a13.55,13.55,0,1,0-.26,0Zm40.18.08a13.55,13.55,0,1,0-13.68-13.57A13.56,13.56,0,0,0,128.91,122.1ZM93.69,88.3c2.63,1,9.3,4.11,13.07,11.29a22.25,22.25,0,0,1,2.1,5.87,30.22,30.22,0,0,1,2.33-5.57,32.14,32.14,0,0,1,11.68-12A38.17,38.17,0,0,0,93.69,88.3Z"/>
        <path id="Path_123" data-name="Path 123" class="cls-3" d="M95.76,108.42a7.07,7.07,0,1,1-7.18-7h.18A7.07,7.07,0,0,1,95.76,108.42Z"/>
        <path id="Path_124" data-name="Path 124" class="cls-3" d="M128.83,115.5a7,7,0,1,1,.25,0Z"/>
      </g>
    </g>
  </g>
</svg>
