<svg xmlns="http://www.w3.org/2000/svg" viewBox="0 0 217.51 205.35">
  <defs>
    <style>
      .cls-1 {
        fill: #1d1c1a;
        stroke-miterlimit: 10;
      }

      .cls-1, .cls-2 {
        stroke: #1d1c1a;
      }

      .cls-2 {
        fill: none;
      }

      .cls-3 {
        fill: #fef9e9;
      }
    </style>
  </defs>
  <title>google icon</title>
  <g id="Layer_51" data-name="Layer 51">
    <g id="Ellipse_3" data-name="Ellipse 3">
      <circle id="Ellipse_35" data-name="Ellipse 35" class="cls-1" cx="108.75" cy="104.38" r="67"/>
      <circle id="Ellipse_36" data-name="Ellipse 36" class="cls-2" cx="108.75" cy="104.38" r="66.5"/>
    </g>
    <path class="cls-3" d="M145.3,97.73c-.05-.5-.25-.64-.74-.64H110.2c-.67,0-.67,0-.67.68v13.37c0,.73,0,.73.75.73h19.31c.61,0,.62,0,.49.61a16.79,16.79,0,0,1-6.58,10.43A22.52,22.52,0,0,1,103,126.25a23.12,23.12,0,0,1-16-24.61,22.78,22.78,0,0,1,6-13.09,21.9,21.9,0,0,1,19-7.32,20,20,0,0,1,11.81,5.2c.36.33.55.32.9,0q4.91-4.93,9.84-9.86l.37-.39a1.79,1.79,0,0,0-.18-.19A36,36,0,0,0,127,70.51a37.08,37.08,0,0,0-19.58-4.18,36.62,36.62,0,0,0-14.76,3.89A37.45,37.45,0,0,0,74.19,90.47a36.67,36.67,0,0,0-2.46,16.72,38.58,38.58,0,0,0,1.33,7.39,38,38,0,0,0,35,27.5,40.36,40.36,0,0,0,10-.82A33.4,33.4,0,0,0,143,120.73a41.2,41.2,0,0,0,2.89-16.82C145.82,101.84,145.49,99.79,145.3,97.73Z"/>
  </g>
</svg>
