<svg xmlns="http://www.w3.org/2000/svg" viewBox="0 0 732.56 886.04">
  <defs>
    <style>
      .cls-1 {
        fill: #2b9845;
      }

      .cls-2, .cls-4 {
        fill: #e04817;
      }

      .cls-2, .cls-3, .cls-5 {
        isolation: isolate;
      }

      .cls-3 {
        fill: #fef9e9;
      }

      .cls-5 {
        fill: #fff;
      }

      .cls-6 {
        fill: #1d1c1a;
        stroke: #1d1c1a;
        stroke-miterlimit: 10;
        stroke-width: 1px;
      }

      .cls-7 {
        fill: #e9cfbf;
      }
    </style>
  </defs>
  <title>luigilogo2</title>
  <g id="Layer_21" data-name="Layer 21">
    <g>
      <path class="cls-1" d="M221.53,149.16a218,218,0,0,1,22.63-15.43c14.94-8.87,18.33-8.47,27.77-15.43,5.8-4.28,17-12.77,23.66-27.77,2.56-5.81,5.94-13.76,4.11-23.66-.66-3.57-2.52-13.63-11.31-18.51-7.87-4.36-16.18-1.76-18.52-1a28.56,28.56,0,0,0-15.42,12.34c-2.68,4.25-3.32,7.63-5.15,21.6-3.08,23.59-2.58,24-4.11,29.83a72,72,0,0,1-10.29,23.66A67.09,67.09,0,0,1,221.53,149.16Z"/>
      <path class="cls-1" d="M89.88,228.35c-.12-7.8,0-18.79,1-31.88,2-25.23,3.58-44.83,13.37-66.86,12.74-28.66,30.93-42.33,35-45.25,10.87-7.84,20-10.42,26.74-11.32,4.82-.63,10.35-1.29,16.46,1C195.35,79,200.13,93.21,201,95.67c6.94,20.63-6.05,40.76-10.28,47.32-7.33,11.34-15.53,17.43-30.86,28.79-17.93,13.3-23.68,13.82-38.06,24.69A167.72,167.72,0,0,0,89.88,228.35Z"/>
      <path class="cls-2" d="M405.64,103.9c-4.3,4.35-13.36,13.74-17.48,28.8-1,3.73-6.55,23.91,4.11,42.17,10.35,17.72,29.59,22.72,41.14,25.71,28.4,7.37,51.79-.13,80.23-9.25,39.43-12.65,57.92-28.86,66.85-38.06,13.81-14.22,15.41-22.62,15.43-27.77.07-17.27-17.5-29.83-24.68-35C522.44,55.63,440.18,69,405.64,103.9Z"/>
      <path class="cls-2" d="M63.37,505.35c2.52,11.06,5.67,24.57,13.12,41.25,2.05,4.6,12,26.28,33.75,51.57,8.28,9.6,43.2,49.32,97.5,74.06,106.44,48.48,213.8,5.9,221.25,2.81,99-41,180.46-144,176.24-258.75-3.09-84-50.88-141.17-62.81-154.68-62-70.27-143-81.63-172.49-85.31-23.09-2.88-112.88-12.68-195.94,45-58.12,40.35-83.93,93.59-92.81,112.49C61.4,375.9,57.52,411.07,56.81,418.17,52.8,457.81,59.58,488.74,63.37,505.35Z"/>
      <path class="cls-3" d="M234.08,380.18q.71,57.18,1.4,114.36c-5.43,4.52-14.07,11.51-25.11,19.53-24.15,17.54-44.65,29-75.31,46-8.71,4.83-21.11,11.61-36.26,19.52a229.35,229.35,0,0,0,29.29,36.26c71.23,71.73,171,75.83,209.2,75.32q-2.1-11.87-4.19-23.71a286.15,286.15,0,0,0,43.24-11.16c64.8-22.28,108-63.43,132.49-92.05l-150.62-51.6q-.7-13.95-1.4-27.89a39.82,39.82,0,0,0,8.37-8.37c3.86-5.24,5.4-10.09,7-15.34,4-13.28,6-19.91,7-25.11,4.62-24.25,5.2-47.79,5.58-65.54a307.54,307.54,0,0,0-1.4-40.45c-.49-4.64-1-8.48-1.39-11.16q-.71-22.31-1.4-44.63l-69.73-13.94a19.57,19.57,0,0,1-5.58,8.37c-9,7.68-25.81,6.11-41.84-4.19q-3,16.2-5.58,33.47c-3.35,22.93-5.58,44.84-7,65.55L234.08,321.6a26.56,26.56,0,0,0-29.28,12.56c-4.08,6.68-4.13,13-4.19,22.31-.05,8-.08,12.75,2.79,18.13,1.37,2.56,4.95,9.27,12.55,11.16C225.59,388.16,233.46,380.78,234.08,380.18Z"/>
      <path class="cls-4" d="M174.73,538.59H197.6l4.29,4.29,18.58,18.58H139q8.22-5.69,17.15-11.43Q165.62,544,174.73,538.59Z"/>
      <path class="cls-4" d="M103.25,590.05c5.66,1.25,13.49,2.83,22.87,4.29a382.75,382.75,0,0,0,47.18,4.29c13.26.43,34.47.56,95.78-4.29,57.54-4.55,70.69-7.18,77.2-8.57,20-4.28,36-9.41,55.75-15.73,24.69-7.9,45.13-15.55,60-21.44L499.24,560c-4.61,2.83-11.49,6.91-20,11.44-46.1,24.49-86.92,33.71-115.79,40-4.91,1.07-28.35,6.14-60,10-37.5,4.58-85.78,10.13-144.39,0-14.25-2.46-25.71-5.26-32.88-7.14Z"/>
      <path class="cls-4" d="M417.75,547.17a53.75,53.75,0,0,0,25.73-4.29l-15.72-5.72Z"/>
      <path class="cls-4" d="M161.86,643a277,277,0,0,0,34.31,5.72c22.21,2.27,42.27,1.07,81.49-1.43,6.26-.4,2-.17,40-2.86,33.32-2.36,34.74-2.41,40-2.86,15.05-1.28,36.49-3.67,62.9-8.58a135.49,135.49,0,0,1-34.31,25.73A140.28,140.28,0,0,1,342,673a145,145,0,0,1-15.73,1.43c-31.93,1.28-81.94.38-100.07,0Z"/>
      <path class="cls-1" d="M456,449.49c13.34-4.41,18.2-4.64,26.74-7.2,6.89-2.06,28-8.63,45.26-26.74,5.5-5.76,18.93-19.83,21.6-41.14a62.69,62.69,0,0,0-2.06-24.69c-2.12-7.29-4.28-14.74-11.31-19.54-6-4.08-12.35-4.1-15.43-4.12-12.1,0-20.63,6.77-23.66,9.26-7.87,6.48-11.17,14-14.4,21.6-5.54,13-4.06,18.31-8.23,32.91-3.64,12.79-8.46,21.66-12.34,28.8a164,164,0,0,1-31.88,41.14A226.86,226.86,0,0,1,456,449.49Z"/>
      <path class="cls-5" d="M361.41,670.62Q384,723.09,406.67,775.54a461.43,461.43,0,0,0,78.17-32.92c12.37-6.61,52.94-29,97.71-69.94,23.65-21.61,56.89-52.5,85.37-102.85a367.84,367.84,0,0,0,23.65-50.4l-108-48.34a484.81,484.81,0,0,1-73,103.88c-19.09,20.68-40.72,43.77-76.11,64.8A292.71,292.71,0,0,1,361.41,670.62Z"/>
      <path class="cls-1" d="M136.53,441.2a152,152,0,0,0-2.7-33.69c-2.38-12.34-6.53-22.6-14.82-43.12-10.11-25-14-30-17.52-33.69S90,319,77.24,315.88c-5.15-1.24-14.68-3.54-24.26,1.35-13,6.61-15.86,21.22-16.17,22.9C33.43,358.71,48,374,53,379.21c6.12,6.42,13.51,10.57,28.3,18.87,16.37,9.19,19.63,9,28.3,14.82C117.13,418,127.18,426.43,136.53,441.2Z"/>
      <path class="cls-1" d="M55.68,495.88c-1,1.23-8.71,10-20.22,9.43-12.08-.56-20.44-11-22.9-20.21-3.82-14.34,6.45-26.38,8.08-28.3,15.52-18.2,44.38-14.65,53.9-13.47a90.12,90.12,0,0,1,39.08,14.82,36.2,36.2,0,0,0-16.17,1.35c-6.84,2.23-11.16,6.07-14.82,9.43C75.83,475.16,66.53,484.11,55.68,495.88Z"/>
      <g>
        <path d="M355.94,798.47c-7.61-29.1-11.59-58.69-17.32-88.22-2.62,0-5.11,0-7.6,0-8.87-.18-17.75-.19-26.6-.64-7.34-.38-14.65-1.18-21.95-2a260.7,260.7,0,0,1-55.75-13,258.07,258.07,0,0,1-75.15-40.26c-5.8-4.5-11-9.73-16.78-14.31-9.29-7.42-16.69-16.67-24.54-25.44-5-5.57-8.89-12.11-13.26-18.23-.7-1-1.23-2.07-2-3-8.83-10.74-13-23.93-18.8-36.22A54.62,54.62,0,0,1,74,550.45l2.89-3.37c7.38,10.29,13.53,20.78,21.76,30.09,2.56-1.76,5-3.31,7.25-5,12.57-9.27,26.12-17,39.7-24.55,16.74-9.36,33.36-18.89,49.56-29.16,7.81-5,15.62-9.9,23.34-15,3.7-2.44,7.2-5.19,11-7.94.11-1.57.23-3.08.3-4.59.24-5.62.62-11.25.65-16.87,0-3.92-.61-7.83-.66-11.74-.12-7.71,0-15.41,0-22.67-4.19-2.46-8.08-4.53-11.71-7a16.66,16.66,0,0,1-4.07-4.52,3.78,3.78,0,0,1,.28-4.78A4.1,4.1,0,0,1,218.9,422c3.25,1,6.41,2.56,10.55,1.2.72-4.12.1-8.54.34-12.91s.63-8.52.85-12.78.31-8.78.46-13.22c-1.59,1-3.31,2-4.95,3.1-7,4.69-13.13,2.41-18.46-1.82-7.5-6-11.31-14.08-11.87-23.6a63,63,0,0,1,1.12-18.38c1.86-7.82,5.34-14.83,11.45-20.25,2.73-2.42,5.92-3.94,10.05-3.1,0-1.16,0-2,0-2.8a134.26,134.26,0,0,1,1.92-25c.77-4.52.72-9.18,1.16-13.77.38-3.89.94-7.77,1.45-11.86,4.46-2.68,9.4-1.67,14-1.45a63,63,0,0,1,27.35,8.2c-.71,5.06-1.54,9.92-2,14.8-1.08,10.72-2,21.45-3,32.18-.55,6.13-1.11,12.26-1.63,18.39-.43,5.11-.54,10.27-1.29,15.33-.76,5.22-2.13,10.34-3.12,14.92-2.32,2.06-4.31,2.28-6.19.94-2.21-1.57-4.66-3.09-6.22-5.21a38.37,38.37,0,0,1-5.05-9.45c-3.07-8.35-5.76-16.85-8.63-25.28-.43-1.27-1-2.5-1.67-4.21a50.2,50.2,0,0,1-5.63,0c-4.61-.53-8.1,1.43-10.56,5a41.15,41.15,0,0,0-5.41,9.84c-3.61,10.85-4.44,21.76,1,32.43A27,27,0,0,0,212,382c4.62,3.82,10.12,4.38,15.26,1.33,2.47-1.46,4.7-3.36,7.22-5.19,2,14,1,28,1.46,42.14,2.47-.19,3.69-1.71,4.9-3q8.44-9,16.74-18.11c4.7-5.21,9.07-10.71,14.58-15.16a52.24,52.24,0,0,1,17.07-9.23c3.1-1,6.31-1.62,9.61-.59a11.06,11.06,0,0,0,2.6.16c-.29-3.29-.54-6.26-.8-9.23l.74-.21a40.81,40.81,0,0,0,2.07,3.79,42.28,42.28,0,0,0,4.57,6.15c3.06,3.06,5.79,3,9,.23,1.41-1.19,2.87-2.32,4.07-3.28,3.12.45,4.57,2.32,6.09,4.22a34.18,34.18,0,0,0,4.84,5.27c3.2,2.59,5.58,2.65,9.73.64-.35-4-.3-8.34-1.15-12.44-3.06-14.74-2.79-29.62-2.48-44.51a18.91,18.91,0,0,1,2.36-9,8.38,8.38,0,0,1,1.23,2.22,55,55,0,0,1,1.07,8.13,292.39,292.39,0,0,0,3.91,40.82c.31,2,.45,4,.69,6.15,2.6-.34,4.8-.5,6.94-.94,5.7-1.18,10.9.21,15.68,3.16,3.63,2.24,7,4.91,10.5,7.38,1,.68,1.94,1.33,3.38,2.32.41-1.4,1-2.44,1-3.48-.14-7.7-.39-15.39-.61-23.09-.05-1.54-.22-3.08-.22-4.62a250.16,250.16,0,0,0-3.67-41.32c-1.59-9.59-1.69-19.42-2.45-29.14-.13-1.68-.19-3.37-.28-5.15-8.31-2.16-16.36-4.37-24.46-6.34-11.47-2.78-23-5.33-34.46-8.11a12.15,12.15,0,0,0-8.16.76c-.66,1.47-1.32,3-2.05,4.56a9.08,9.08,0,0,1-8.49,5.57c-7.63.32-14.94-1.17-22.31-2.95-10.62-2.57-21-6.06-31.45-9.08a33.11,33.11,0,0,0-11.66-1.43c-6.62.49-13.29.44-19.72,2.61-3.52,1.18-4.82.77-7.64-1.48,1.89-3.74,5.08-6.28,8.45-8.53,7.92-5.29,16.74-8.65,25.87-11.06A174.06,174.06,0,0,1,264.6,238a90.67,90.67,0,0,1,27.2.58c-1.46-1.1-2-1.76-2.57-1.88a99.48,99.48,0,0,0-11.55-2.06c-4.26-.36-8.56,0-12.85-.12-11.31-.25-22,2.73-32.52,6.39a65.42,65.42,0,0,1-8.34,2.51,29,29,0,0,1-5.73.07c-1.33-2-.56-3.24.38-4.55a48.9,48.9,0,0,1,11.2-11.18c9.93-7.16,20.18-13.62,32.36-16.21,9.18-2,18.33-4.31,27.62-5.47a103.75,103.75,0,0,1,24.07.32,106,106,0,0,1,26.37,6.24c16.73,6.39,30.61,16.62,40.68,31.64A50.74,50.74,0,0,1,389,264.66c.9,5.59-.05,10.67-5.88,13.81a42.84,42.84,0,0,0,0,5.07A237.58,237.58,0,0,1,385,315.75c0,2.44.1,4.68,1.83,6.72a7.09,7.09,0,0,1,1.31,3.81c.5,5.44,1,10.89,1.16,16.35.43,11.8.71,23.6,1,35.41.09,3.57,0,7.15,0,11.32,4.4,3.19,9.06,7.07,15.91,6.77,4.21-.19,5.62,2.91,3.57,6.6a21.13,21.13,0,0,1-9.87,8.67c-3.66,1.71-7.7,2.63-12.43,4.19-1.2,1.8-1.91,4.78-2.34,7.8-.77,5.41-1.21,10.87-2.1,16.25-1.26,7.59-2.81,15.1-6.48,22-1.58,3-2.43,6.39-3.7,9.56-3,7.35-5.92,14.69-13.07,18.79.67,7.86,1.31,15.46,2,23.53,3.12,1.54,7,1.9,10.77,2.88,2.64.69,5.25,1.45,7.88,2.18,3.12.87,6.27,1.66,9.36,2.63,10.29,3.22,20.59,6.43,30.84,9.8q42.69,14,85.36,28.21c1,.32,2,.57,3.18.91,18.47-17.17,32.15-37.93,44.38-59.79S574.49,455.2,578.08,430c5.83.54,10.37,2.87,15.6,4.95,1.06-30.94-4.07-60.53-14.39-89.26-12.37-34.41-32.36-63.89-58.54-89.94a52.91,52.91,0,0,0-5.25,3.34c-10.07,8.22-20.05,16.54-30.11,24.77-5.29,4.34-10.67,8.56-16,12.8a23.33,23.33,0,0,1-3,2,4.79,4.79,0,0,1-5.34-.08c-1.95-1.34-3.22-3.14-2.78-5.65.4-2.35.88-4.7,1.47-7,2-7.95,4.12-15.89,6.16-23.84a26.07,26.07,0,0,0,.35-2.84c-12.75-3.25-25.2-6.73-36.45-13.53a117.72,117.72,0,0,1-30-25.4c-8.44-10.11-14.74-21.37-19.89-33.44-4.3-2.24-9-2-13.54-2.59-14-1.79-28-1.23-42.07-1.13-9.93.08-19.74,1.4-29.56,2.75a260.41,260.41,0,0,0-50.22,12.42,289.46,289.46,0,0,0-56.42,27,279.8,279.8,0,0,0-37.92,28c-7.59,6.65-14.29,14.31-21.6,21.29-10.51,10-18.25,22.16-26.55,33.87-2,2.77-3.44,5.87-5.34,9.16a71.26,71.26,0,0,1,11.77,12.55c4.3,5.89,7.7,13.7,14.5,29.3,1.84,4.24,3.17,7.29,4.6,10.86,2.23,5.56,4.29,11.19,6.6,16.72,3.18,7.64,4.25,15.82,6.31,23.74,2.75,10.58,3.15,21.24,3,32.06-.07,7.34.67,14.68.93,22,0,1.61.61,3.42-.93,4.94-1.71-.31-1.9-1.63-2.17-3-1-5.2-2.14-10.38-3.11-15.58-1.29-6.91-4.93-12-10.58-16.29a238.9,238.9,0,0,0-30.22-19.28c-9.47-5.15-19-10.16-28.49-15.32a37.36,37.36,0,0,1-4.11-2.64c-5-3.43-25.86-17.6-31.22-41.91-1-4.39-2.14-10.2-.5-17.45a37.77,37.77,0,0,1,26.76-27.67,36.54,36.54,0,0,1,18.37.17c1-5.33,3.93-9.33,6.57-13.49,9.57-15,20-29.5,32.37-42.3,8-8.19,15.78-16.52,24.55-24a300.94,300.94,0,0,1,134.59-66.29A271.33,271.33,0,0,1,345,158.6c9.06.38,18.1,1.13,27.15,1.69.3,0,.62-.23,1.46-.57a33,33,0,0,0,0-4.21c-1.8-14.34.44-28.23,4.13-42.06,5.35-20,15.85-34.37,21.48-41.59,2.49-3.2,32.67-40.81,79-47.91a119.45,119.45,0,0,1,34.57,0,111,111,0,0,1,22.86,6.4,116.26,116.26,0,0,1,30.3,18,120.73,120.73,0,0,1,24.74,27.76c9.5,14.49,15,30.58,17.42,47.71A106.23,106.23,0,0,1,598,187.05a128.85,128.85,0,0,1-21.88,32.07,153.21,153.21,0,0,1-25.95,22.37c-4,2.7-4.24,5.86-1,9.38a266,266,0,0,1,35.19,49,259.09,259.09,0,0,1,23.92,58.16,291.32,291.32,0,0,1,8,42.75c1.49,12.29,1,24.61.92,36.92a38,38,0,0,1-.74,6.63c-.68,3.67.71,6.33,3.71,8.31.57.37,1.15.73,1.75,1.05,16.18,8.54,32.34,17.15,48.58,25.59,5.84,3,15.32,6.79,27.48,13.72,3.58,2,5.38,3.08,6,3.77,3.15,3.79,6.57,13.95-27,69.5-22.47,37.13-40,59-44.44,64.53-2.16,2.68-11.34,14.44-24.87,28.67-9.31,9.79-18.71,19.53-28.5,28.84-7.42,7.06-15.33,13.61-23.32,20-10.52,8.44-21.13,16.8-32.07,24.69a457.79,457.79,0,0,1-73.81,43.28c-24.81,11.62-50.24,18.58-65.51,23.15-4,1.19-7.28,2.15-9.58,2.8a79.08,79.08,0,0,1-10.11-1.44A78,78,0,0,1,355.94,798.47ZM194.27,531.34c-1.94,1.16-3.43,2-4.83,2.91-6.4,4.28-12.57,9-19.2,12.82-15.66,9.16-31.5,18-47.37,26.81a100.75,100.75,0,0,1-12.19,5.28,15.83,15.83,0,0,0-7.2,4.82,32,32,0,0,0,2.39,3.51c2.72,3,5.47,6.07,8.33,9,7.94,8,15.53,16.53,24,23.94,12.38,10.78,25.35,20.83,40.12,28.43C188.54,654.07,198.4,660,209,664.41c12.94,5.43,25.88,10.87,39.41,14.73a248.82,248.82,0,0,0,51,8.83c10.58.73,21.24.29,31.87.31a16.59,16.59,0,0,0,3.31-.66c.56-7.21-3.06-13.55-3-20.52,1.64-.47,2.92-.89,4.23-1.19a271.75,271.75,0,0,0,54.18-19q19.81-9.18,39.14-19.41a150.47,150.47,0,0,0,18.45-12.09c7.16-5.26,14-11,21-16.54a378,378,0,0,0,33.18-29.94,21.14,21.14,0,0,0,1.9-2.79c-2-.67-3.62-1.23-5.23-1.7-6.23-1.83-12.54-3.44-18.71-5.47-11.05-3.64-22-7.62-33-11.28-5.36-1.78-10.84-3.17-16.27-4.72-1.1-.31-2.24-.52-2.61-.6-7.52,7-14.26,13.83-21.66,19.9a185.92,185.92,0,0,1-21.74,15.44c-9.85,5.95-20.68,9.84-31.75,13-8.41,2.43-17,4.36-25.67,4.63-14.49.46-28.95.93-43.39-2.59-13.24-3.23-26.06-7.18-38.21-13.24a146.45,146.45,0,0,1-24.07-15.69c-9.71-7.51-18.15-16.07-23.85-27.09C196.63,535.12,195.59,533.56,194.27,531.34Zm225.39,7.44-57.6-20.22-3.38,2.7c-2.82-.75-2.51-2.83-2.52-4.65,0-6.51,0-13,0-19.53,0-1.64.59-3.45-1.24-5-1.11.41-2.39.8-3.61,1.35-4.3,1.95-8.39.92-12.38-.89a34.82,34.82,0,0,1-4.21-2.69c-.55.47-1,.77-1.32,1.12s-.65.8-1,1.15c-5.26,4.95-11.23,8.35-18.66,8.69a50.12,50.12,0,0,1-25.82-5.52c-12-6.28-20.86-15.43-24.49-28.91-.64-2.4-1.26-4.81.84-7.61,1.06,2.42,1.79,4.32,2.69,6.14,1.69,3.36,3.09,6.95,5.28,10,8.39,11.53,19.9,18.05,34,20,7.61,1,14.69-.37,20.73-5.44,1.18-1,2.24-2.12,3.35-3.19,3.75-3.62,5.1-3.76,9.1-.42a9.27,9.27,0,0,0,8.59,2.09c7.09-1.83,13-5.24,15.67-12.66A130.59,130.59,0,0,1,370,459.5c4.43-8.53,6.11-17.74,7.82-27,.9-4.88,1.7-9.77,2.53-14.66.15-.93.22-1.87.37-3.18-3.11-.13-5.83-.12-8.52-.38-4.75-.45-9.73-.41-13.73-3.5-5.79-4.48-12.51-7.06-19.13-9.84a11.12,11.12,0,0,0-6-.92c-5.91,1.14-11.84,2.82-16.29,7-5.15,4.87-11,8.68-16.65,12.84a70.8,70.8,0,0,1-23.76,11.78c-10.4,2.81-20.67,6.13-31.55,6.65-3.19.15-6.38.53-9.63.81a4.32,4.32,0,0,0-.49,1.41c0,6.86,0,13.71.16,20.56.23,11.13.62,22.25.77,33.38a7.84,7.84,0,0,1-1.42,4.75c-2.77,3.45-5.54,7.09-9,9.77-8.25,6.39-16.9,12.26-25.38,18.36-1.06.77-2.06,1.64-3.2,2.55a126.37,126.37,0,0,0,23.59,26.77c17.48,15.08,37.71,24.63,60.28,29.37a149,149,0,0,0,27,3.06c8.87.22,17.71-1.08,26.51-2.58,29.37-5,55-17.48,76.54-38C413.75,545.71,416.29,542.5,419.66,538.78Zm188.52,42.93,5.9-7.29c2.4,1.73,3.91,3.72,4.29,6.42,1,7.34-7.12,15.13-14.29,13.45a17.18,17.18,0,0,1-5.84-3.07c-6.36-4.63-12.63-9.4-18.88-14.18a14.42,14.42,0,0,1-3.65-3.57,12.25,12.25,0,0,1-2.17-5.57,11.33,11.33,0,0,1,15.34-11.09c2.53,1,5,2.2,7.4,3.29,3.25-4.93,8.83-17.68,9.49-21.71a62.06,62.06,0,0,0-18.55-8.32c-8.91-2.18-17.36-1.22-24.91,4.26a40.94,40.94,0,0,0-12.69,15.27c-4.76,9.68-4.82,19.48.17,29.11a52.28,52.28,0,0,0,5.51,8.64,102.53,102.53,0,0,0,39.79,29.95c8,3.49,16.51,4.62,25.07,2,9.61-2.9,15.83-9.72,20.57-18.24a20.09,20.09,0,0,0,2.15-14.86,9.69,9.69,0,0,1-.11-1.57l7,1.37a49.07,49.07,0,0,0,3.36-4.22c.88-1.37,2.52-2.39,2.37-4.28-6.87-6.35-36.21-28.17-40-29.69l-19,25.18Zm-135.11,40.7a35.51,35.51,0,0,0,1.71,3.48c3.6,5.61,7.26,11.2,10.9,16.79q10.92,16.8,21.83,33.59c2.21,3.41,3.07,7.18.31,10.52-3.12,3.78-7.15,6.47-12.38,6.07a7.09,7.09,0,0,1-3.59-1.8,16.39,16.39,0,0,1-3-3.45c-2.7-4-5.33-8-7.94-12Q468.42,656.48,456,637.32a23.92,23.92,0,0,0-2.4-2.68l-20.5,13.44,5,7.69c9.15,14.06,18.24,28.16,27.48,42.16,4.36,6.62,9.41,12.66,16.32,16.82,11.12,6.7,22.53,7.45,34.18,1.39,13.44-7,21.76-21,18.43-37.65-1.58-7.88-5.17-14.85-9.43-21.48-9.61-15-19.43-29.82-29.19-44.7-.73-1.11-1.64-2.11-2.64-3.39C486.54,613.62,479.44,617.32,473.07,622.41ZM131.33,412.72l1-.34c-1.39-5.59-2.19-11.42-4.28-16.74-8.18-20.8-19.52-44.61-19.52-44.61-10.8-19.94-15.14-23.52-17.71-25.37a40,40,0,0,0-19.53-7.59c-3.34-.32-8-.77-13.37,1.23C45.28,324,41.52,337.57,41.29,338.42a29.46,29.46,0,0,0,.28,16c.32,1,.6,2,1,2.93,4.23,11,10,20.8,20,27.8a261.11,261.11,0,0,0,28.56,17.19,207.86,207.86,0,0,1,28.4,17.46c2.76,2.06,5.68,3.91,8.52,5.86a20.62,20.62,0,0,0-2.5-6.45c-9.83-16.91-21.6-32.46-33.91-47.58-8.41-10.34-17.35-20.25-26-30.38-.52-.6-.67-1.52-1.36-3.17a31.62,31.62,0,0,1,10.33,7.37c9.64,9.48,19.74,18.5,28.32,29C113,386.8,123.08,399.05,131.33,412.72Zm294,318c-5-11.5-9.66-22.49-14.61-33.34S401.5,675.48,396,664.58l-22.26,9.84c2,6.93,37.72,87.72,40.08,90.85,4-.68,48.38-20,52.37-22.82-1.69-6.08-8.87-21.65-11.37-24.47ZM419.5,147.32a25.19,25.19,0,0,1,.56,2.56,40.08,40.08,0,0,0,8.74,21.55c4.32,5.2,10,8.43,16.9,8.46A31.78,31.78,0,0,0,476.35,157c.09-.29-.09-.66-.22-1.55l-3.64-2c-.53.74-.87,1.13-1.12,1.57-.68,1.19-1.38,2.37-2,3.6-4.47,9.36-18.07,12.11-24.9,1.15a62.69,62.69,0,0,1-7-15.33c-.47-1.56-1.61-3.13-.83-4.34C442.47,136.7,448,134,453,130.44c6.19-4.38,10.7-10,10.3-18.36-.34-7.16-6.15-11.35-12.9-10.76a23.31,23.31,0,0,0-13.83,6.18,37.72,37.72,0,0,0-9.16,11.6c-2.67,5.69-5,11.53-7.5,17.31-5.41,1.46-11.14,2.62-16.56,4.61a24.1,24.1,0,0,0-9,5.69c-7.46,7.82-4,16.84,3.23,20.59,4.79,2.5,9.8,2.79,15,2.14.79-.1,1.47-1,2.35-1.67-1.88-1.63-3.41-3-5-4.29-3.89-3.28-2.77-8.79.38-11.24C413,150.17,415.79,148.11,419.5,147.32ZM582.23,503.68c3.9,3.16,85.54,42.51,90.19,43.48,3.41-7.08,6.85-14.25,10.53-21.9l-90.09-43.41ZM505.1,597.59c7.79,8.58,15.24,16.79,22.7,25s14.61,16.29,22.14,24.23,14.53,16.66,22.79,24.51l18.38-16.72-22.85-24.9c-7.39-8.06-14.8-16.11-22.14-24.23s-14.58-16.61-22.77-24.57Zm19.23-453.34c4.82,2.64,9.57,4,14.59,2.13.16-.5.27-.67.25-.82a8.23,8.23,0,0,0-.32-1.49c-2.17-5.87-3.34-11.82-1.67-18.06.7-2.63,1.19-5.32,1.76-8,.72-3.36.09-4.62-3.23-5.86a22,22,0,0,0-14.12-.36c-11.2,3.35-18.17,11.15-21.82,22a23.52,23.52,0,0,0-.48,13.61c1.18,4.54,4.19,7.06,8.89,6.79A19.17,19.17,0,0,0,513.1,153C517.66,151.47,520.64,147.81,524.33,144.25Zm33-.28c12.85.92,27.28-10.28,28.85-23.33.84-6.92-1.84-12.27-8.4-14.38-8.11-2.61-15.52-.51-22.47,3.68a7.25,7.25,0,0,0-3.23,4.28,9.4,9.4,0,0,1-3.39,5.51,19.52,19.52,0,0,0-5.57,9.63c-2,7.11,2.3,13.64,9.6,14.58A35.42,35.42,0,0,0,557.3,144Zm-64.59,16.44a7.72,7.72,0,0,0,.22-2.52c-1.78-6.76-.94-13.62-.6-20.4a57.38,57.38,0,0,0-.26-7.55,5.1,5.1,0,0,0-3.54-4.6c-3.62-1.38-7.25-1.7-10.78,1,0,.84-.05,1.68,0,2.51.31,3.9.81,7.78.93,11.68.15,4.95,0,9.91,0,14.87,0,2.44.25,4.79,2.27,6.72A15.09,15.09,0,0,0,492.71,160.41Zm-.58-52.28a21.55,21.55,0,0,0-.15-2.55c-.88-5.16-5.67-7.19-10-4.27a9.82,9.82,0,0,0-3.45,11.79,6.33,6.33,0,0,0,10.32,2.73A8.93,8.93,0,0,0,492.13,108.13ZM249.21,227.6c16-1,31.94-.8,48.28,2.74-3.87-3.2-4.58-3.59-21.78-5.8C266.7,223.38,257.79,224.78,249.21,227.6Z"/>
        <path d="M412.86,465.36c1.23-.76,2.42-1.59,3.69-2.27,4.22-2.28,8.52-4.41,12.67-6.81a17.08,17.08,0,0,0,3.63-3.45c16.37-17.76,23.44-29.74,23.44-29.74,13.34-22.59,16.84-47.18,17.42-50.71,1.49-9.08,3.15-18.22,7.4-26.6,6.79-13.36,17.92-20.86,32.3-23.72,5.85-1.17,11.76-1.74,17.81-.26a22.45,22.45,0,0,1,14.38,10.77A68.21,68.21,0,0,1,555,362.66c1,12.67-1.7,24.5-7.24,35.66a80,80,0,0,1-9.88,14.93,86.72,86.72,0,0,1-27,21.76c-16.06,8.45-33.15,13.77-50.85,17.33a29.31,29.31,0,0,1-4.1.31,27.91,27.91,0,0,0-11.3,3c-6.56,3.32-13.22,6.48-19.93,9.52-3.58,1.62-7.36,2.63-11.31,1.4Zm55.3-22.59.37.59c5.76-2.12,11.53-4.19,17.27-6.37,10.42-4,20.73-8.21,29.61-15.14a70,70,0,0,0,21.24-24,61,61,0,0,0,8.74-32.28,85.79,85.79,0,0,0-.9-9.16c-.82-7.2-2.46-14.48-6.19-18.89-8-9.43-29.76-8.56-41.6,1.9-5.38,4.75-7.48,10.4-10.84,19.45a103.85,103.85,0,0,0-6.2,28c-1.11,12.67-8.18,32.14-35.38,61.29a5.72,5.72,0,0,0,1.32-.4c9.87-6.78,19.86-13.4,29.55-20.43a67.35,67.35,0,0,0,15.5-14.88c3.7-5.13,7.4-10.26,11.19-15.32,1.07-1.43,1.61-3.44,4.19-4.25a42.15,42.15,0,0,1-1.35,7.71c-4.22,13.14-12.45,23.5-22.84,32.21C477.54,436.48,472.74,439.49,468.16,442.77Z"/>
        <path d="M121.87,455.77l-.56,3.8c3.34,4.68,9.42,6.56,12.51,11.62.1.17-.22.6-.34.91-7.94-2.91-16.34-5.59-25.22-7.91-1.38-.36-2.75-.71-4.12-1a38.61,38.61,0,0,0-13.6,8.73c-10.34,10.5-10.85,12.37-22.48,22.58a93.51,93.51,0,0,1-9.94,7.32c-10.86,7-16.17,10.69-23.37,10.6-8.18-.1-14.25-4.73-17-6.85A36.53,36.53,0,0,1,7,491.93a27.52,27.52,0,0,1-.8-24.18A45.3,45.3,0,0,1,23.85,447a85.3,85.3,0,0,1,29.26-11.7c6.51-1.39,12.72-1.09,19.2-.16a130.29,130.29,0,0,1,23.9,5.31c8,2.73,15.66,6,21.47,12.52C118.66,454,120.17,454.64,121.87,455.77Zm-17-1.2c-1.47-.68-2.91-1.51-4.44-2a104.32,104.32,0,0,0-16.74-4.67c-8.61-1.44-17.21-2.87-26-2.46a57.33,57.33,0,0,0-29.93,9.47c-6,4-10.74,8.81-13.45,15.05a23.46,23.46,0,0,0-2.1,7.44c-.93,9.55,4.83,16.56,6,18a20.13,20.13,0,0,0,8.87,6.74,18.08,18.08,0,0,0,7.06,1c3.93-.18,7.26-1.78,10.51-3.67,10.63-6.19,18.69-15.3,27.15-24,3.22-3.3,6.61-6.43,9.94-9.62.82-.79,1.67-1.54,3.37-3.09-16.28.43-30.31,5.4-44.46,10.36,3.92-4.26,9.09-6.36,14.26-8.36a160.37,160.37,0,0,1,16-5.59c5.59-1.5,11.39-2.17,17.07-3.36C93.5,454.65,99.09,455.83,104.86,454.57Z"/>
        <path d="M224.87,369c-4-3.55-3.06-7.83-5-11.26l-7.61-3c2.54-1.5,2.54-1.5,6.51-1.11,1.56-5.55.38-9-4.36-12.34a21.71,21.71,0,0,0-1.79,1.59,24.54,24.54,0,0,0-1.61,2.15c-.52-3,.18-5.26,2-6.61s3.87-.79,5.77.18a10.88,10.88,0,0,1,5.66,6.31A29.91,29.91,0,0,1,226,360.5C225.52,363,225.32,365.46,224.87,369Z"/>
        <path d="M372.1,314.34a3.25,3.25,0,0,1-3.25-2.6,38.93,38.93,0,0,0-1.41-3.83c-1.24-2.6-3.1-4.58-6.17-4.7s-5.13,1.59-6.57,4.13c-.75,1.33-1.35,2.75-2.07,4.1-.37.7-.87,1.33-1.43,2.17-2.07-4.95.12-10.48,5.06-13.49,4.53-2.77,9.26-1.8,13.26,2.58a14.67,14.67,0,0,1,3.72,8.77C373.33,312.43,372.47,313.47,372.1,314.34Z"/>
        <path d="M355.1,325.51c3.79-.25,4.45-.06,4.88,2.42.57,3.31.72,6.7,1.15,10.94l1.92,1.34c-3.66,0-6.85,1.61-10,1.06.13-1.78.53-3.22.29-4.55A18.24,18.24,0,0,1,355.1,325.51Z"/>
        <path d="M294.16,344.41l2.77,1.74-9.11,1.52c.72-1.08,1.14-1.71,1-1.56-.1-4.69-.31-8.59-.24-12.47,0-2.45,1.09-3.46,2.92-3.41s2.62,1.21,2.93,2.94C295.11,336.88,296.22,340.56,294.16,344.41Z"/>
        <path d="M283.84,323.14c6.78-6.47,15.12-5.61,24-5-.89,2.23-2.48,2.33-3.86,2.51C297.27,321.54,290.55,322.32,283.84,323.14Z"/>
        <path d="M341.83,467.2c-.1,1.84-.07,3.05-.26,4.22-.41,2.55-1.76,4.13-4.24,4.42a31.49,31.49,0,0,1-7.13.07,4.72,4.72,0,0,1-4.4-5.75c.91-5.88,1.92-11.76,3.07-17.61a15.86,15.86,0,0,1,2-4.66,4.17,4.17,0,0,1,7.8.84c.6,2.48,1.12,5,1.54,7.49C340.82,460.07,341.34,464,341.83,467.2Z"/>
        <path d="M324.6,406.31c.52,1.26.95,2.1,1.22,3,.33,1.14.42,2.37.81,3.49.84,2.38,2.29,4.4,5,4.63,2.84.24,4.25-1.87,5.28-4.12.56-1.23.75-2.62,1.24-3.9a14.52,14.52,0,0,1,1.35-2.14,10,10,0,0,1-3,11.07,7.69,7.69,0,0,1-8.64.17C324.34,416,323,411.2,324.6,406.31Z"/>
        <path d="M446.27,110.08c4.23,2.54,5.14,4.51,4.05,8.36-1.69,6-7.43,11.38-14.05,13.1-1.69-3.76,0-7.31,1.1-10.66C439.53,114.2,440.75,113,446.27,110.08Z"/>
        <path d="M523.91,118.26c1.77,4.59,1.13,8.36-3,17.79-1.22,2.78-2.34,5.74-6.16,6.51-4-4.56-1.24-9.2,0-13.51C516.15,124.29,518.67,120.05,523.91,118.26Z"/>
        <path d="M571.28,112.75c.26,1.45,1,3,.72,4.33a38.84,38.84,0,0,1-6.47,16.46,6.87,6.87,0,0,1-6.95,3.1c-2.94-3.86-2.08-8-.79-12.62l4.73,1.21c1.71-1.73.34-3.14.07-4.51a7.47,7.47,0,0,1,1.93-6.55C566.11,112.29,568.06,111.66,571.28,112.75Z"/>
      </g>
      <g>
        <path d="M80.64,268.61c-.08-.48-.2-1.31-.31-2.35-1.18-11,2.41-17.43,5.14-33.14a43.5,43.5,0,0,0,1-6.78c.09-7.64-.29-15.29.05-22.91,0-1.15.15-2.2.33-4.31.53-6.35,1.72-18.27,4.64-34.32,1.39-7.68,2.88-14.07,3.51-16.62,5.52-22.5,24.64-64.13,59.13-78.85,12-5.11,19.72-4.38,23.88-3.53,10.41,2.13,16.93,8.79,19.79,11.78,1.78,1.87,12,12.9,12.06,28.72a42.2,42.2,0,0,1-3,16.07,83.65,83.65,0,0,1-6,13C191.13,151.63,171,170.71,151.15,184c-1,.65-6.79,4.55-14.58,9.53-11.23,7.19-16.85,10.79-17.26,11.08C114.44,208,100.2,218.05,92,235.23c-3.39,7.1-5.7,15.36-7.33,21.17-1.39,5-2.35,9.18-3,12.21Zm25.87-65.53c10.46-7.56,18.82-13.67,24.58-17.91,13.33-9.8,14.18-10.34,18.63-13.52,4.28-3.07,8.72-5.9,12.95-9.05,0,0,4.35-3.23,9.35-7.8,5.86-5.35,18.3-16.71,24.09-34.71,4.16-13,2-20.77,1.67-22.47-.53-2.91-2.25-5.67-3.73-8.33-2.47-4.42-6.61-7.31-10.64-10a26.54,26.54,0,0,0-13.49-3.2C160,76.26,153,82,143,90.14a111.11,111.11,0,0,0-12.88,12.69,100.62,100.62,0,0,0-9.62,13.43,122,122,0,0,0-7.85,14.93,193.48,193.48,0,0,0-7,18.58,241.62,241.62,0,0,0-7.76,31.87c-1.15,6.29-1.16,7-1.4,8.47-.1.64-.21,1.16-.27,1.49,0,.17-.07.29-.07.31-.12.55-1.33,7.53-4.16,24.1,1.4-3.14,3.32-7.34,5.7-12.26.35-.72,1.51-3.27,2.92-5.94,3.18-6,6.13-12.2,9.68-18,4.11-6.71,8.66-13.16,13.22-19.57s9.19-12.6,14-18.72c1.24-1.58,2.44-3.67,5.44-4.16-.73,1.46-1.18,2.5-1.76,3.46-2.62,4.37-5.3,8.7-7.9,13.08q-6.75,11.39-13.41,22.83c-2,3.41-4.08,6.77-5.87,10.28-2.26,4.46-4.27,9.05-6.38,13.59C107.22,201.42,106.87,202.25,106.51,203.08Z"/>
        <path d="M213.54,155.16c.36-.42.9-1.06,1.57-1.83,9.49-11,12-12.32,15.89-17.37s5.53-9.42,8.23-15.33a97.24,97.24,0,0,0,5-14.92c2.82-10.38,1.08-12.56,2.73-26.07,1.75-14.33,2.76-21.81,8.66-28.33a28.87,28.87,0,0,1,12.25-8,26.49,26.49,0,0,1,11.05-1.05,27.59,27.59,0,0,1,17.68,9.23c6.12,7.21,6.19,15.84,6.17,20.57-.16,28.43-28.91,48.68-31.79,50.65-6.87,4.71-15.26,9.36-15.26,9.36-6.39,3.61-13,6.87-19.37,10.49-2.66,1.5-5.12,3.46-10,6.49-2.24,1.39-5.23,3.2-9.14,5.25-1.27.66-2.35,1.2-3.12,1.58Zm41.88-31a69.33,69.33,0,0,0,16.55-10c14.91-12.13,31-35.76,23.62-52.46-.23-.51-5.36-11.67-16-13.86a19.55,19.55,0,0,0-9.45.5c-6.74,2-12,7.5-14.38,14.69A76.19,76.19,0,0,0,252.9,77.8c-1,8.3-1.11,16.62-2.79,24.94a97.89,97.89,0,0,1-3.2,11.22,107.65,107.65,0,0,1-6.5,15c3-3.84,6.16-7.52,8.79-11.57,3-4.58,4.79-7.88,8.32-14.49C268.45,82.42,269.41,81,270,81.14c1.38.47,0,10.91-3.68,20.23-.72,1.83-3,6.52-7.52,15.88Q257.11,120.7,255.42,124.15Z"/>
      </g>
      <g>
        <path class="cls-1" d="M578.73,771.44a38.11,38.11,0,0,1,8.6-2.16c7.78-1.24,11-1.66,11-1.66a8.94,8.94,0,0,0,5.37-2.06c1-.87,2.42-2.67,2-3.86s-2.27-.62-5.58-2.07c-1.78-.78-3.06-1.33-3.54-2.59-.78-2,.94-5.1,2.7-6.8,2-2,4.33-2.36,12.55-2.44,9.12-.09,10.76.37,15.41-.45a21.3,21.3,0,0,0,9.53-3.87c.28-.21,5-3.76,4.32-5.58-.53-1.53-4.15,0-8.47-2.39-1.14-.64-3.45-1.93-4.12-4.3-.25-.9-.78-3.75,3.47-9.08,5.84-7.35,11.29-7.55,24.89-16.22,0,0,4.19-2.67,9.63-9.43.71-.89,2.82-3.56,2.23-4.5-.76-1.23-5.12,1.92-7.92-.35a3.82,3.82,0,0,1-1.27-1.87c-1-3.31,3.32-7.4,4.43-8.46,3.42-3.29,5.45-3.19,9.56-5.76a36.69,36.69,0,0,0,8.94-8.25,49.49,49.49,0,0,0,9.17-17.13,69.74,69.74,0,0,0-.47,15c.18,2.35.47,4.62,2.19,12.94,2.3,11.18,3.21,14.07,4.88,23,1.93,10.31-.18,1.63,1.52,15.33.26,2.17.69,5.38-1,8.16-.42.69-1.72,2.85-3.42,2.86-3.69,0-5.34-10-8.06-9.69-1.24.15-2,2.4-2.36,3.5-2.71,8.5-1.85,14.91-2.42,22.5-.73,9.74-3.39,15.86-5.09,19.08-3.85,7.31-7.22,8.13-8.44,8.29a5.33,5.33,0,0,1-3.86-.83c-1.42-1-1.75-2.59-2.65-5.08a49,49,0,0,0-3.13-6.9c-3.34,5-5.91,9.08-7.58,11.8-5.71,9.31-6.66,11.89-10.56,15.47-1.69,1.54-4.29,3.06-9.49,6.1-2.8,1.63-4.55,2.51-5.75,1.7-.39-.27-.62-.65-2.26-4.95-.89-2.33-1-2.58-1.3-2.87-1.31-1.11-3.75-.27-6.85,1.51-5.75,3.31-6.22,5.51-10.34,8.15-2,1.32-8.08,5.18-13.67,2.8-3.79-1.62-5.73-5.41-6.52-7.25a9,9,0,0,0-3.27-2c-3.3-1.11-5.42.58-10.87.11-1.68-.15-2.43-.39-3.05-1-1.83-1.81-1.14-5.56-1.08-5.86C567.93,775.72,575.91,772.56,578.73,771.44Z"/>
        <path class="cls-6" d="M659.38,761c-.67.85-1.64,2.12-2.72,3.73-3.5,5.15-3.48,6.69-6.25,11.31A58.53,58.53,0,0,1,640.3,788.3,28.85,28.85,0,0,1,627.94,795c-3.08.8-5.79-1.59-5.89-5.07-.06-2.3-.84-3.27-2.92-3.09A6.13,6.13,0,0,0,616,788c-2.07,1.66-3.85,3.8-6,5.32-3,2.17-6,4.56-9.63,5.55a19.26,19.26,0,0,1-6.77.64c-4.49-.37-7.57-3-9.66-7.24-1.22-2.48-1.77-2.7-4.14-2.15a31,31,0,0,1-6.3,1c-2.08.17-4.89.4-6.9-1.55a7.58,7.58,0,0,1-2-4.25,10.09,10.09,0,0,1,1.26-6.46,9.5,9.5,0,0,1,1.34-1.9c3.57-3.88,7.53-6.83,12.56-8.26A54.8,54.8,0,0,1,590.05,767a34.41,34.41,0,0,0,9.92-1.83c.67-.25,4.2-1.55,4.09-2.57,0-.26-.3-.53-3.27-1.49-2.74-.89-2.77-.86-3.21-1-4.1-1.64-4-8.12-.35-11a13,13,0,0,1,7.45-2.78c16.46-1.3,22.67.73,29.05-3.37a19.24,19.24,0,0,0,5.34-5.25,19.29,19.29,0,0,1-6.32-.93c-2.1-.68-3.27-1.15-4.36-2.28a8.31,8.31,0,0,1-1-9.49,24.43,24.43,0,0,1,6.05-7.33c3.48-3,7.47-4.75,11.3-7s8-4.16,11.4-7.34c2-1.87,4.45-3.18,6.54-5,1.58-1.37,3.39-2.68,3.89-5.43-1,0-1.94,0-2.9,0a24.61,24.61,0,0,1-3.65-.28,3.5,3.5,0,0,1-2.45-4.36c1.07-3.44,2.31-6.85,5.17-9a30.89,30.89,0,0,1,5.38-3.31,37.55,37.55,0,0,0,11.39-7.73,25.45,25.45,0,0,0,3.57-4.9c1.66-2.81,3.13-5.75,4.68-8.63a32.78,32.78,0,0,0,2.65-8.5,52,52,0,0,0,.83-8.83c.08-2.28,0-4.18,0-5.53.17.57.35,1.14.52,1.7a89.28,89.28,0,0,1,.9,12.13c0,7.69-.49,11.73-.11,20a38.18,38.18,0,0,0,.68,5.23c1,5.51,1.78,9.64,2.22,11.5,4.57,19.35,5.2,20.4,5.81,25.61.71,6,2.1,17.85-2.53,20.72-1.63,1-4.59,1.39-6.06-.19a25.36,25.36,0,0,1-4.08-6.48c-.28-.59-.78-1.35-1.28-1.43-1-.17-1.21.93-1.3,1.74-.28,2.51-.47,5-.67,7.56-.23,2.76-.22,6.94-1.23,15.32a55.4,55.4,0,0,1-1.78,10.23,32.79,32.79,0,0,1-4.87,10.24,25.79,25.79,0,0,1-4.29,4.45c-1.83,1.5-3.83,3.08-6.47,2.76a5.36,5.36,0,0,1-3.6-1.79,6.54,6.54,0,0,1-1.26-2.9A46.06,46.06,0,0,0,659.38,761Zm1-70.83c1.58-.13,2.68-.25,3.79-.32a31.84,31.84,0,0,1,4.77-.2,2,2,0,0,1,1.87,2.6,13.53,13.53,0,0,1-1.36,3.65,8.21,8.21,0,0,1-1.54,2.18A62.7,62.7,0,0,1,657,707.68c-2.67,1.79-5.37,3.6-9.36,5.8-5.41,3-7.89,3.76-12.24,7,0,0-4.2,3.06-5.54,7.19-.67,2.07-.56,3.63,1,4.85a5.41,5.41,0,0,0,2.32.91c4.85,1,6.54.92,8.08,1.58,1.15.49,1.71.75,1.91,1.23,1.1,2.66-5,10.07-12.62,12.3-.38.12-2.45.37-6.6.78-4.55.46-9.11,1-13.67,1.26-2.74.15-5.46-.21-8.22.49a7.3,7.3,0,0,0-4.33,2.61A2.92,2.92,0,0,0,597,756c.15.47.56.9,3.11,1.6a31.61,31.61,0,0,1,5.22,1.68,3,3,0,0,1,1.43,2,5.59,5.59,0,0,1-1.43,5.08,12.77,12.77,0,0,1-7.16,3.71c-1.28.22-2.56.4-3.84.57-4.73.61-9.32.94-11,1.2-6.44,1-13.56,4.54-15.7,9.52-.34.8-1.29,3-.42,4.57a2.92,2.92,0,0,0,2,1.33,22.12,22.12,0,0,0,6.36.26c2.05-.08,4.1-.51,6.15-.65,2.23-.16,3.56,1.08,4.66,3.25,1,1.9,2.35,4,4,4.87a11.57,11.57,0,0,0,10.08.31,32.54,32.54,0,0,0,10.65-7.74c2.15-2.28,4.57-4.31,7.73-4.54a4.73,4.73,0,0,1,1.95.2c2.66,1,4.2,2.77,4,6.13-.12,1.77.34,2.25,2,2.25a11.82,11.82,0,0,0,7-2C643,783.68,648,774,648,774c2.2-4.43,4.24-7.95,5.78-10.48,3.37-5.52,5.07-7.42,6.2-7a1.42,1.42,0,0,1,.69.65c2.55,4.22,3.27,11.15,5.62,12.33S673,766,675,763.31a29.78,29.78,0,0,0,5.11-12.42c2.3-11.52-.21-20.41,2.51-29.38.83-2.73,1.92-4.72,3.49-5.09a3.49,3.49,0,0,1,2.66.75c4.62,2.83,5.63,7.82,7.27,7.56,1.15-.18,1.72-2.82,1.85-3.42,1.9-9.09-2.24-16.17-3.95-30-.34-2.77-.88-8.19-2.28-16-.21-1.21-.4-2.19-.52-2.82-.19,1.49-.51,3.69-1,6.32-.86,4.47-1.91,7.86-3,12.19-.65,2.43-1.29,4.88-2.17,7.22-1.61,4.29-3.34,8.53-5.1,12.75-1,2.45-2.15,4.86-3.38,7.19-1.43,2.7-3,5.33-4.56,7.92-2,3.21-4,6.42-6.1,9.51-1.9,2.74-3.95,5.37-6,7.93-1.8,2.19-3.7,4.29-5.67,6.29s-4,3.84-6.12,5.68a87.2,87.2,0,0,1-7.1,6,100.27,100.27,0,0,1-15.24,9.21c-3.09,1.44-6.24,2.75-9.42,3.94-2.9,1.07-5.86,1.92-8.8,2.83-2.2.67-4.4,1.39-6.77.81,4.51-2.18,7.61-3.5,9.65-4.31.5-.2,1.45-.6,2.74-1.17,1.91-.84,3.71-2,5.56-3,4.19-2.26,8.46-4.35,12.56-6.79a112.34,112.34,0,0,0,15.4-11.52,113.47,113.47,0,0,0,13.59-14.67c4.19-5.4,7-10.27,9.33-13.79,1.07-1.64,2.05-3.37,3-5.12,1.3-2.48,2.56-5,3.74-7.56.87-1.88,2.81-6.06,4.25-9.8,4.78-12.36,5.63-23.5,8.42-31.75.09-.25.28-.84.51-1.69a32.65,32.65,0,0,0,.75-9.48,49.38,49.38,0,0,0-3.29,5.43c-1.49,2.65-2.71,5.6-4.63,7.83a30.11,30.11,0,0,1-10.39,7.73,72.37,72.37,0,0,0-6.61,3.53C662.44,683.71,661.27,686.48,660.39,690.21Z"/>
      </g>
      <g>
        <path class="cls-3" d="M111.44,697.24a41,41,0,0,0,9.33,11.8c7.55,6.5,15,7.73,26.4,10.22,24.48,5.35,36.88,8.16,44.52,15a40.28,40.28,0,0,1,12,19.14c.89,3.32,5,18.86-4.72,30.84-7,8.6-16.94,10.19-19.89,10.54a109.71,109.71,0,0,1-9.67,14.69c-5.63,7.21-8.53,10.84-12.52,11.72-2.49.55-3.43-.16-12.65,0-2.17,0-3.94.11-5.08.16a18.05,18.05,0,0,1-4.37,5.48c-5.23,4.37-11.51,4.15-15.53,3.94-9.28-.47-15.93-4.68-21.73-8.35a100,100,0,0,1-11.68-9c-4.44-3.82-6.67-5.73-8.09-7.62-7.23-9.64-5.37-22.18-5.24-22.95.79-4.84,2.57-8.12,10-18.73C97,743.14,99.82,741.92,103,735c3.08-6.69,5.81-17.14,3-32.76Z"/>
        <path d="M102.53,687.39l1.88,3.78c.73-1.86-.08-4.69,3-4.55,1.27,2.18,2.55,4.35,3.8,6.54,5.61,9.79,15,14.15,24.87,17.55,7,2.43,14.25,4.41,21.47,6.26,4.63,1.18,9.44,1.7,14.15,2.61a36.25,36.25,0,0,1,4.2,1.27c3.81,1.21,7.64,2.36,11.41,3.68,5.65,2,10,6,13.74,10.46,2.42,2.91,4,6.83,5.17,10.57a55.58,55.58,0,0,1,2.92,16,92.59,92.59,0,0,1-.62,10.64,30.09,30.09,0,0,1-1.3,5.81c-2,6.45-6.86,10.3-12.22,13.54-2.89,1.74-5.94,3.18-8.93,4.72a6.4,6.4,0,0,1-1.57.43c-2.1.45-3.76,1.41-4.47,3.73-1.27,4.14-4,7.38-6.71,10.57-1.35,1.62-3.34,2.66-4.91,4.1-2.47,2.28-4.85,4.65-7.24,7-3.18,3.17-6.53,4.91-11.16,3.85-3.07-.7-6.48-.32-9.7.07-1.22.15-2.27,1.81-3.51,2.57-2.6,1.59-5.31,3-7.93,4.55-4.4,2.63-9.13,1.7-13.7,1.82-4.86.13-9.78-.63-13.83-3.32-3.55-2.35-7.34-4.41-9.9-8.29a27.09,27.09,0,0,0-7.47-7C78.94,813,75.8,808,73.1,802.7c-3.28-6.44-3.11-13.64-3.23-20.85a23.11,23.11,0,0,1,3.43-12.1,29.58,29.58,0,0,1,3-4.13c2.87-3.52,5.81-7,8.67-10.49,1.85-2.28,3.55-4.67,5.38-7A58.93,58.93,0,0,0,99.53,731a65.58,65.58,0,0,0,2.32-9.63c.76-4,1.47-8,1.87-12a28.09,28.09,0,0,0-.32-7.21c-.58-3.57-1.46-7.08-2.31-10.59A3.65,3.65,0,0,1,102.53,687.39Zm31.84,45a68.15,68.15,0,0,0,14,16.3c2.67,2.32,5.44,4.52,8,7C160,759,163.5,762.55,167,766.09c3.93,4,7.67,8.09,9.77,13.52.14.35.76.49,1.15.73l.55-.33c-.68-3.12-.92-6.46-2.12-9.33-2.39-5.72-6.44-10.26-10.67-14.61a42,42,0,0,1-3.76-5.29,27.66,27.66,0,0,1,6.45,4.22,136.24,136.24,0,0,1,10,10.26A18.92,18.92,0,0,1,183,777.68c0,4.64-.28,9.29-.45,14.48,1.94-1.36,3.71-2.47,5.34-3.77,3.39-2.71,6.76-5.5,8.16-9.92a22.08,22.08,0,0,0,.8-4.45c.34-3.63,1-7.32.75-10.91a72.34,72.34,0,0,0-2.13-13.37c-1.4-5.4-4.08-10-9.08-12.8a74.71,74.71,0,0,0-20-7.2c-6.55-1.48-13.22-2.68-19.52-4.89-7.84-2.75-15.42-6.25-23-9.75-2.83-1.31-5.23-3.55-7.86-5.31a17.83,17.83,0,0,0-2.48-1.17c2,4.53,4.12,8.58,5.46,13,2.23,7.27,4,14.7,5.79,22.13,1.32,5.54,2.31,11.17,3.38,16.77,1,5.26,2.41,10.45,2,16-.29,3.63-.33,7.27-.32,10.91a96.76,96.76,0,0,0,.38,11.69,68.26,68.26,0,0,0,2.41,9.56c.41,1.48,2.68,3.56,3.87,3.74-2.26-6.51-2.67-13-.92-15.21.25.4.52.76.72,1.15a4.37,4.37,0,0,1,.37,1.05,36.1,36.1,0,0,0,8.54,16.91c2.31,2.54,5.18,1.57,7.78,2.2.17,0,.46-.29.67-.47,4.79-4.44,10.24-8,14.47-13.21a12.89,12.89,0,0,0,2.76-9.3,26.68,26.68,0,0,0-3.64-12.22A133.42,133.42,0,0,0,157,768.62c-4.25-5.39-8.85-10.49-13.36-15.67-3.73-4.28-6.39-9.28-8.85-14.42A8.84,8.84,0,0,1,134.37,732.35Zm-21.66,35.84.74-.1c.83,4.22,2.12,8.4,2.39,12.69.33,5.12.63,10.19,2.24,15,1,2.86,2.17,5.61,3.38,8.68.51-.65.68-.78.72-.94a1.68,1.68,0,0,0,.08-.85c-1.38-5-.64-10,.19-15,1-6,2.11-11.87,2.32-17.95a42,42,0,0,0-2.7-16.83c-2.3-5.89-3.51-12.1-5.3-18.13s-3-12.3-4.56-18.44c-.12-.52-.73-.89-1.38-1.62-.12,3-.17,5.59-.33,8.15-.28,4.31-.28,8.66-1,12.9-1,5.78-1.46,11.73-4,17.19a3.29,3.29,0,0,0-.15.56c-1,3.58-1.64,7.25-2.9,10.72-1.79,5-4.09,9.76-6,14.7a84.55,84.55,0,0,0-2.66,8.73,23.92,23.92,0,0,0-1.11,6.14,43.8,43.8,0,0,0,4,18.83c.47,1,1,2,1.47,3-1.15-6-3.69-11.55-1.78-17.84a43.05,43.05,0,0,0,6.17,14.62c3,4.56,6.84,8.19,10.39,12.18a10.38,10.38,0,0,0,8.68,3.61c1.09,0,2.19.1,3.28,0a21.81,21.81,0,0,0,9.35-2.95c-.42-.38-.58-.64-.8-.71-7.23-2.31-11.29-8.24-15-14.34a38.1,38.1,0,0,1-4.12-9.55c-1.07-3.86-2.28-7.77-1.82-12a81,81,0,0,0,.33-8.94c0-3-.28-6-.35-9A13.17,13.17,0,0,1,112.71,768.19ZM98,749.9l-.71-.14c-.72,1.12-1.36,2.31-2.17,3.36-2,2.55-4,5.07-6.08,7.52-3.14,3.69-5.87,7.7-8.79,11.54a19.53,19.53,0,0,0-4,14.05,72.87,72.87,0,0,0,2.34,12c.91,3.63,2.22,7.13,5.62,9.73-.35-3.68-.69-6.93-1-10.18A35.28,35.28,0,0,1,85.39,783c3.73-10.28,8-20.38,12-30.56A18,18,0,0,0,98,749.9Z"/>
      </g>
      <g id="Group_21" data-name="Group 21">
        <path id="Path_103" data-name="Path 103" class="cls-4" d="M722.83,256.92a53.37,53.37,0,0,1,2.5,17.47,62,62,0,0,1-11.54,36.48c-3.09,4.26-13,17.51-31.8,22.45-19.78,5.2-35.83-2.4-40.23-4.68-23.31-12.1-29-35.65-29.62-38.66-4-18.26,2.15-33.1,5.3-39.29a57.44,57.44,0,0,1,83-22.24C705.91,232,717.65,241,722.83,256.92Z"/>
        <g id="Group_20" data-name="Group 20">
          <path id="Path_104" data-name="Path 104" d="M650.81,217.13a81.09,81.09,0,0,1,8.17-1.41c5.64-.69,16.37-1.88,28.78,1.76a61.4,61.4,0,0,1,17.66,8.44c22.15,15.6,25.24,43.09,25.37,44.41,3.14,32.48-21.16,53.33-23.27,55.09-2.75,2.28-21.62,17.49-47.53,14.48-23.54-2.75-44.85-19.13-52.39-45.55s4.9-56.35,29.34-70.44c2.2-1.27,4.38-2.59,6.74-4-3.49-8.74-11.33-12.62-16.93-18.45,1-2.92,2.76-3.09,5.15-2.53,5.74,1.32,9.45,5.31,12.9,9.59C646.87,211.09,648.6,213.94,650.81,217.13Zm-6.25,26.79a11.75,11.75,0,0,1-2.14-1.65c-1.3-1.81-3.63-3.81-3.45-5.53.31-3.18,3.55-3.15,6.25-3.13a17.27,17.27,0,0,0,3-.59l-1.6-4.12a11.87,11.87,0,0,0-2.42.52c-26.73,12.84-39,50.84-21,76.76,14,20.19,39,28.57,63,20.23,23.77-8.23,39-35.63,34.51-59.8-3.79-20.28-25.33-41.25-42.54-43.27-7.55-.89-15-.93-22.78,2.2,2.74,2.44,5,4.41,7,6.21,2.73-.7,5-1.7,7.33-1.73,1.65,0,4,.87,4.79,2.13s.19,3.47-.4,5c-.52,1.4-1.86,2.5-3,4,1.4,1,2.33,1.69,3.29,2.33,2.06,1.38,4.41,3.18,2.81,5.64-1.06,1.62-3.76,2.52-5.89,3s-4.17-.2-6.67-.4c-.63,2.73-.88,5.38-1.9,7.68-.77,1.73-2.29,3.86-3.9,4.32-2.76.79-4.08-1.65-4.93-4-.7-2-1.46-3.94-2.27-6.1-3.06,1.59-5.66,3.32-8.53,4.27-1.52.5-4.14.2-5-.81s-.36-3.57.42-5c1.49-2.67,3.62-5,6-8.15Z"/>
        </g>
        <path id="Path_105" data-name="Path 105" class="cls-7" d="M631.63,263.76a7,7,0,0,1-1.56,7.17c-1.63,2.48-2.84,3.08-3.74,3-2.78-.36-5.67-8.08-2.73-11.62a4.88,4.88,0,0,1,4.29-1.78C630.36,260.84,631.48,263.4,631.63,263.76Z"/>
        <path id="Path_106" data-name="Path 106" class="cls-7" d="M628.51,283.56a12.65,12.65,0,0,0,0,5.61,34.05,34.05,0,0,0,4.06,10.14A40.47,40.47,0,0,0,643,310.38c6.37,4.6,12.22,6.06,17.93,7.48a41.23,41.23,0,0,0,15,.93c2.67-.35,4.6-.93,5.6-2.55.81-1.32,1-3.34.06-4.44-1.27-1.46-4.06-.64-6.65-.31-4.48.58-7.75-.37-14-2.18a42.41,42.41,0,0,1-18.35-10.94c-3.63-3.78-7.17-7.45-9.35-13.25-.72-1.92-1.67-5.05-2.81-5S628.65,283,628.51,283.56Z"/>
      </g>
    </g>
  </g>
</svg>
