<svg xmlns="http://www.w3.org/2000/svg" viewBox="0 0 938.51 886.04"><defs><style>.cls-1{fill:#e04817;isolation:isolate;}</style></defs><title>pizza</title><g id="Layer_20" data-name="Layer 20"><path d="M222.48,61.47c13.87,2.4,20.26,11.36,23.75,24.49,13.55,50.94,27.83,101.68,41.54,152.58,1.31,4.89,1.86,10.66.58,15.45-3.14,11.82-17.23,16.28-29.3,9.74-10.09-5.47-20-11.36-29.92-17.07l-70.49-40.45c3.12-18.49,17-28.07,42.59-29-.36,3.76-.72,7.44-1,11.13-1.5,16.72,6.43,25.88,23.34,26.95.75.05,1.51,0,2.26.05,7.5.14,6.95-.14,4.95-7a79.43,79.43,0,0,1-2.93-22.15c0-24.13,5.82-47.37,12-70.52,1.39-5.18,3.79-10.43-.34-15.59-5.23-6.52-11.64-11.29-19.82-13.2-1.33-.31-3.66.91-4.63,2.14q-34.53,43.26-68.81,86.7c-4.08,5.16-7.94,10.49-12.47,16.48-9.6-5.81-19.67-10.93-28.6-17.59-9.21-6.87-10.31-19.27-3.81-28.88,12.43-18.39,29.3-32.31,46.79-45.5C166.33,86.47,185.37,74,206.85,65.77c4.36-1.67,8.9-2.88,13.36-4.3Z"/><path class="cls-1" d="M353.16,440.16c-1.68-15.5-3-30.83-5.13-46.05-.82-6,1-9.39,5.57-13.05,20.66-16.39,41-33.21,61.4-49.9,1.8-1.48,3.48-3.1,5.22-4.66l-.58-1.44-72.79,2.54V282.72l135.6-4.94c.49,15.27,1.06,30.1,1.28,44.93,0,1.59-1.78,3.58-3.23,4.77Q441,360,401.36,392.3a34.82,34.82,0,0,0-6.39,6.61c152.7,3.46,296.14,44,435.05,104.32l-11,35.6c-17.61-7.29-34.7-14.61-52-21.49-72-28.67-145.82-51.12-222-65.33-35.14-6.55-70.52-11.86-106.32-12.78-26.14-.66-52.32,0-78.48.11A64.35,64.35,0,0,0,353.16,440.16Z"/><path class="cls-1" d="M130.11,414.4c4,16.4,7.9,32.18,11.92,48.5L87.57,476.48c-15.73-63.27-31.4-126.27-47.22-189.92,9.49-2.36,18.69-4.72,27.92-6.95,24.1-5.82,48.09-12.1,72.34-17.19,18.22-3.82,36.46-4,52.26,8.47,12.65,10,19.43,23.72,23.81,38.82,5.89,20.28,7.87,40.75.68,61.06-9.32,26.31-29,40-56.07,43.38-8.31,1-16.85.22-25.28.25C134.36,414.41,132.71,414.4,130.11,414.4Zm-22.52-95c-.3,1.7-.59,2.29-.47,2.78,4.53,18.44,9,36.89,13.8,55.26.35,1.35,2.8,3,4.33,3.05,9.25.37,18-1.71,25.68-7,6.07-4.21,10.7-9.71,11.59-17.33a46.9,46.9,0,0,0-5.11-28.47c-4.58-8.43-11.5-13.84-21.42-12.86C126.35,315.71,116.83,317.81,107.59,319.36Z"/><path d="M341,209.27c189.89-16.89,375.65-4.45,557.19,57.5-4.41,12.37-8.61,24.12-12.83,35.93C709,242.85,528.09,231.75,343.77,246.9,342.88,234.91,342,222.66,341,209.27Z"/><path d="M102.76,649.7c24.47,11.55,49,13.28,74.25,5.63,17.72-5.38,30.64-16.47,39.17-32.77,1.39-2.65,3-5.45,3.36-8.32.49-4.09,1.11-9-.72-12.17-.94-1.64-7.25-1.06-10.81-.18-17.16,4.24-34.11,9.39-51.36,13.23a69.18,69.18,0,0,1-22.39.8c-18.57-2.13-29.85-15.21-30.7-33.93-.65-14.34,3.87-27.31,11.58-38.87,22.52-33.74,53.34-56.9,92.07-69.12a61.74,61.74,0,0,1,30.71-2c15.6,3,23.78,15.25,20.09,30.81-3.89,16.39-12.74,29.49-27.72,40.26,0-3.62.44-6.19-.08-8.55-1.57-7.08-2.63-14.48-5.54-21-3.34-7.47-8.86-9.69-16.36-6.44a138.7,138.7,0,0,0-25.91,14.48c-14.74,10.68-25.55,24.92-33,41.57-1.78,4-4.14,8.61-.72,12.8s8.41,3,12.69,2c10.23-2.45,20.37-5.35,30.49-8.26,12.5-3.59,25-7.53,38.2-6.36,24.14,2.13,39.19,20.79,35.86,44.84-3.64,26.33-17.78,46.66-38.71,62-21.2,15.54-45.3,23.48-71.9,22.8C129.18,692.21,109.23,676.13,102.76,649.7Z"/><path d="M771.59,698.51l-7.86,26.56c-208.3-58.16-411.47-43.32-611.23,39.52L140,740.11c99.56-44.23,203.74-68.29,312-75.91A902.51,902.51,0,0,1,771.59,698.51Z"/><path class="cls-1" d="M798.28,382c8.13-15.37,5.44-25.23-8.47-32.53-13.38-7-28-9.87-42.89-10.85-7.13-.46-14.31-.08-21.91-.08,3.12-11.76,6.07-23.19,9.31-34.53.31-1.11,2.3-2.32,3.64-2.48,32.16-4,62.62,2,91.21,16.85,13.65,7.1,24.42,17.57,26.91,33.58a57.82,57.82,0,0,1-.58,22.33c-7.37,29.54-15.63,58.86-23.65,88.59L789.46,451.4c-.56-5.91-1.11-11.82-1.68-17.87-.87.09-1.62-.06-1.88.23C776.7,444.2,765,447,752.05,443.68c-11.57-3-23.37-6.07-34.08-11.19-18.58-8.87-24.88-24.14-19.86-44.1,2.84-11.33,7.11-21.93,18.16-28.05,9.32-5.17,19.53-4.65,29.26-3,11.24,1.86,22.24,5.38,33.19,8.7C786.93,368.47,794.44,372.36,798.28,382Zm-17.85,38.3c8.66-1,9-1.24,11.09-9.19.89-3.46,2.14-6.87,2.56-10.38.21-1.76-.62-4.95-1.77-5.37-8.2-3.07-16.45-6.44-25-8-7.68-1.42-11.13,1.87-13.1,9.16-2.36,8.77-.93,14.14,6,17.25C766.69,416.56,773.69,418.13,780.43,420.27Z"/><path class="cls-1" d="M596.72,324.06l-32.9-2.53-33.88-2.63c1-14.48,2-28.65,3.06-43.64l133.46,10.08c-.87,11.18-2.73,21.86-2.23,32.42.49,10.09-4.91,13.75-12.51,17.68-21.56,11.16-42.8,22.95-64.16,34.5-1.27.69-2.46,1.54-3.68,2.31l.06,1.74,76,5.89c-.94,12.27-1.87,24.33-2.74,35.64L524.19,386.63c.18-3.55,0-8.44.85-13.14a10.55,10.55,0,0,1,4.28-6.45c20.81-12.87,41.81-25.45,62.75-38.12,1.71-1,3.38-2.14,5.07-3.21Z"/><path d="M563.66,503.42c16.32.44,32.86,4.91,43.94,20.85,8.2,11.79,9.48,25.26,7.49,39-4.71,32.49-20.6,57-51.65,70A65.72,65.72,0,0,1,525.15,637c-25.64-4.89-39.79-25.28-36.64-52.42,2.16-18.65,10.67-33.84,24.82-46.09a8.76,8.76,0,0,0,2.75-6c-.11-7.45,3-13.11,8.63-17.56C535.54,506.33,548.22,503.53,563.66,503.42Zm-31.17,60.69c-1,4.15-2.7,8.12-2.84,12.14-.31,8.94-1,18.11.6,26.81,1.68,9.3,9.89,11.36,17.11,5.23a42.6,42.6,0,0,0,7.49-8.37C563.67,587,569,572.54,572,557.29a75.4,75.4,0,0,0,1.6-19.56c-.22-3.32-2.91-7.52-5.75-9.36-3.83-2.47-8.39-.7-11.93,2.35-7.13,6.12-10,14-9,23.2.41,3.9,1.83,7.68,2.48,11.56.84,5-2,7.32-6.58,5.14C539.41,569.05,536.45,566.67,532.49,564.11Z"/><path d="M343.87,553.19c-5.25.62-10.65.66-15.72,2-10.51,2.71-20.89,5.92-31.21,9.27-3.87,1.26-6.2,1-7-3.41-2-11-1.56-21.83,3.94-31.86,4.18-7.62,10.46-12.35,19.58-12s18.43.8,27.62,1.57c12.62,1.06,24.73-.22,36.35-5.67,6.45-3,9.19-1.06,9.17,6.06-.09,29.89-11.68,53.94-36.06,71.69a222.24,222.24,0,0,0-17.71,14.9c-1.31,1.18-1.63,3.46-2.4,5.24,1.9.4,3.89,1.4,5.67,1.11,7.6-1.27,15.44-2.1,22.62-4.67,7.66-2.73,14.86-6.94,21.92-11.09,4.51-2.64,6.52-2.58,7.84,2.29,4.78,17.65-5.07,46.37-33.38,46.54-9.93.06-19.91-1.12-29.78-2.41a53.45,53.45,0,0,0-30.23,4.61c-6.91,3.2-8.06,2.32-9.71-5.27-5.54-25.37,3.12-45,23.78-60,10.21-7.41,20.29-15,30.39-22.54,1.75-1.3,3.34-2.81,5-4.23Z"/><path class="cls-1" d="M319.83,430.34l-54.11,7c-6.15-47.64-12.24-94.8-18.37-142.25l54.12-6.95C307.54,335.21,313.62,382.24,319.83,430.34Z"/><path d="M469.07,519.49c6.08-1.08,11.1-1.72,16-2.91,4.48-1.09,6.22.56,6.72,4.87,1.55,13.23-5.67,22.93-20.06,25.17-5.67.89-8,2.94-8.68,8.56-2.69,20.89-5.93,41.71-8.66,62.59-.55,4.23.14,8.64.45,13,.25,3.38-.8,5.91-4.46,5.66-9.12-.64-18.42-.78-27.27-2.78-8.24-1.86-11.3-6.62-10.42-15.11,1.48-14.4,4-28.69,6-43,1.1-7.74,2.14-15.49,3.2-23.17-12.15-2.09-12.72-3-10.16-14.54,1.55-7,3.32-13.78,12.29-14.74.91-.1,2.22-2,2.34-3.12,1.6-15.11,3.22-30.24,4.35-45.39.28-3.73,2-5,4.94-5.66,10.87-2.47,31.79,7.47,35.91,18,1.6,4.05.9,9.21.48,13.8C471.53,506.56,470.23,512.43,469.07,519.49Z"/><path d="M686,550.26c4.72-3.63,8.76-7.82,13.67-10.26,6.11-3,12.81-6,19.48-6.57,15.11-1.39,23.6,8.77,20.15,23.49a43.71,43.71,0,0,1-19.57,27.34c-7,4.5-10.43,3-12.52-5.07-.47-1.82-.86-3.67-1.43-5.46-3-9.55-9.11-11.16-16.27-4.27a22,22,0,0,0-3.91,4.81c-10.84,19.19-18.63,39.42-20.19,61.64-.25,3.46-1,6.43-5.12,5.55-9-1.93-18.1-3.56-26.64-6.74-8.23-3.06-10.84-8.09-8.72-16.66,3.43-13.83,7.81-27.44,12.21-41,4.69-14.47,11-28.49,10.76-44.17-.08-4.35,3.34-4.71,6.35-4.65,12.92.24,26,4.93,30.79,20A15.43,15.43,0,0,0,686,550.26Z"/><path d="M777,666.7c-8.5-2.24-17.11-4.11-25.43-6.85-5.73-1.89-9-6.58-7.81-12.8,1.87-9.55,4.08-19.06,6.75-28.42,4.52-15.88,9.57-31.61,14.25-47.44a15.91,15.91,0,0,0,.47-6.72c-.92-5.89,2.47-7.51,7.2-7.38,10.77.32,20.15,4,27.79,11.91,6.11,6.28,6.86,13.63,4.25,21.45-3.56,10.69-7.54,21.24-11.27,31.88-4.36,12.41-9.31,24.64-8,38.31C785.79,666.58,781,665.59,777,666.7Z"/><path d="M209,126c-1.56,12.24-3.13,24.48-4.83,37.82l-19.67-2.66,23.12-35.74Z"/></g></svg>