<svg xmlns="http://www.w3.org/2000/svg" viewBox="0 0 1920 310.58">
  <defs>
    <style>
      .cls-1 {
        fill: #194435;
      }

      .cls-2 {
        fill: #2b9845;
      }

      .cls-3, .cls-4 {
        fill: #1d1c1a;
      }

      .cls-3 {
        stroke: #1d1c1a;
        stroke-width: 0.64px;
      }

      .cls-3, .cls-5 {
        stroke-miterlimit: 10;
      }

      .cls-5, .cls-6 {
        fill: none;
        stroke: #000;
        stroke-width: 0.75px;
      }

      .cls-6 {
        stroke-linecap: round;
        stroke-linejoin: round;
      }

      .cls-7 {
        font-size: 13px;
        fill: #fef9e9;
        font-family: TwCenMT-Bold, Tw Cen MT;
        font-weight: 700;
      }

      .cls-8 {
        letter-spacing: -0.01em;
      }

      .cls-9 {
        letter-spacing: 0.02em;
      }

      .cls-10 {
        letter-spacing: 0.05em;
      }

      .cls-11 {
        letter-spacing: -0.02em;
      }

      .cls-12 {
        letter-spacing: 0.01em;
      }

      .cls-13 {
        letter-spacing: -0.02em;
      }

      .cls-14 {
        letter-spacing: 0.02em;
      }

      .cls-15 {
        letter-spacing: 0em;
      }

      .cls-16 {
        letter-spacing: -0.07em;
      }

      .cls-17 {
        letter-spacing: -0.03em;
      }

      .cls-18 {
        letter-spacing: -0.03em;
      }
    </style>
  </defs>
  <title>étlap header</title>
  <g id="Layer_32" data-name="Layer 32">
    <path class="cls-1" d="M-1.42,173.29a159.1,159.1,0,0,1,20.65-4.65c6.69-1,30.09-4.29,61.38,2,22.51,4.55,38.2,11.84,54.4,19.49,31.77,15,36.26,23.08,69.53,40.44C216.7,237,235.7,246.77,261.26,255c20.4,6.6,51.66,16.41,93.09,14.83s71.07-13.66,78-16.58c13.38-5.65,12-6.74,39.56-21.82,18.22-9.95,49.24-26.76,89.31-42.18a466.24,466.24,0,0,1,60.22-18.91,234.12,234.12,0,0,1,46-6.69c12.45-.51,23.21.11,34.91,3.2,17.75,4.7,23.59,11.37,25,13.09,1.7,2.05,7.06,8.7,7.56,18,.54,10-5.08,13.19-11.92,30.25-4.63,11.54-7.3,18.22-6.69,27.06,1.1,16,12.14,26.76,14.54,29.09,7,6.83,15.08,10.54,27.35,14a188.41,188.41,0,0,0,63.41,6.4c31-2.74,53.12-11.79,77.1-21.82,28.48-11.91,48.47-24.19,71.85-38.69,43.77-27.14,41.92-31.12,65.75-44.8,65.68-37.69,131.53-37.16,151-36.36,15.63.64,45.55,2.13,79.71,16.58,11.51,4.87,15.2,7.7,31.71,16.58a862.42,862.42,0,0,0,88.72,40.44c23.84,9.12,56,21.41,100.08,28.8,27.48,4.61,61.18,10,104.72,4.07,19.31-2.62,46.17-6.49,76.51-21.82,22.79-11.5,19.84-15.48,50.91-33.45,22.7-13.13,45.36-26,77.38-31.71,11-2,27.74-4.83,49.17-1.74,18.48,2.66,32.94,8.67,45.67,14a264.5,264.5,0,0,1,29.61,14.54V126.75c-24.75-6.67-59.42-15.66-101.17-25.31-39.47-9.13-69-15-126.55-26.48-74.12-14.74-111.18-22.11-152.73-28.8-52.32-8.41-92.64-13.31-122.18-16.87-55.4-6.67-97.25-10.39-141.09-14.25-47.74-4.21-79.62-7-123.64-9.6C1121.17,3.5,1057.61.29,976.9,0,914.84-.19,868,1.42,828.54,2.82c-29.2,1-75.43,2.71-133.53,6.69-101.07,6.92-183.18,17-233,23.85-95,13-165.89,26.76-213.53,36.08C180.75,82.69,96,101-1.42,126.16Z"/>
  </g>
  <g id="fejlcé_zöldségek" data-name="fejlcé zöldségek">
    <g>
      <path class="cls-2" d="M1074.65,76.75a26.62,26.62,0,0,1-5.34,2.4c-4.92,1.75-7,2.4-7,2.4a6.12,6.12,0,0,0-3.25,1.94c-.52.64-1.25,1.92-.82,2.58s1.56.09,3.9.54c1.26.25,2.16.42,2.63,1.12.77,1.14,0,3.21-.91,4.46-1.08,1.44-2.53,2-7.88,3.07-5.94,1.22-7.07,1.15-10,2.24a14.57,14.57,0,0,0-5.73,3.56c-.16.16-2.77,2.9-2.13,3.92.54.86,2.7-.55,5.83.37a5.15,5.15,0,0,1,3.22,2.07c.28.52,1,2.17-1.13,5.94-2.89,5.19-6.42,6-14.21,13a29.09,29.09,0,0,0-5.11,6.93c-.35.63-1.39,2.51-.89,3,.65.65,3.1-1.82,5.21-.8a2.39,2.39,0,0,1,1.06,1c1,1.88-1.24,4.9-1.83,5.68-1.83,2.43-3.16,2.63-5.52,4.71A23,23,0,0,0,1020,153a29.35,29.35,0,0,0-3.85,11.53,40.26,40.26,0,0,0-1.56-9.12,56,56,0,0,0-3-7.55c-2.9-6.47-3.85-8.11-6.06-13.31-2.55-6-.09-1-2.9-9.09a7.15,7.15,0,0,1-.38-5.06c.19-.47.77-1.94,1.88-2.17,2.4-.48,4.73,5.38,6.46,4.84.8-.25,1-1.71,1.11-2.42.7-5.48-.66-9.25-1.23-13.92a27.75,27.75,0,0,1,.93-12.19c1.61-4.91,3.7-5.84,4.48-6.09a3.8,3.8,0,0,1,2.62,0c1,.45,1.46,1.35,2.36,2.74a30.44,30.44,0,0,0,2.9,3.77c1.56-3.43,2.73-6.24,3.48-8.1,2.56-6.37,2.86-8,5-10.71a40,40,0,0,1,5.43-4.9c1.62-1.34,2.65-2.1,3.54-1.76.28.11.48.31,2.09,2.7.87,1.3,1,1.45,1.21,1.58,1,.5,2.47-.32,4.27-1.79,3.34-2.73,3.37-4.13,5.73-6.25,1.18-1.06,4.63-4.16,8.57-3.43a8.68,8.68,0,0,1,5.16,3.55,6,6,0,0,0,2.39.8c2.29.26,3.46-1,7.07-1.45a3.11,3.11,0,0,1,2.11.22c1.43.86,1.45,3.22,1.44,3.4C1081.16,72.78,1076.35,75.71,1074.65,76.75Z"/>
      <path class="cls-3" d="M1023.33,93.32c.33-.6.81-1.5,1.32-2.61,1.63-3.56,1.43-4.49,2.66-7.64a36.24,36.24,0,0,1,5.07-8.68,19.29,19.29,0,0,1,7.23-5.62,3.19,3.19,0,0,1,4.47,2.31c.33,1.39,1,1.88,2.29,1.5a4.22,4.22,0,0,0,1.92-1.13c1.14-1.27,2-2.79,3.23-4,1.71-1.7,3.32-3.52,5.59-4.59a14,14,0,0,1,4.34-1.25,7.77,7.77,0,0,1,7.2,3.16c1.11,1.34,1.5,1.4,3,.77a22.12,22.12,0,0,1,4-1.42c1.34-.37,3.13-.86,4.69.06a4.53,4.53,0,0,1,1.84,2.32,5.87,5.87,0,0,1,0,4.07,6,6,0,0,1-.64,1.32,17.87,17.87,0,0,1-7.16,6.6,39,39,0,0,1-6.51,2.34,23.81,23.81,0,0,0-6.25,2.38c-.4.23-2.54,1.47-2.34,2.07,0,.15.25.28,2.31.48,1.9.19,1.92.17,2.23.22,2.88.47,3.64,4.4,1.59,6.58a8.93,8.93,0,0,1-4.51,2.64c-10.58,2.88-14.88,2.44-18.53,5.74a12.23,12.23,0,0,0-2.83,3.85,14.31,14.31,0,0,1,4.24-.24,6.61,6.61,0,0,1,3.13.82,4.85,4.85,0,0,1,1.82,5.62,14.94,14.94,0,0,1-3,5.2c-1.91,2.24-4.29,3.83-6.51,5.65s-4.67,3.53-6.52,5.9c-1.08,1.38-2.51,2.48-3.64,3.84-.87,1-1.89,2.05-1.87,3.78.65-.12,1.27-.25,1.9-.34a18,18,0,0,1,2.42-.3,2.17,2.17,0,0,1,2.14,2.33c-.27,2.21-.65,4.44-2.25,6.11a19.74,19.74,0,0,1-3.09,2.69,24.67,24.67,0,0,0-6.47,6.13,16.12,16.12,0,0,0-1.72,3.42c-.73,1.91-1.32,3.87-2,5.82a18.84,18.84,0,0,0-.67,5.48,29.18,29.18,0,0,0,.56,5.44c.23,1.39.49,2.54.7,3.35l-.56-1a52.29,52.29,0,0,1-2.1-7.22c-1-4.65-1.14-7.16-2.42-12.11a24.51,24.51,0,0,0-1.09-3.08c-1.34-3.2-2.37-5.6-2.89-6.67-5.4-11.13-5.94-11.68-7-14.76-1.21-3.55-3.6-10.53-.93-12.85.94-.82,2.82-1.43,4-.66a15.59,15.59,0,0,1,3.48,3.4c.25.32.68.71,1,.7.67,0,.67-.71.63-1.21-.13-1.56-.32-3.11-.5-4.67s-.73-4.22-1.12-9.42a32.1,32.1,0,0,1-.11-6.42,19.26,19.26,0,0,1,1.9-6.81,16,16,0,0,1,2.24-3.24c1-1.14,2.11-2.35,3.88-2.49a3.67,3.67,0,0,1,2.57.62,3.92,3.92,0,0,1,1.18,1.6A28.22,28.22,0,0,0,1023.33,93.32Zm8.19,43c-1,.28-1.73.49-2.44.67a20.86,20.86,0,0,1-3.08.73,1.27,1.27,0,0,1-1.55-1.33,7.86,7.86,0,0,1,.43-2.38,4.81,4.81,0,0,1,.74-1.52,40.28,40.28,0,0,1,5.92-7.17c1.52-1.42,3.06-2.86,5.38-4.7,3.16-2.49,4.68-3.28,7.11-5.82a10.52,10.52,0,0,0,2.72-5c.17-1.34-.09-2.27-1.23-2.82a3.85,3.85,0,0,0-1.63-.25c-3.29,0-4.38.28-5.46.07-.81-.15-1.22-.23-1.4-.5-1-1.47,2-6.73,6.69-9,.24-.12,1.56-.53,4.21-1.31,2.92-.86,5.82-1.77,8.77-2.5A29.23,29.23,0,0,0,1062,92a4.82,4.82,0,0,0,2.49-2.13,1.68,1.68,0,0,0,.18-1.48c-.15-.26-.48-.48-2.23-.57a23,23,0,0,1-3.61-.35,1.9,1.9,0,0,1-1.18-1,3.26,3.26,0,0,1,.29-3.25,8.63,8.63,0,0,1,4.21-3.16c.81-.29,1.62-.57,2.43-.83,3-1,6-1.76,7-2.13,4.08-1.44,8.28-4.47,9.06-7.76.12-.52.46-2-.29-2.81a2,2,0,0,0-1.45-.56,16,16,0,0,0-4.19.65c-1.32.31-2.6.83-3.92,1.18s-2.46-.2-3.45-1.37A7.25,7.25,0,0,0,1064.1,64a8.25,8.25,0,0,0-6.62,1.1,21.5,21.5,0,0,0-6,6,8.09,8.09,0,0,1-4.48,3.73,3.15,3.15,0,0,1-1.29.13,3.42,3.42,0,0,1-3.36-3.2c-.15-1.09-.51-1.32-1.61-1.1a8.15,8.15,0,0,0-4.33,2.1A29.13,29.13,0,0,0,1029.14,84c-.89,3-1.78,5.35-2.47,7.07-1.5,3.78-2.38,5.14-3.16,5.05a.82.82,0,0,1-.53-.3c-2.2-2.23-3.53-6.33-5.21-6.74s-4,3-4.92,4.85a17.59,17.59,0,0,0-1.78,8.17c-.07,7.26,2.68,12.32,2,18.1-.2,1.75-.66,3.09-1.64,3.52a2.48,2.48,0,0,1-1.83-.12c-3.37-1.12-4.65-4-5.68-3.64-.73.25-.78,1.92-.79,2.3-.1,5.74,3.48,9.5,6.32,17.65.57,1.63,1.6,4.84,3.49,9.42.29.7.54,1.27.7,1.64-.06-.93-.13-2.3-.13-3.95,0-2.82.26-5,.47-7.77.12-1.55.24-3.12.51-4.64.52-2.8,1.12-5.59,1.74-8.37.37-1.61.79-3.21,1.31-4.78.59-1.81,1.27-3.6,2-5.37.88-2.2,1.78-4.39,2.79-6.53.9-1.9,1.9-3.75,2.95-5.57.9-1.55,1.88-3.07,2.92-4.53s2.15-2.84,3.28-4.21a56.22,56.22,0,0,1,3.89-4.53,67,67,0,0,1,8.79-7.52c1.84-1.26,3.73-2.46,5.66-3.58,1.75-1,3.58-1.91,5.38-2.83a8.84,8.84,0,0,1,4.32-1.36c-2.67,1.89-4.53,3.09-5.76,3.84-.3.19-.87.55-1.64,1.06-1.14.75-2.17,1.67-3.26,2.51-2.45,1.89-5,3.7-7.34,5.7a73.28,73.28,0,0,0-8.61,8.93,71.42,71.42,0,0,0-7,10.61c-2.06,3.8-3.3,7.11-4.36,9.53a35.43,35.43,0,0,0-1.3,3.48c-.54,1.67-1.05,3.35-1.5,5-.33,1.25-1.08,4-1.55,6.47-1.58,8.08-.74,14.94-1.53,20.28,0,.17-.08.55-.12,1.09a18.7,18.7,0,0,0,.69,5.83,29.34,29.34,0,0,0,1.47-3.7,28.4,28.4,0,0,1,2-5.33,19.7,19.7,0,0,1,5.82-6c1.34-.92,2.62-1.94,3.87-3C1031,140.49,1031.4,138.67,1031.52,136.3Z"/>
    </g>
    <path class="cls-2" d="M1191.83,213.6a122.17,122.17,0,0,1,13.87-7.25c9.06-4,11-3.58,16.78-6.9,3.57-2,10.51-6.11,15.27-14.18,1.84-3.13,4.28-7.41,3.91-13.15-.14-2.07-.53-7.9-5.19-11.26-4.17-3-9.06-2.07-10.43-1.81a16.34,16.34,0,0,0-9.58,6c-1.8,2.23-2.39,4.11-4.35,11.91-3.32,13.18-3.07,13.46-4.32,16.65a41.46,41.46,0,0,1-7.41,12.74A38.67,38.67,0,0,1,1191.83,213.6Z"/>
    <path class="cls-2" d="M1030.59,238.94c-2.51-1.15-6-2.85-10-5.16-7.72-4.47-13.73-7.93-19.25-14.39-7.2-8.39-8.8-16.25-9.11-18a20.29,20.29,0,0,1,.45-10.23,11.12,11.12,0,0,1,2.82-5.08c3.52-3.37,8.77-2.73,9.68-2.63,7.61.92,12.05,8.11,13.5,10.45,2.5,4.05,3.2,7.58,4.49,14.18,1.52,7.72.81,9.63,2.1,15.86A59.12,59.12,0,0,0,1030.59,238.94Z"/>
    <path d="M1042,248c-.16,0-.45-.13-.79-.25-3.7-1.3-5.19-3.41-9.77-6.66a14.91,14.91,0,0,0-2-1.35c-2.42-1.19-4.91-2.22-7.28-3.49-.36-.19-.68-.38-1.32-.75-2-1.14-5.56-3.32-10.23-6.68-2.23-1.61-4-3-4.76-3.64-6.32-5.16-16.68-17.56-16.14-30.76.19-4.59,1.59-6.95,2.49-8.14a13.4,13.4,0,0,1,6.75-4.52,15.48,15.48,0,0,1,11,.52,14.71,14.71,0,0,1,4.66,3.38,28.08,28.08,0,0,1,3.22,3.88c3.71,5.57,6.74,14.86,8,23.2.06.41.42,2.85.83,6.08.59,4.67.88,7,.91,7.18a28.56,28.56,0,0,0,5.62,13.33,48.34,48.34,0,0,0,5.63,5.54c1.37,1.19,2.56,2.14,3.43,2.8Zm-16.94-18.16c-.82-4.47-1.5-8.06-2-10.53-1.1-5.73-1.14-6.09-1.48-8s-.56-3.68-.92-5.5c0,0-.37-1.87-1.07-4.16-.81-2.67-2.54-8.35-7.39-12.92a14.42,14.42,0,0,0-6.9-3.94,10.2,10.2,0,0,0-3.22-.07,11.05,11.05,0,0,0-4.8,1.87,9.24,9.24,0,0,0-3.06,3.81c-1.45,3.19-.69,6.3.39,10.7a39.38,39.38,0,0,0,2.09,6,35.7,35.7,0,0,0,2.82,5.1,43.67,43.67,0,0,0,3.56,4.76A68.63,68.63,0,0,0,1008,222a83.35,83.35,0,0,0,9,7.29c1.83,1.32,2.06,1.44,2.48,1.73l.44.32.09.06c.15.13,2.19,1.57,7,5-.79-.92-1.83-2.17-3-3.67-.18-.22-.81-1-1.45-1.83-1.43-1.93-3-3.8-4.26-5.81-1.52-2.32-2.88-4.75-4.23-7.17s-2.62-4.84-3.84-7.3a3,3,0,0,1-.49-2.36c.35.45.61.75.83,1.08,1,1.5,2,3,3,4.5q2.6,3.87,5.23,7.73c.78,1.15,1.54,2.32,2.39,3.42,1.07,1.4,2.23,2.73,3.36,4.09Z"/>
    <path d="M1185.27,216.83l1-.92c6.32-5.56,7.91-6.16,10.52-8.76s3.89-5,5.87-8.13a53.85,53.85,0,0,0,4-8.11c2.35-5.69,1.47-7,3.34-14.6,2-8,3.08-12.19,7-15.48a17.3,17.3,0,0,1,7.76-3.71,16.36,16.36,0,0,1,6.59.17,16.59,16.59,0,0,1,9.8,6.46c3.13,4.51,2.6,9.42,2.27,12.09-2,16.12-20.28,25.62-22.11,26.54-4.36,2.19-9.62,4.25-9.62,4.25-4,1.61-8.11,3-12.12,4.61-1.67.67-3.25,1.61-6.35,3-1.41.63-3.29,1.45-5.74,2.35-.79.29-1.46.52-1.94.68ZM1212,202.14a41.28,41.28,0,0,0,10.43-4.51c9.59-5.84,20.65-18.14,17.41-28.12-.1-.3-2.38-7-8.52-9a12,12,0,0,0-5.61-.37,12.86,12.86,0,0,0-9.46,7.34,42,42,0,0,0-2.64,8.16c-1.13,4.64-1.77,9.36-3.31,14a54.14,54.14,0,0,1-2.64,6.14,59.11,59.11,0,0,1-4.82,8c2-2,4.13-3.84,6-6,2.06-2.39,3.35-4.13,5.87-7.64,7.8-10.85,8.47-11.62,8.79-11.47.78.36-.71,6.19-3.52,11.22-.55,1-2.22,3.49-5.49,8.49Z"/>
    <g>
      <path class="cls-2" d="M1423.74,225.27a22.64,22.64,0,0,1-11.46-.35,21.46,21.46,0,0,1-6.65-3.72c-4.5-3.57-5.21-6.58-9.6-13.16-5.83-8.73-10.3-12.63-11.35-13.53-6.84-5.86-10.35-5.58-11.34-5.46a9.42,9.42,0,0,0-6.77,4.37c-2.37,4.07-.31,9,.88,11.78,4.32,10.27,14,15.21,17.89,17.24a50.27,50.27,0,0,0,19.41,5.23C1415.6,228.37,1423.76,225.45,1423.74,225.27Z"/>
      <path d="M1423,225.39c.3.82,1,.65.72.65,0,0,.08,0,.06,0h0l-.13,0-.29,0-.59.12c-.4.08-.8.15-1.21.2-.81.11-1.62.18-2.44.21a21.86,21.86,0,0,1-4.9-.39,21.25,21.25,0,0,1-8.85-4.16,21,21,0,0,1-3.61-3.38,33.51,33.51,0,0,1-2.79-4c-1.66-2.72-3.32-5.33-5.18-7.85a77.71,77.71,0,0,0-5.88-7.24,39.61,39.61,0,0,0-6.86-6,21.3,21.3,0,0,0-3.84-2.16,6.79,6.79,0,0,0-3.71-.65,7.9,7.9,0,0,0-3.56,1.49,6.52,6.52,0,0,0-2.31,2.93c-.94,2.34-.34,5.29.74,8.08.27.71.57,1.45.88,2.11l.46,1,.53,1a28.26,28.26,0,0,0,2.49,3.74c3.77,4.75,9,8.23,14.58,10.95a50.16,50.16,0,0,0,17.86,4.69,52.66,52.66,0,0,0,9.31-.22c1.55-.17,3.09-.41,4.61-.72.76-.16,1.52-.34,2.26-.54.37-.1.74-.2,1.11-.32l.53-.18.24-.09.1,0s0,0,0,0h0C1423.2,224.63,1422.84,225.15,1423,225.39Zm1.54-.24c.11.26-.27.81-.35.79l-.08.05-.12.07-.18.07-.3.13-.59.21-1.17.36c-.78.22-1.56.41-2.34.59-1.57.35-3.16.62-4.75.83a54.35,54.35,0,0,1-9.63.37,52.07,52.07,0,0,1-18.74-4.43c-5.82-2.66-11.5-6.18-15.78-11.28a30.65,30.65,0,0,1-2.86-4.07l-.62-1.08-.55-1.13c-.38-.76-.68-1.48-1-2.24a21.25,21.25,0,0,1-1.43-4.9,10.84,10.84,0,0,1,.46-5.47,9.71,9.71,0,0,1,3.37-4.49,11.16,11.16,0,0,1,5.1-2.13,8,8,0,0,1,3,.16,14.07,14.07,0,0,1,2.54.88,24.65,24.65,0,0,1,4.34,2.62,43.92,43.92,0,0,1,3.78,3.16c1.19,1.14,2.29,2.33,3.35,3.55a82.42,82.42,0,0,1,5.82,7.68c1.8,2.63,3.44,5.43,5,8.16a30.74,30.74,0,0,0,2.49,3.86,18.57,18.57,0,0,0,3.19,3.2,19.53,19.53,0,0,0,8.09,4,20.16,20.16,0,0,0,4.53.41c.76,0,1.52-.08,2.28-.17q.57-.07,1.14-.18l.56-.1.3-.06.16,0,.11,0h.14C1423.46,224.49,1424.18,224.32,1424.51,225.15Z"/>
    </g>
    <path d="M1381.52,211.19a45,45,0,0,0,8.1,6.12,55.16,55.16,0,0,0,9.15,4.27,56.52,56.52,0,0,0,9.75,2.77,73.08,73.08,0,0,0,10.14,1.07.78.78,0,0,1,0,1.56,58.45,58.45,0,0,1-10.48-.59,56.25,56.25,0,0,1-10.26-2.5,44.74,44.74,0,0,1-9.4-4.85,50,50,0,0,1-4.23-3.16c-1.36-1.12-2.61-2.35-3.87-3.58a.78.78,0,0,1,0-1.1.78.78,0,0,1,1.1,0Z"/>
    <g>
      <path class="cls-2" d="M1411.63,215.05a26,26,0,0,0,2-5.7,23.37,23.37,0,0,0-1.53-12.88c-1.25-3.24-2-3.42-8.61-13-4.78-6.89-5.68-8.64-6.33-11-.75-2.71-2.07-7.55.65-11.12,2.39-3.13,6.47-3.45,7.42-3.5,6.89-.36,11.77,6.2,12.76,7.53,6.93,9.3,3.81,21.58,3.39,23.24a61.71,61.71,0,0,1-4.48,11.78c-.66,1.28-.93,1.64-1.41,2.78-.88,2-1.54,5.93-2.94,9.76A19.67,19.67,0,0,1,1411.63,215.05Z"/>
      <path d="M1411.27,216c-.3,0-.82-.84-.6-1.22l0-.16,0-.08,0-.11.1-.21.18-.42.35-.83c.22-.56.42-1.12.59-1.69a18.33,18.33,0,0,0,.73-3.47,20.34,20.34,0,0,0-.52-7.07,26.56,26.56,0,0,0-1.08-3.42,15,15,0,0,0-1.56-3.13c-1.35-2-2.93-4-4.38-6s-2.92-4.07-4.35-6.13a56.85,56.85,0,0,1-4.07-6.53,19.54,19.54,0,0,1-1.31-3.78,21.56,21.56,0,0,1-.72-3.92,11.87,11.87,0,0,1,.33-4.21,9.2,9.2,0,0,1,2.13-3.86,10.2,10.2,0,0,1,3.6-2.43,13.63,13.63,0,0,1,4.1-.89,12.83,12.83,0,0,1,4.19.52,15.5,15.5,0,0,1,3.72,1.76,22,22,0,0,1,5.69,5.49,23.82,23.82,0,0,1,3.52,7,28.1,28.1,0,0,1,1.18,7.64,35.39,35.39,0,0,1-.65,7.63,60.17,60.17,0,0,1-2,7.33c-.42,1.2-.85,2.39-1.33,3.56l-.73,1.75-.39.87-.2.43-.1.22,0,.11,0,0s0,0,0-.05a.58.58,0,0,0,0-.29l-.11.42a29.24,29.24,0,0,0-1.59,3.41c-.39,1.16-.7,2.43-1,3.68s-.68,2.54-1.08,3.81c-.2.63-.42,1.26-.65,1.89l-.37.94-.2.47-.1.24-.06.13,0,.08,0,.07,0,.05-.06.09a1,1,0,0,1-.32.26A1,1,0,0,1,1411.27,216Zm.72-1.87a1,1,0,0,0-.82,0,1.17,1.17,0,0,0-.31.25l-.06.08v0s0,0,0,0l0,0,0-.09.09-.2.19-.43.35-.88c.22-.59.43-1.19.62-1.8.4-1.21.74-2.44,1.08-3.7s.65-2.52,1.1-3.82a20.94,20.94,0,0,1,1.79-3.61l-.1.42a1.18,1.18,0,0,1,.1-.4l.06-.12.05-.1.11-.2.21-.41.41-.82.79-1.68c.5-1.12,1-2.26,1.43-3.41a36.11,36.11,0,0,0,2-7.09,29.17,29.17,0,0,0-1-14.36,21.25,21.25,0,0,0-3.46-6.18,20.67,20.67,0,0,0-5.22-4.68,13,13,0,0,0-3.08-1.33,10.33,10.33,0,0,0-3.22-.3,9.07,9.07,0,0,0-5.77,2.43c-2.95,2.92-1.74,8.44-.12,12.59a54.68,54.68,0,0,0,3.77,6.23c1.38,2.07,2.8,4.12,4.22,6.16s2.9,4,4.34,6.17a16.74,16.74,0,0,1,1.73,3.6,29.19,29.19,0,0,1,1.12,3.73,22.51,22.51,0,0,1,.44,7.81,20.86,20.86,0,0,1-.87,3.85c-.2.62-.42,1.23-.67,1.83l-.39.89-.2.44-.1.21-.05.1v0s0,.12,0-.1C1412.82,214.92,1412.29,214.09,1412,214.12Z"/>
    </g>
    <path d="M1410.79,166.67a38,38,0,0,1,4.37,8.74A34.52,34.52,0,0,1,1417,185a64.25,64.25,0,0,1-.33,9.7,54.56,54.56,0,0,1-1.9,9.5.79.79,0,0,1-1.52-.39,69.72,69.72,0,0,0,1.36-9.3,63.87,63.87,0,0,0-.07-9.38c-.1-1.56-.2-3.1-.41-4.62a33.45,33.45,0,0,0-1-4.53,34.06,34.06,0,0,0-3.72-8.51.78.78,0,0,1,1.31-.84Z"/>
    <path class="cls-4" d="M1211.83,227.18c.14-.76,7.75.47,15.32.71a94.43,94.43,0,0,0,34-5.31c21.57-7.87,33.8-23.14,37.53-27.93a88.71,88.71,0,0,0,14.61-27.85c-1.57,1.44-4.77,4-7.92,4.15-.56,0-1.62,0-2-.59s.09-1.83.58-2.69c3-5.31,9-8.88,11.37-10.19,1.87-1,3-1.52,4.2-1.2,1.46.38,2.3,1.71,3.49,4.12.9,1.84,5.83,11.86,3.85,13.09a1.06,1.06,0,0,1-.8.07c-3.49-.57-6.42-4.33-7.2-5.38a93.14,93.14,0,0,1-22.18,38.11,87.77,87.77,0,0,1-42.33,23.42c-16.13,3.85-27.8,1.81-30.51,1.29C1218.16,229.93,1211.7,227.89,1211.83,227.18Z"/>
    <g>
      <path class="cls-2" d="M1116.25,155.19c.16-.06-1.58-2.65-1.19-5.63.26-2,1.47-4.48,8.73-9.16a120.45,120.45,0,0,1,11.78-6.55c8.61-4.34,10.53-4.94,12.36-7.7.6-.9,3.13-4.7,1.9-8.88-1.34-4.53-6.15-6.35-7.13-6.69-8.24-2.86-16.89,4.39-18.77,6-8.09,6.78-9.78,16.1-10.61,20.65a26.33,26.33,0,0,0,0,10.89C1114.23,152.11,1116.08,155.26,1116.25,155.19Z"/>
      <path d="M1115.89,154.26c-.71.39-.65,1-.63.9a1.86,1.86,0,0,0,0,.2v0l0-.06-.1-.22-.22-.47c-.14-.33-.28-.67-.4-1a11.08,11.08,0,0,1-.52-2.17,7.86,7.86,0,0,1,0-2.32,6.57,6.57,0,0,1,.78-2.24,13.85,13.85,0,0,1,2.82-3.35,38.14,38.14,0,0,1,3.27-2.61,112.11,112.11,0,0,1,14.12-8.26c2.4-1.24,4.85-2.44,7.19-3.68a17.23,17.23,0,0,0,3.15-2,6.87,6.87,0,0,0,1.14-1.26,14.48,14.48,0,0,0,1-1.56,8.5,8.5,0,0,0,.85-6.69,8.93,8.93,0,0,0-4.67-4.9,11.57,11.57,0,0,0-7-1.15,20.81,20.81,0,0,0-7.11,2.61,35.13,35.13,0,0,0-6.3,4.61,26.87,26.87,0,0,0-4.81,6.1c-2.68,4.49-3.93,9.79-4.61,15a26.92,26.92,0,0,0-.1,3.91,22.48,22.48,0,0,0,.45,3.85,25.7,25.7,0,0,0,1.13,3.72c.24.6.5,1.2.78,1.78.14.29.29.57.44.84s.15.27.23.39l.1.15s0,0,0,0l0,0a1,1,0,0,0-.4-.2A.83.83,0,0,0,1115.89,154.26Zm.72,1.86a1.09,1.09,0,0,1-.63,0,1,1,0,0,1-.45-.24l-.11-.11a2.25,2.25,0,0,1-.15-.19,3.1,3.1,0,0,1-.18-.26c-.11-.17-.2-.33-.29-.49-.17-.32-.34-.63-.49-1-.3-.64-.58-1.28-.83-1.94a26.68,26.68,0,0,1-1.2-4,25,25,0,0,1-.21-8.36c.15-1.38.4-2.74.66-4.07s.57-2.68.93-4a36.89,36.89,0,0,1,3-7.73,29.23,29.23,0,0,1,5-6.72,36.55,36.55,0,0,1,6.6-5.14,23.43,23.43,0,0,1,7.94-3.13A14.3,14.3,0,0,1,1145,110a13.83,13.83,0,0,1,3.67,2.61,9.83,9.83,0,0,1,2.8,8.65,13.36,13.36,0,0,1-1.5,4.25,15.49,15.49,0,0,1-1.19,1.87,9.93,9.93,0,0,1-1.6,1.71,19.91,19.91,0,0,1-3.68,2.3c-2.45,1.24-4.87,2.38-7.29,3.58a108.56,108.56,0,0,0-14,7.86,35,35,0,0,0-3.11,2.38,12,12,0,0,0-2.43,2.76,5.24,5.24,0,0,0-.63,3.28,8.74,8.74,0,0,0,.4,1.76,7.72,7.72,0,0,0,.33.87l.19.45.11.25.07.17,0,.18a1.79,1.79,0,0,1,0,.25C1117.28,155.09,1117.34,155.72,1116.61,156.12Z"/>
    </g>
    <g>
      <path class="cls-2" d="M1113,150.73c-1.34-2-2.23-3.18-2.48-3.6-2-3.25-2.76-5.79-5.38-10.22-2.45-4.16-5.66-9.46-11.63-13.67-3-2.09-5.92-4.12-9.89-3.79-3.18.27-7.59,2.09-8.88,6a8.89,8.89,0,0,0,.73,6.54c1.84,3.76,5.34,5.26,11.06,7.71,11.71,5,14.32,5.93,18.47,8.15a66.15,66.15,0,0,1,11.09,7.47C1115.39,154.23,1114.32,152.65,1113,150.73Z"/>
      <path d="M1112.18,151.29a48.57,48.57,0,0,1-3.82-5.88c-1.09-2.08-2-4.14-3.14-6.1a54.16,54.16,0,0,0-7.74-11,32,32,0,0,0-5.08-4.26,18.52,18.52,0,0,0-5.65-3,8.92,8.92,0,0,0-3-.24,11,11,0,0,0-3,.7,8,8,0,0,0-4.38,3.59,6.7,6.7,0,0,0,0,5.5,9.12,9.12,0,0,0,3.82,4.56,45.54,45.54,0,0,0,6,3l6.29,2.82,6.3,2.8c2.09.95,4.23,1.89,6.29,3a67.67,67.67,0,0,1,11.65,7.69l-1.45,1.3Zm1.65-1.13,3.09,4.58a1,1,0,0,1-1.44,1.31h0a63.71,63.71,0,0,0-11.22-7.62c-4-2.13-8.34-3.66-12.59-5.42l-6.39-2.6a46.37,46.37,0,0,1-6.41-3,13.39,13.39,0,0,1-3-2.4,11.76,11.76,0,0,1-2.07-3.29,10.77,10.77,0,0,1-.87-3.85,8.16,8.16,0,0,1,.88-4,9.29,9.29,0,0,1,2.58-3.13,12.87,12.87,0,0,1,3.41-1.85,13.65,13.65,0,0,1,3.75-.81,11.53,11.53,0,0,1,3.88.39,21,21,0,0,1,6.46,3.47,34.67,34.67,0,0,1,5.38,4.69,56.69,56.69,0,0,1,7.9,11.63c1.11,2.06,2,4.2,3,6.21A48.36,48.36,0,0,0,1113.83,150.16Z"/>
    </g>
    <path d="M1084.35,128.48a75.86,75.86,0,0,1,8.63,4.25,60.77,60.77,0,0,1,8,5.42,69.76,69.76,0,0,1,7,6.68,64.66,64.66,0,0,1,5.94,7.57.62.62,0,0,1-.17.87.64.64,0,0,1-.86-.14,77.51,77.51,0,0,0-6.13-7.15,71.68,71.68,0,0,0-7-6.28,84.13,84.13,0,0,0-7.58-5.55,67.53,67.53,0,0,0-8.27-4.52.63.63,0,0,1-.32-.83A.62.62,0,0,1,1084.35,128.48Z"/>
    <path d="M1134.52,119.2a74.41,74.41,0,0,0-7.21,6.52A65.17,65.17,0,0,0,1121,133a32.52,32.52,0,0,0-4.18,8.43,27.08,27.08,0,0,0-1.13,4.64,33.36,33.36,0,0,0-.31,4.8.63.63,0,0,1-1.26,0,36.39,36.39,0,0,1,.82-10,24.11,24.11,0,0,1,4.3-9.18,57.63,57.63,0,0,1,6.86-7.25,64.93,64.93,0,0,1,7.72-6.23.58.58,0,0,1,.81.16A.57.57,0,0,1,1134.52,119.2Z"/>
    <g>
      <path class="cls-2" d="M590.39,188.18a55.29,55.29,0,0,0-5.13-3.27,23,23,0,0,0-4.69-2.29c-1.54-.47-2.22-.39-7.74-.55-3.64-.1-5.47-.16-6.11-.43-3-1.27-3.08-3.53-5.89-4.15-2.23-.49-3.4.66-4.37-.22-1.33-1.22.46-3.83-.87-5.23s-3.63.38-5.34-1-.18-3.85-1.86-5.78c-2.14-2.46-6.94-1.05-7.31-2.51-.21-.81,1.28-1.28,1.53-2.94s-.81-2.9-1.53-3.82c-.41-.53-3-3.85-6.11-3.49-2.09.24-2.19,1.87-4.47,2.18-2,.28-2.49-.94-5.24-1.31a9.83,9.83,0,0,0-6.65,1.31A9.23,9.23,0,0,0,514.9,160a5.58,5.58,0,0,0-3.93.54c-.35.22-1.1.74-2.4,3.06-1.77,3.16-1.3,3.85-2.18,4.47-1.85,1.31-5.5-.62-9.27-2.62-4.42-2.34-5.29-3.68-7.09-3.27-2.07.47-1.77,2.42-4.91,4.14a39.6,39.6,0,0,1-5.67,1.86c-3.3,1-4,1.07-4.26,1.74-.58,1.42,1.11,4,3.27,4.91,1.54.61,2.6,0,3.28.88.89,1.09-.46,2.65.32,3.6,1.08,1.29,4.3-.84,6,.65,1,.91.23,2,1.2,3.05,1.79,1.89,5.49-.77,7.75,1.1,1.52,1.25.59,3,2.4,4.25,1.29.86,2.14.17,3.71,1.2s1.18,1.88,2.4,2.4c1.49.64,2.38-.52,4.36-.11,1.44.3,1.52,1,2.84,1.64,3.15,1.44,5.3-1.59,8.73-.66,2.83.77,2.42,3.13,5.12,3.71,2.9.63,3.68-2,8-2.18,3.21-.13,4,1.31,6.32.44,2-.78,2.21-2.21,4.15-2.51s2.39.84,4.25,1c2.56.18,4-1.77,7-3.82a26.27,26.27,0,0,1,9-3.93c1.58-.32,4.26-.64,13.09,1.75,5.42,1.47,6.68,2.2,11.78,3.82,8.94,2.83,10,2.11,19.31,4.91,5.62,1.67,9.7,3.25,14,4.91,6.91,2.67,12.7,5.29,17.12,7.41a5.78,5.78,0,0,1,2-3.16c1.32-1,2.58-.85,3.71-2.07a4.76,4.76,0,0,0,1.09-2.29,150.26,150.26,0,0,0-14-7.86c-7.4-3.66-18.16-8.88-32.83-11.45-7.45-1.31-11-.7-17.95-1.53a20.2,20.2,0,0,1-8.51-2.92c-1.87-1.18-4-2.5-4.67-4.89-.8-2.7,1-3.94.14-6.63-.57-1.75-1.48-1.61-4-4.51-2-2.26-4.08-4.7-4.21-7.85-.11-2.47,1.57-2.88,1.16-4.51-.68-2.67-4.87-1.84-8.36-5.45-2.62-2.71-1.47-4.41-4.15-6.69a10.47,10.47,0,0,0-8.29-2.4c-4,.73-4.7,4-7.93,3.7-2.35-.19-2.6-2-5.09-2-2.66-.08-3.24,1.92-6,2.25-2.51.31-3.21-1.24-7.35-2.83a21.37,21.37,0,0,0-10.4-1.6c-3.93.53-4.44,2.2-8.29,3.12a18.85,18.85,0,0,1-11.2-1,13.66,13.66,0,0,0,3.71,6.1c2.29,2.11,6.12,4,10.18,6a5.74,5.74,0,0,1,3,2.4c.79,1.52.18,2.79,1.1,3.71s2.23.62,3.05.58c1.91-.09,4.75.69,8.65,4.73"/>
      <path d="M589.81,189a58.5,58.5,0,0,0-5.27-3.33,16.12,16.12,0,0,0-5.44-2.32c-.93-.12-2-.12-3.05-.15l-3.18-.08-3.18-.1-1.63-.09a5.73,5.73,0,0,1-1.88-.38,8.41,8.41,0,0,1-2.88-2.1,5.9,5.9,0,0,0-2.07-1.72,4.16,4.16,0,0,0-1.23-.28,5,5,0,0,0-1.32.08c-.25,0-.5.09-.84.13a2.81,2.81,0,0,1-1.22-.09,2.35,2.35,0,0,1-1.15-.8,2.7,2.7,0,0,1-.53-1.18,6.61,6.61,0,0,1,0-1.9,6,6,0,0,0,.07-1.35.84.84,0,0,0-.29-.62,1.28,1.28,0,0,0-.82-.14,7.29,7.29,0,0,1-3.62-.23,3.38,3.38,0,0,1-1.64-1.59,4.81,4.81,0,0,1-.43-2,4.92,4.92,0,0,0-.46-2.53,3.17,3.17,0,0,0-1.94-1.22,17.85,17.85,0,0,0-3-.39,4.86,4.86,0,0,1-2-.51,2.33,2.33,0,0,1-.36-.28,1.14,1.14,0,0,1-.3-.4,1.68,1.68,0,0,1-.23-1.05,2.41,2.41,0,0,1,.65-1.28,4.05,4.05,0,0,0,.75-1,1.77,1.77,0,0,0,.15-1,4.83,4.83,0,0,0-1.15-2.25,8,8,0,0,0-4.33-3.22,3.41,3.41,0,0,0-1.15,0,2.23,2.23,0,0,0-1,.45,12.56,12.56,0,0,1-1.37,1,4.89,4.89,0,0,1-1.92.66,4.83,4.83,0,0,1-2.06-.15c-.65-.21-1.13-.46-1.57-.64a7.86,7.86,0,0,0-11,5.3,1.2,1.2,0,0,1-1.37.86,4.53,4.53,0,0,0-2.85.27,5.61,5.61,0,0,0-1.92,2.27,17.35,17.35,0,0,0-1.49,3.11c-.1.28-.17.54-.32.92a3.32,3.32,0,0,1-.33.65,2.56,2.56,0,0,1-.58.6,3.8,3.8,0,0,1-2.53.72,11.75,11.75,0,0,1-4-1.11c-1.18-.52-2.3-1.09-3.4-1.67s-2.22-1.18-3.29-1.83l-1.57-1a7.24,7.24,0,0,0-1.37-.71,1.15,1.15,0,0,0-.47-.06,1.93,1.93,0,0,0-.52.11,2.1,2.1,0,0,0-.87.78,13.31,13.31,0,0,1-1.27,1.53,8.73,8.73,0,0,1-1.66,1.33l-.45.27a5,5,0,0,1-.52.26c-.34.15-.65.26-1,.37-.61.21-1.21.4-1.81.58l-3.55,1-1.75.52a6.47,6.47,0,0,0-.75.26l-.17.09a.59.59,0,0,0,.06-.08,1.47,1.47,0,0,0,.12.72,4.56,4.56,0,0,0,3.06,2.67,6.8,6.8,0,0,0,.77.08,5.44,5.44,0,0,1,1.22.19,2.52,2.52,0,0,1,1.41,1.11,2.83,2.83,0,0,1,.4,1.59c0,.9-.27,1.54-.23,1.75s0,0-.06-.08,0,0-.06,0,0,0,.13,0a7.88,7.88,0,0,0,1.51-.17,9,9,0,0,1,2.16-.15,3.61,3.61,0,0,1,2.53,1.27,3.17,3.17,0,0,1,.61,1.45c.06.42.07.71.11.89a.57.57,0,0,0,.12.31.46.46,0,0,0,.12.12.5.5,0,0,0,.14.1,2.25,2.25,0,0,0,1.1.14,23.86,23.86,0,0,1,3.87-.28,4.36,4.36,0,0,1,2.39.91,4.16,4.16,0,0,1,1.43,2.2c.37,1.54.44,1.75,1.17,2.14a5.39,5.39,0,0,0,1.47.27,5.31,5.31,0,0,1,2.24,1,5.15,5.15,0,0,1,.92.84,9.2,9.2,0,0,1,.63.89,1,1,0,0,0,.25.31,1.18,1.18,0,0,0,.36.14,2.88,2.88,0,0,0,1.23-.17,6,6,0,0,1,2.34-.15,5.44,5.44,0,0,1,1.21.32,4.74,4.74,0,0,1,1.11.67,4.2,4.2,0,0,0,1.23.83,3.56,3.56,0,0,0,2.66-.06,13.39,13.39,0,0,1,4-.94,6.5,6.5,0,0,1,2.3.38,5.39,5.39,0,0,1,2.06,1.3c.55.57.92,1.13,1.23,1.47a2.2,2.2,0,0,0,.94.65,2.67,2.67,0,0,0,1.17.14,3.56,3.56,0,0,0,1.25-.47,13,13,0,0,1,3.75-1.57,11,11,0,0,1,4.23-.05c.69.13,1.35.34,1.83.45a2.45,2.45,0,0,0,1.2,0,3.65,3.65,0,0,0,1.19-.54c.37-.25.72-.64,1.32-1.14a4.88,4.88,0,0,1,4.89-.75,10.65,10.65,0,0,0,1.53.6,3.25,3.25,0,0,0,1.24,0,6.82,6.82,0,0,0,2.6-1.48c.94-.74,2-1.56,3-2.27a28.08,28.08,0,0,1,7-3.35,17.17,17.17,0,0,1,4-.82,21.47,21.47,0,0,1,4,.23,68.2,68.2,0,0,1,7.39,1.58c2.4.63,4.83,1.36,7.17,2.2a101.48,101.48,0,0,0,14,4.09c2.39.49,4.86,1,7.27,1.69s4.78,1.37,7.15,2.16c4.73,1.58,9.31,3.39,13.91,5.25s9.11,3.9,13.56,6.06l-1.84.82a8,8,0,0,1,1.41-2.83,6.3,6.3,0,0,1,2.68-1.91,4.56,4.56,0,0,0,1.86-1,3.17,3.17,0,0,0,.82-1.69l.58,1.32a168.19,168.19,0,0,0-21.73-11.6,104.83,104.83,0,0,0-23.35-7.45q-3-.6-6-.9c-2-.2-4.06-.29-6.14-.37s-4.18-.22-6.26-.46a22.85,22.85,0,0,1-6.3-1.49,20.51,20.51,0,0,1-2.93-1.46,27.55,27.55,0,0,1-2.68-1.82,8.66,8.66,0,0,1-2.28-2.65,6.16,6.16,0,0,1-.71-3.59c.16-1.23.56-2.16.57-3a3.42,3.42,0,0,0-.69-2.2c-.53-.58-1.49-1.32-2.21-2.09s-1.43-1.58-2.11-2.38a13.82,13.82,0,0,1-3.21-5.78,8.28,8.28,0,0,1-.19-1.74,5.08,5.08,0,0,1,.35-1.87c.23-.58.59-1.08.75-1.43a1,1,0,0,0,.08-.82c-.14-.6-.79-1-1.72-1.37s-1.94-.69-2.93-1.17a10.82,10.82,0,0,1-5-4.49c-.55-1-.79-2.11-1.19-2.88a5.84,5.84,0,0,0-1.76-2,10,10,0,0,0-5.23-2,7.34,7.34,0,0,0-2.73.31,7.44,7.44,0,0,0-2.42,1.34,11.11,11.11,0,0,1-2.79,1.87,4.46,4.46,0,0,1-1.87.3,4.81,4.81,0,0,1-1.85-.4,8.5,8.5,0,0,1-1.47-.9,3.69,3.69,0,0,0-1.11-.6,3.5,3.5,0,0,0-1.22-.13,3.1,3.1,0,0,0-1.18.29c-.75.32-1.58,1.08-2.73,1.54a5.78,5.78,0,0,1-3.62.27,15.7,15.7,0,0,1-3-1.46,22.88,22.88,0,0,0-2.7-1.27,23.75,23.75,0,0,0-5.78-1.53,14.74,14.74,0,0,0-5.78.33,12.13,12.13,0,0,0-2.63,1.17,15.38,15.38,0,0,1-3,1.34,16.69,16.69,0,0,1-6.5.69,24,24,0,0,1-6.3-1.44l1.27-1.21a14.33,14.33,0,0,0,2.1,4.19,12.84,12.84,0,0,0,3.47,3.11,91.53,91.53,0,0,0,8.81,4.68,5.29,5.29,0,0,1,3,4.81c.08.84.19,1,.63,1.19a5.1,5.1,0,0,0,2.08.08,9.5,9.5,0,0,1,5.28,1.66,22.8,22.8,0,0,1,4,3.37,1,1,0,0,1,0,1.41,1,1,0,0,1-1.42,0h0a20.36,20.36,0,0,0-3.66-3.07,7.44,7.44,0,0,0-4.16-1.36,6.61,6.61,0,0,1-2.9-.23,2.93,2.93,0,0,1-1.42-1.24,4.18,4.18,0,0,1-.42-1.6,4,4,0,0,0-.52-2,3.92,3.92,0,0,0-1.51-1.3,92.41,92.41,0,0,1-8.94-4.77,14.93,14.93,0,0,1-4-3.58,16.31,16.31,0,0,1-2.39-4.77,1,1,0,0,1,.63-1.22,1,1,0,0,1,.64,0,17.8,17.8,0,0,0,11.54.74,13.58,13.58,0,0,0,2.66-1.19,13.41,13.41,0,0,1,3-1.32,16.83,16.83,0,0,1,6.54-.32,25.88,25.88,0,0,1,6.19,1.69,23.42,23.42,0,0,1,2.91,1.37,14.9,14.9,0,0,0,2.59,1.3,4,4,0,0,0,2.46-.21c.8-.3,1.53-1,2.66-1.52a5.41,5.41,0,0,1,1.82-.45,5.61,5.61,0,0,1,1.85.21,5.51,5.51,0,0,1,1.62.85,7,7,0,0,0,1.16.72,3.16,3.16,0,0,0,2.34.06,10.25,10.25,0,0,0,2.33-1.6,9.3,9.3,0,0,1,3-1.65,9.17,9.17,0,0,1,3.4-.39,11.85,11.85,0,0,1,6.22,2.36,7.61,7.61,0,0,1,2.29,2.63c.53,1.09.74,2.07,1.18,2.85a7.52,7.52,0,0,0,1.74,2.14,10.23,10.23,0,0,0,2.38,1.54c.87.43,1.81.73,2.83,1.13a6.9,6.9,0,0,1,1.58.83,3.24,3.24,0,0,1,1.23,1.7,2.83,2.83,0,0,1-.17,2.18c-.29.59-.55.94-.69,1.32a3.25,3.25,0,0,0-.21,1.18,6,6,0,0,0,.16,1.32,12.12,12.12,0,0,0,2.84,4.94c.66.78,1.33,1.56,2,2.25.34.36.7.69,1.08,1a15,15,0,0,1,1.23,1.14,4.58,4.58,0,0,1,.92,1.72,5.5,5.5,0,0,1,.27,1.85,29.68,29.68,0,0,1-.56,3.13,4.2,4.2,0,0,0,.5,2.41,6.52,6.52,0,0,0,1.77,2,25.08,25.08,0,0,0,2.46,1.65,18.3,18.3,0,0,0,2.63,1.29,20.64,20.64,0,0,0,5.76,1.31c2,.23,4.06.34,6.12.41s4.16.15,6.26.34,4.19.49,6.25.89a107.53,107.53,0,0,1,23.91,7.46c3.83,1.69,7.55,3.49,11.27,5.41s7.32,4,10.86,6.23a1.28,1.28,0,0,1,.57,1.31v0a5.8,5.8,0,0,1-1.49,3,4.94,4.94,0,0,1-1.43,1c-.51.25-1,.39-1.32.54a3.6,3.6,0,0,0-1.6,1.14,5.48,5.48,0,0,0-.92,1.91,1.31,1.31,0,0,1-1.62.91l-.21-.07h0q-6.63-3.17-13.45-5.9c-4.55-1.81-9.15-3.59-13.77-5.1-2.31-.75-4.66-1.45-7-2.07s-4.7-1.12-7.13-1.61a102.07,102.07,0,0,1-14.35-4.21c-2.3-.82-4.59-1.51-6.95-2.13A64.38,64.38,0,0,0,570.3,187a18.15,18.15,0,0,0-3.4-.21,14,14,0,0,0-3.26.69,25.22,25.22,0,0,0-6.29,3c-1,.63-1.88,1.36-2.87,2.14a15.88,15.88,0,0,1-1.65,1.16,6.67,6.67,0,0,1-2.17.87,6,6,0,0,1-2.43-.06,11.46,11.46,0,0,1-1.92-.72,2,2,0,0,0-2.06.31c-.35.27-.84.8-1.49,1.25a6.19,6.19,0,0,1-2.16,1,5.24,5.24,0,0,1-2.46,0c-.71-.17-1.23-.34-1.75-.44a8.19,8.19,0,0,0-3.12,0,10.35,10.35,0,0,0-3,1.3,6.26,6.26,0,0,1-2.2.76,5.37,5.37,0,0,1-2.47-.28,5.08,5.08,0,0,1-2.07-1.42c-.5-.58-.81-1.06-1.13-1.37a2.72,2.72,0,0,0-1-.66,3.66,3.66,0,0,0-1.32-.21,10.89,10.89,0,0,0-3.19.8,7.83,7.83,0,0,1-2.17.4,5.45,5.45,0,0,1-2.37-.46,6.72,6.72,0,0,1-1.85-1.2,1.57,1.57,0,0,0-.46-.28,2.61,2.61,0,0,0-.57-.15,3.23,3.23,0,0,0-1.32.09,9.16,9.16,0,0,1-1,.22,3.92,3.92,0,0,1-1.4,0,3.66,3.66,0,0,1-1.32-.57,3.38,3.38,0,0,1-1-1,2.86,2.86,0,0,0-.87-1,2.61,2.61,0,0,0-1.12-.5l-.88-.12a4.17,4.17,0,0,1-1.25-.36,4.54,4.54,0,0,1-1.1-.72,4.27,4.27,0,0,1-.85-1.09,9,9,0,0,1-.65-2,1.51,1.51,0,0,0-.52-.86,1.81,1.81,0,0,0-1-.36,27.18,27.18,0,0,0-3.48.28,4.68,4.68,0,0,1-2.5-.47,2.85,2.85,0,0,1-.6-.43,3,3,0,0,1-.52-.55,3.37,3.37,0,0,1-.57-1.39c-.07-.43-.08-.76-.11-.94s-.05-.19-.09-.24a1,1,0,0,0-.7-.29,6.18,6.18,0,0,0-1.52.12,9.3,9.3,0,0,1-2.16.18,4.24,4.24,0,0,1-.77-.16,2.46,2.46,0,0,1-.83-.52,2.41,2.41,0,0,1-.76-1.72,5.15,5.15,0,0,1,.14-1.21,4.25,4.25,0,0,0,.1-.7c0-.15,0-.17,0-.17s0,0,0,0-.92,0-1.67-.19a6.71,6.71,0,0,1-3.82-2.36,7,7,0,0,1-1.16-2,4.09,4.09,0,0,1-.27-1.27,2.85,2.85,0,0,1,.33-1.59,2.29,2.29,0,0,1,.69-.75,3.11,3.11,0,0,1,.64-.34,10,10,0,0,1,1-.35l1.8-.52,3.53-1a13,13,0,0,0,3.13-1.19,7.51,7.51,0,0,0,2.3-2.27,7.13,7.13,0,0,1,.77-.85,3.94,3.94,0,0,1,1.16-.71,4.24,4.24,0,0,1,1.28-.27,3.48,3.48,0,0,1,1.34.17,9.36,9.36,0,0,1,1.93,1l1.56,1c1,.64,2.06,1.2,3.15,1.78s2.16,1.13,3.23,1.6a9.94,9.94,0,0,0,3.1.93,1.49,1.49,0,0,0,1-.22c.08-.07,0,0,.14-.23l.29-.83a19.83,19.83,0,0,1,1.7-3.53,13.92,13.92,0,0,1,1.12-1.67,7.23,7.23,0,0,1,.77-.82,4.09,4.09,0,0,1,.51-.4c.18-.11.34-.2.52-.29a6.88,6.88,0,0,1,4.37-.47l-1.37.86a10.39,10.39,0,0,1,3.92-5.82,11.13,11.13,0,0,1,10.22-1c.54.22,1,.46,1.36.57a2.53,2.53,0,0,0,1.07.07c.85-.1,1.23-.42,2.21-1.23a4.56,4.56,0,0,1,1.9-.88,5.6,5.6,0,0,1,2,0,7.87,7.87,0,0,1,3.32,1.61,13.25,13.25,0,0,1,2.38,2.48,6.89,6.89,0,0,1,1.6,3.38,4.14,4.14,0,0,1-.34,2.13,6.19,6.19,0,0,1-1.1,1.54c-.16.16-.19.32-.12.09s-.12-.43-.18-.42a4.36,4.36,0,0,0,1.07.19,20,20,0,0,1,3.31.46,5.34,5.34,0,0,1,3.23,2.18,4.77,4.77,0,0,1,.68,1.92,15.36,15.36,0,0,1,.11,1.68c.05,1.92.94,2,3.44,1.73A3.33,3.33,0,0,1,556,171a3.06,3.06,0,0,1,1.13,2.11,8,8,0,0,1-.08,1.82,4.57,4.57,0,0,0,0,1.25.5.5,0,0,0,.1.26c.05.07.1.1.12.1a3.53,3.53,0,0,0,1.08-.11,6.6,6.6,0,0,1,3.68.34,5.66,5.66,0,0,1,1.64,1c.46.41.82.83,1.17,1.2a6.37,6.37,0,0,0,2.19,1.62,3.59,3.59,0,0,0,1.22.22c.5,0,1,.07,1.54.09l3.15.11,3.17.09c1.06,0,2.11,0,3.27.18a11,11,0,0,1,3.32,1.05c1,.49,1.92,1,2.85,1.54a56.1,56.1,0,0,1,5.43,3.47,1,1,0,0,1,.23,1.4A1,1,0,0,1,589.81,189Z"/>
    </g>
    <g>
      <path class="cls-2" d="M608.46,195.74a67.45,67.45,0,0,0-10.83-2c-5.17-.54-12.42-1.29-20.29,1.09-6.48,2-6.27,3.88-15.57,8a72.58,72.58,0,0,1-15.27,5.09c-7.14,1.46-18.15,3.7-28.65-.14a30.15,30.15,0,0,0-11.79-1.9c-1.58.08-5.48.26-6,1.9-.39,1.32,1.65,3,2.91,4.07,4.16,3.47,6.69,2.44,8,4.8s-1,4.38.73,7.85a5.85,5.85,0,0,0,2.76,3.06c2.39,1,3.9-1.05,6.69-.15,2,.65,1.93,2,3.93,2.33s2.59-.85,4.36-.58c2.82.43,2.89,3.78,5.24,4.22s3.39-3,8.14-5.1c3.74-1.64,4.51-.09,7.57-1.6,5.42-2.66,7.77-9.85,7.71-9.89s-.81.84-.59,1.31c.41.88,4.35.88,6.26-1.16s.39-4.27,2.33-6.26c1.26-1.28,2.45-.9,4.21-1.74,3.75-1.78,4.66-6.49,5.39-8.15C577.34,197.09,584.35,193.79,608.46,195.74Z"/>
      <path d="M607.48,195.56a.73.73,0,0,0-.12.63.61.61,0,0,0,.33.38l-.45-.12-1-.23c-.64-.15-1.29-.3-1.93-.43-1.3-.26-2.6-.5-3.9-.68-2.6-.37-5.29-.61-7.91-.78a41.36,41.36,0,0,0-15.48,1.75,21,21,0,0,0-3.51,1.48c-1.11.6-2.19,1.34-3.34,2.08a55.77,55.77,0,0,1-7.2,3.92,75.58,75.58,0,0,1-15.4,5.39,82.68,82.68,0,0,1-16.16,2.25,43.4,43.4,0,0,1-8.27-.61,38,38,0,0,1-4.06-1l-2-.65c-.61-.22-1.21-.42-1.83-.59a29.28,29.28,0,0,0-7.55-1.12,28.17,28.17,0,0,0-3.81.21,10,10,0,0,0-1.7.35,2,2,0,0,0-.76.38c0-.06,0-.17,0-.08a2.2,2.2,0,0,0,.25.46,9.1,9.1,0,0,0,1.15,1.23,19,19,0,0,0,2.95,2.24,21,21,0,0,0,3.48,1.5,5.65,5.65,0,0,1,2.23,1.39,5.05,5.05,0,0,1,1.25,2.52,7.2,7.2,0,0,1-.07,2.49,12.07,12.07,0,0,0-.23,1.78,4,4,0,0,0,.23,1.5,8.79,8.79,0,0,0,.72,1.53,3.17,3.17,0,0,0,2.13,1.66,3.5,3.5,0,0,0,1.46-.16,12.3,12.3,0,0,1,2.21-.44,6.21,6.21,0,0,1,2.53.37,5.8,5.8,0,0,1,2.12,1.37,2.59,2.59,0,0,0,1.14.8,2.56,2.56,0,0,0,1.31.07,15.18,15.18,0,0,1,2.06-.58,4.53,4.53,0,0,1,2.71.53,5.64,5.64,0,0,1,1.85,1.73,18.43,18.43,0,0,0,1.11,1.5,1.29,1.29,0,0,0,2,.16c.87-.67,1.88-1.76,3-2.61a15.62,15.62,0,0,1,3.77-2.14,10.68,10.68,0,0,1,2.17-.62,13.9,13.9,0,0,1,2.17-.12,6,6,0,0,0,1.69-.2,7.21,7.21,0,0,0,1.6-.7,12.09,12.09,0,0,0,2.85-2.32,17.9,17.9,0,0,0,2.23-3.06,19.24,19.24,0,0,0,1.59-3.4.86.86,0,0,0,.14.74c-.71.32,1.68.28,1.46.2h0a1.47,1.47,0,0,0-.1.13.83.83,0,0,0-.15.24s0,.08,0-.12a.49.49,0,0,0-.13-.26c-.05,0,0,0,0,0a3.34,3.34,0,0,0,1.43.15,5.43,5.43,0,0,0,3.14-1.15c.84-.69,1-1.61,1.15-3a6.36,6.36,0,0,1,.58-2.24,4.79,4.79,0,0,1,1.64-1.85,6.41,6.41,0,0,1,2.18-.78,6.67,6.67,0,0,0,1.68-.59,6.75,6.75,0,0,0,2.56-2.4,16.2,16.2,0,0,0,1.6-3.44,17.21,17.21,0,0,1,.75-2,4.45,4.45,0,0,1,.63-1,4.86,4.86,0,0,1,.78-.85c2.31-2,5.11-2.74,7.79-3.28a54.75,54.75,0,0,1,8.13-.81c2.72-.11,5.42-.06,8.11,0l4,.19a3.29,3.29,0,0,1,1.35.4A10.15,10.15,0,0,0,607.48,195.56Zm2,.35c-.69.1-1.44.29-2.32.43a12.59,12.59,0,0,1-2.66.11l-4.07-.21c-2.66-.09-5.32-.14-8,0a52.44,52.44,0,0,0-7.85.76c-2.53.46-5.16,1.13-6.92,2.69a3.8,3.8,0,0,0-.58.63,3,3,0,0,0-.44.69,16.33,16.33,0,0,0-.66,1.79,17.66,17.66,0,0,1-1.78,3.83,8.55,8.55,0,0,1-3.25,3,7.75,7.75,0,0,1-2.1.74,4.73,4.73,0,0,0-1.59.55,2.93,2.93,0,0,0-1,1.13,4.64,4.64,0,0,0-.4,1.63,9.54,9.54,0,0,1-.38,2.17,4.63,4.63,0,0,1-1.36,2,7.26,7.26,0,0,1-4.24,1.68,4.79,4.79,0,0,1-2.51-.36,1.81,1.81,0,0,1-.44-.33,1.49,1.49,0,0,1-.38-.69,1.77,1.77,0,0,1,.15-1.09,3.27,3.27,0,0,1,.36-.62,2.47,2.47,0,0,1,.21-.27l.19-.19c-.18-.13,2.22-.14,1.49.23a1.17,1.17,0,0,1,.12.87,20.31,20.31,0,0,1-1.73,3.9,19.57,19.57,0,0,1-2.45,3.46,14,14,0,0,1-3.33,2.78,9,9,0,0,1-2.06.93,7.65,7.65,0,0,1-2.28.32,10.22,10.22,0,0,0-1.83.13,7.77,7.77,0,0,0-1.69.51,13,13,0,0,0-3.17,1.86c-1,.77-1.79,1.7-3,2.69a4.78,4.78,0,0,1-1.16.67,3.43,3.43,0,0,1-1.52.21,3.87,3.87,0,0,1-2.53-1.28,18.41,18.41,0,0,1-1.31-1.71,3.4,3.4,0,0,0-1-1,2.07,2.07,0,0,0-1.19-.22c-.36,0-.89.32-1.78.56a5.08,5.08,0,0,1-4.86-1.46,3.1,3.1,0,0,0-1.22-.79,3.44,3.44,0,0,0-1.42-.18,9.74,9.74,0,0,0-1.72.38,6.38,6.38,0,0,1-2.52.26,6,6,0,0,1-4.15-2.92,10.64,10.64,0,0,1-1-2.09,6.77,6.77,0,0,1-.41-2.44,14,14,0,0,1,.24-2.22,4.34,4.34,0,0,0,0-1.5,2.17,2.17,0,0,0-.51-1,3,3,0,0,0-1.17-.67,22,22,0,0,1-3.89-1.69,22.25,22.25,0,0,1-3.45-2.6,11.05,11.05,0,0,1-1.57-1.72,5,5,0,0,1-.66-1.33,2.76,2.76,0,0,1,.17-2,3.16,3.16,0,0,1,1.24-1.29,6.16,6.16,0,0,1,1.23-.55,12.84,12.84,0,0,1,2.23-.46,33.39,33.39,0,0,1,4.22-.2,31.72,31.72,0,0,1,8.29,1.29c.68.2,1.35.42,2,.67l1.84.62a35.81,35.81,0,0,0,3.74.92,40.85,40.85,0,0,0,7.74.64,80,80,0,0,0,15.66-2.07,71.63,71.63,0,0,0,14.94-5.1,52.51,52.51,0,0,0,7-3.7c1.11-.7,2.24-1.47,3.5-2.13a23.11,23.11,0,0,1,3.9-1.62,43.61,43.61,0,0,1,16.31-1.72c2.72.2,5.38.46,8.08.86,1.35.21,2.68.46,4,.74.66.14,1.32.3,2,.46l1,.25.52.14a1.61,1.61,0,0,1,.82.51A1.89,1.89,0,0,1,609.45,195.91Z"/>
    </g>
    <g>
      <path class="cls-2" d="M609.63,197.85A31.46,31.46,0,0,0,601.7,203c-3.45,3.22-3.24,4.76-6.4,6.83-1.92,1.26-1.94.66-8.15,3.42-4.23,1.88-5.26,2.63-6,3.86-1.13,2-.14,3-1.31,5-.82,1.39-1.68,1.48-5.6,3.7s-5.93,3.38-7.2,5.17c-1.47,2.06-.68,2.55-2.18,4.65-2.24,3.14-4.17,2.28-6.33,5.24a12.63,12.63,0,0,0-2.18,7,13.46,13.46,0,0,0,.36,3.49,2.85,2.85,0,0,1,2.26-1.09c1,.16,1.13,1.18,2.33,1.75a4.52,4.52,0,0,0,3,.07c2-.45,2.87-1.49,4.29-2.47,2.3-1.59,4.12-1.75,5.89-2.33,4.66-1.52,8.22-5.64,12.58-10.69,6.27-7.26,4.5-7.81,9.53-12.73,4.45-4.34,6.31-4.39,9.31-8.73,1.82-2.63,2.13-4.06,5-8a32.31,32.31,0,0,1,4.94-6c1.64-1.42,5.56-4.23,12.8-4.51a3.8,3.8,0,0,1-2.83-1.53c-.33-.55-.19-.85-.37-1.16C624.54,192.34,616.81,194.15,609.63,197.85Z"/>
      <path d="M610.09,198.74c-1.49.78-3,1.54-4.3,2.41a22.64,22.64,0,0,0-3.75,3,26.31,26.31,0,0,0-3.08,3.76,12.35,12.35,0,0,1-1.89,2,12.82,12.82,0,0,1-2.31,1.52c-.91.43-1.69.64-2.46.94s-1.53.58-2.29.9c-1.51.64-3,1.32-4.51,2a18,18,0,0,0-2,1.14,3.29,3.29,0,0,0-1.29,1.39,3.86,3.86,0,0,0-.42,1.93,6.13,6.13,0,0,1-.79,2.95,4.92,4.92,0,0,1-1,1.28,6.91,6.91,0,0,1-1.23.84c-.77.45-1.5.82-2.23,1.22-1.43.79-2.9,1.64-4.31,2.48a15.16,15.16,0,0,0-3.65,2.77,6,6,0,0,0-1,1.73c-.1.3-.19.68-.33,1.17a7.37,7.37,0,0,1-.62,1.41,10.79,10.79,0,0,1-1.78,2.28,9.9,9.9,0,0,1-2.35,1.62,7.88,7.88,0,0,0-1.81,1.19,7.41,7.41,0,0,0-1.3,1.65,12.12,12.12,0,0,0-1.12,8.68l-2.4-.67a5.66,5.66,0,0,1,1.59-1.2,3.05,3.05,0,0,1,2.73,0,3.57,3.57,0,0,1,1,.77c.21.22.34.38.46.49a1.58,1.58,0,0,0,.7.41,2.24,2.24,0,0,0,.92.05l.6-.1.34-.08.29-.08a6.32,6.32,0,0,0,2.16-1.17,17.76,17.76,0,0,1,2.69-1.82,15.21,15.21,0,0,1,3.11-1.18,21.37,21.37,0,0,0,2.71-.82,14,14,0,0,0,2.41-1.29c3.1-2.08,5.72-5.14,8.37-8.13a55,55,0,0,0,3.71-4.58c.56-.79,1.08-1.6,1.59-2.45s1-1.77,1.68-2.63a30.69,30.69,0,0,1,4.3-4.57c1.52-1.39,3.27-2.59,4.76-3.78a18.18,18.18,0,0,0,3.77-4.27c1-1.59,1.95-3.45,3.1-5.17s2.33-3.32,3.56-5a19.59,19.59,0,0,1,4.49-4.41,19.84,19.84,0,0,1,5.73-2.63,30,30,0,0,1,6.16-1l-.11,1.85a5.25,5.25,0,0,1-2.95-1.24,3,3,0,0,1-.93-1.68l0-.26s0,.06,0,.08,0,0-.12,0a5.81,5.81,0,0,0-2.22,0,22.56,22.56,0,0,0-2.5.5A47.29,47.29,0,0,0,610.09,198.74Zm-.92-1.77a48.75,48.75,0,0,1,10.17-3.92,22.12,22.12,0,0,1,2.74-.53,7.45,7.45,0,0,1,3.09.11,2.18,2.18,0,0,1,1,.67,1.67,1.67,0,0,1,.34.66c0,.21,0,.33.07.41a1.08,1.08,0,0,0,.35.61,3.7,3.7,0,0,0,1.9.79h0a.93.93,0,0,1-.13,1.84,20.1,20.1,0,0,0-10.92,3.25,17.48,17.48,0,0,0-4.07,4c-1.18,1.57-2.37,3.23-3.41,4.88s-1.88,3.44-3,5.23a20.22,20.22,0,0,1-4.1,4.82c-1.62,1.34-3.19,2.46-4.61,3.81a28.22,28.22,0,0,0-3.88,4.27c-1.05,1.51-2,3.41-3.16,5.12a59.42,59.42,0,0,1-3.79,4.86c-2.62,3-5.21,6.27-8.77,8.77a16.65,16.65,0,0,1-2.87,1.6,22.14,22.14,0,0,1-3,1,12.55,12.55,0,0,0-2.52,1,15.28,15.28,0,0,0-2.29,1.56,9.13,9.13,0,0,1-3.12,1.67l-.44.11-.39.09c-.28.05-.58.11-.89.14a5.14,5.14,0,0,1-2.07-.17,4.52,4.52,0,0,1-1.88-1.11,10.24,10.24,0,0,0-.75-.78c.07,0,0,0-.17.06a3.33,3.33,0,0,0-.8.62,1.43,1.43,0,0,1-2,0,1.41,1.41,0,0,1-.39-.69,15.16,15.16,0,0,1-.25-5.49A13.53,13.53,0,0,1,556.9,241a10.16,10.16,0,0,1,1.83-2.25,10.6,10.6,0,0,1,2.38-1.55,7.27,7.27,0,0,0,1.78-1.19,8.18,8.18,0,0,0,1.32-1.65,5.06,5.06,0,0,0,.4-.89c.1-.31.2-.75.37-1.24a8.37,8.37,0,0,1,1.55-2.55,17,17,0,0,1,4.32-3.26c1.47-.86,2.92-1.67,4.42-2.48l2.19-1.17a5.44,5.44,0,0,0,.85-.56,2.28,2.28,0,0,0,.54-.66,3.46,3.46,0,0,0,.49-1.85,6.48,6.48,0,0,1,.71-2.91,5.56,5.56,0,0,1,.92-1.29,7,7,0,0,1,1.17-.94,18.82,18.82,0,0,1,2.35-1.28c1.55-.74,3.08-1.4,4.66-2,.79-.32,1.59-.63,2.39-.91s1.65-.54,2.26-.82a10.63,10.63,0,0,0,1.88-1.23,9.61,9.61,0,0,0,1.56-1.62,28.83,28.83,0,0,1,3.33-3.95,24.57,24.57,0,0,1,4.11-3.23C606.16,198.49,607.68,197.73,609.17,197Z"/>
    </g>
    <g>
      <path class="cls-2" d="M647.59,180.84a23.6,23.6,0,0,1,3.93,8.29c1.79,7.17-.44,13-1.6,16-.59,1.5-4.24,10.74-10.77,12.8a12.79,12.79,0,0,1-3.78.58c-2.78-.08-3.91-1.23-6.54-1.89a15.63,15.63,0,0,0-6.84,0,20.76,20.76,0,0,0-9,3.93,22.21,22.21,0,0,0-1.45,3.63c-.49,1.62-.5,2.34-1.17,2.91-1,.82-2.06.33-3.63.44-3.14.22-5.39,2.67-6.4,3.78-2.4,2.61-1.25,3.75-3.64,6.69-1.09,1.34-2.62,2.4-5.67,4.51-3.71,2.56-4.14,2.29-5.38,3.78s-1.5,2.61-3.35,4.22c-1,.84-1.27.86-2.18,1.74a16.36,16.36,0,0,0-2.62,3.64,63.58,63.58,0,0,1-3.49,5.53,21,21,0,0,1-2.91,3.05c3.17-.47,5.77-.8,7.57-1,7.84-.94,8.49-.65,10.9-1.6,2.62-1,3.48-2,5.82-2s2.29.87,5.24,1.31c3.19.47,3.67-.56,10.18-1.46a3.43,3.43,0,0,0,1.89-.72c1.12-1,.7-2.26,1.46-3.2,1-1.28,3-.44,5.38-.73,4-.49,7.7-3.9,9.31-7.13,1.26-2.53.94-4.4,3-6.25,1.23-1.08,1.67-.74,2.77-1.75,2-1.87,1.82-4.23,2.76-7.56.65-2.32,1.55-3.88,3.34-7,2.92-5,5.18-6.12,7.86-9.6a29.2,29.2,0,0,0,5.67-14.7C655.18,191.15,649.66,183.44,647.59,180.84Z"/>
      <path d="M648.2,181.63a.68.68,0,0,0,.37-.25.77.77,0,0,0,.17-.51.61.61,0,0,0-.09-.28l.08.12.33.47c.21.31.42.63.62,1,.39.65.76,1.32,1.1,2a23.89,23.89,0,0,1,2.29,13.4,36.26,36.26,0,0,1-7,16.6,17.7,17.7,0,0,1-3.39,3.24,11.71,11.71,0,0,1-4.41,2,14.38,14.38,0,0,1-2.37.32,9.47,9.47,0,0,1-2.49-.22c-1.68-.36-3-1.13-4.24-1.48a11.65,11.65,0,0,0-3.94-.52,16,16,0,0,0-2,.21c-.71.11-1.42.22-2.07.38a19.63,19.63,0,0,0-7.41,3.51l.37-.44a21,21,0,0,0-1.37,3.47c-.19.62-.29,1.18-.55,2a3.45,3.45,0,0,1-.8,1.33,3.3,3.3,0,0,1-1.42.84,8,8,0,0,1-2.37.09A5.69,5.69,0,0,0,606,229a7.6,7.6,0,0,0-3,1.56,15.43,15.43,0,0,0-1.32,1.25,11.57,11.57,0,0,0-1.12,1.35,5.79,5.79,0,0,0-.69,1.46,16.12,16.12,0,0,1-.72,2,9.69,9.69,0,0,1-1.19,1.94,10.37,10.37,0,0,1-1.52,1.65,35.66,35.66,0,0,1-3.28,2.5c-1.08.76-2.18,1.54-3.34,2.27l-1.71,1a4.57,4.57,0,0,0-1.22,1,11.23,11.23,0,0,0-1,1.41,19.09,19.09,0,0,1-1.23,1.76,11.88,11.88,0,0,1-1.58,1.59,10.92,10.92,0,0,1-.88.68c-.28.2-.48.35-.68.52a10.55,10.55,0,0,0-2.18,2.75c-.66,1.1-1.42,2.28-2.13,3.41s-1.43,2.3-2.21,3.43a22.93,22.93,0,0,1-2.94,3.05L570.87,263c2.92-.39,5.83-.79,8.76-1.12l4.39-.44a25,25,0,0,0,4.09-.56,13.56,13.56,0,0,0,1.88-.71l2-.93a8.35,8.35,0,0,1,2.49-.71,7.57,7.57,0,0,1,2.66.13c3.11,1.35,5,1.64,7.93.8,1.44-.34,2.93-.64,4.4-.86l1.11-.15a4,4,0,0,0,.83-.17,1.32,1.32,0,0,0,.85-.76,7,7,0,0,0,.24-.89,4.12,4.12,0,0,1,.55-1.4,3,3,0,0,1,1.37-1.13,4.09,4.09,0,0,1,1.48-.27c.87,0,1.57.07,2.25.08a8.59,8.59,0,0,0,1.92-.16,12.06,12.06,0,0,0,6.54-4.39,11,11,0,0,0,1.92-3.51c.22-.66.41-1.38.7-2.14a7.32,7.32,0,0,1,1.31-2.18,6.72,6.72,0,0,1,2-1.58,7.31,7.31,0,0,0,.9-.42,3,3,0,0,0,.67-.55,6.33,6.33,0,0,0,1.57-3.43,37.6,37.6,0,0,1,1.08-4.37,23.61,23.61,0,0,1,1.92-4.13c.73-1.29,1.43-2.56,2.27-3.84a27.66,27.66,0,0,1,2.81-3.56c1-1.1,2.08-2.1,3-3.17a24.79,24.79,0,0,0,2.53-3.4,27.27,27.27,0,0,0,3.23-7.83,24.49,24.49,0,0,0,.75-8.38,25.49,25.49,0,0,0-.72-4.16,31.54,31.54,0,0,0-1.39-4,33,33,0,0,0-2-3.78c-.37-.61-.76-1.21-1.16-1.79l-.62-.87-.16-.21-.08-.1.09.07a.62.62,0,0,0,.52,0A.71.71,0,0,0,648.2,181.63ZM647,180a3,3,0,0,1,.71,0,1.67,1.67,0,0,1,.85.42,2.18,2.18,0,0,1,.26.29l.09.12.17.22c.23.3.44.61.66.92.43.62.83,1.26,1.22,1.9a33.9,33.9,0,0,1,2.07,4,32.44,32.44,0,0,1,1.48,4.29,27.35,27.35,0,0,1,.76,4.49,28.85,28.85,0,0,1-4.39,17.33,28.2,28.2,0,0,1-2.7,3.65c-1,1.14-2.07,2.16-3,3.2a24.61,24.61,0,0,0-2.61,3.34c-.77,1.17-1.49,2.46-2.2,3.72a21.61,21.61,0,0,0-1.77,3.83,31.83,31.83,0,0,0-1,4.17,13.38,13.38,0,0,1-.65,2.28,6.37,6.37,0,0,1-1.39,2.14,5,5,0,0,1-1,.84,7.67,7.67,0,0,1-1.08.54,4.84,4.84,0,0,0-1.38,1.13,5,5,0,0,0-.92,1.57c-.22.62-.4,1.32-.64,2.05a13.14,13.14,0,0,1-2.2,4.19,16.08,16.08,0,0,1-3.38,3.26,12.44,12.44,0,0,1-4.36,2,19.29,19.29,0,0,1-4.58.19,2,2,0,0,0-.67.11.7.7,0,0,0-.29.25,2.06,2.06,0,0,0-.22.65,7.19,7.19,0,0,1-.33,1.23,3.73,3.73,0,0,1-2.24,2.16,6,6,0,0,1-1.31.3l-1.07.17c-1.42.23-2.8.52-4.2.87-.71.17-1.43.36-2.26.49a9.2,9.2,0,0,1-2.51,0,13.05,13.05,0,0,1-2.41-.49c-.83-.27-1.52-.65-2-.74a5.36,5.36,0,0,0-1.71,0,5.71,5.71,0,0,0-1.71.53l-2,1a19.33,19.33,0,0,1-2.22.86,26.12,26.12,0,0,1-4.58.71l-4.35.49-8.65,1.19h0a1.46,1.46,0,0,1-1.65-1.25,1.48,1.48,0,0,1,.5-1.31,20,20,0,0,0,2.56-2.65c.71-1,1.38-2.17,2.07-3.25l2.07-3.31a13.58,13.58,0,0,1,2.78-3.42c.3-.25.64-.49.9-.67s.47-.34.69-.53a9.31,9.31,0,0,0,1.22-1.21,15.77,15.77,0,0,0,1.05-1.49,14,14,0,0,1,1.33-1.76,7.75,7.75,0,0,1,1.87-1.49l1.68-1c1.08-.68,2.15-1.42,3.24-2.17a34.58,34.58,0,0,0,3-2.28,8.11,8.11,0,0,0,1.17-1.25,7.57,7.57,0,0,0,.9-1.43,14.36,14.36,0,0,0,.62-1.72,8.66,8.66,0,0,1,1-2.1,13.16,13.16,0,0,1,1.42-1.7,17.07,17.07,0,0,1,1.58-1.46,10,10,0,0,1,4-2.06,8,8,0,0,1,2.32-.2,7.49,7.49,0,0,0,1.57,0,.72.72,0,0,0,.28-.16.91.91,0,0,0,.19-.36c.16-.46.33-1.2.53-1.85a23.8,23.8,0,0,1,1.57-3.89h0a1.28,1.28,0,0,1,.37-.43,22.24,22.24,0,0,1,8.39-3.9c.78-.17,1.52-.29,2.26-.4a21.69,21.69,0,0,1,2.33-.21,14.1,14.1,0,0,1,4.73.66c1.55.48,2.83,1.22,4,1.47a7.44,7.44,0,0,0,1.88.17,12,12,0,0,0,2-.25,11.72,11.72,0,0,0,6.53-4.36A33.83,33.83,0,0,0,651,197.29a21.81,21.81,0,0,0-.54-8.32A22.1,22.1,0,0,0,649,185a20.54,20.54,0,0,0-1-1.85c-.18-.31-.37-.6-.56-.89l-.3-.44-.07-.11a1.53,1.53,0,0,1-.25-.5,1.43,1.43,0,0,1,0-.74A1.94,1.94,0,0,1,647,180Z"/>
    </g>
    <path class="cls-5" d="M488.68,164.18c.49.26,1.23.68,2.11,1.24a45.08,45.08,0,0,1,6.62,5.45c2.56,2.39,2.71,2.71,4.51,4.22.47.4,1.72,1.44,3.42,2.69,1.18.88,2.25,1.61,3.12,2.18"/>
    <path class="cls-5" d="M489.41,180.76a11.43,11.43,0,0,0,3.78-.21,12,12,0,0,0,3.06-1.17"/>
    <path class="cls-5" d="M483,175.53c2.62.48,4.91,1,6.84,1.45a23.48,23.48,0,0,1,5.16,1.75c.52.25.95.49,1.24.65"/>
    <path class="cls-5" d="M496.25,179.38a53.65,53.65,0,0,1,7.05-.07c3.06.17,5,.54,7.35.87,3.19.45,5.93.59,11.41.87,1.72.09,3.54.17,17.46.3,12.53.11,13.9.08,16.29.65a28.62,28.62,0,0,0,11.64.51"/>
    <path class="cls-5" d="M482.14,168.47a14.45,14.45,0,0,0,3,1.46,19.08,19.08,0,0,0,5.89.87,63.86,63.86,0,0,1,7.18.81"/>
    <path class="cls-5" d="M514.79,160.4a44,44,0,0,1,7.2,3.27,49.24,49.24,0,0,1,7.86,5.53c2.87,2.48,3.26,3.45,5.45,4.36a24.5,24.5,0,0,1,3.85,1.53,21.27,21.27,0,0,1,3.57,2.76l4.07,3.56"/>
    <path class="cls-5" d="M529.63,155.38c.33.46.89,1.21,1.6,2.11,3.45,4.37,4.52,4.6,5.23,6.69s-.06,2.67.95,4.58a22.8,22.8,0,0,1,1.53,3c.32.8.33,1,.58,1.67a12.54,12.54,0,0,0,2,3.36"/>
    <path class="cls-5" d="M542.79,164.4a16.37,16.37,0,0,1,2.18,4.36c.55,1.68.32,1.94.73,3.06.85,2.35,2.55,3.15,5.31,5.6a40.59,40.59,0,0,1,4.33,4.48"/>
    <path class="cls-5" d="M507.59,166.51a9.82,9.82,0,0,0,3.27,2.11c2.15.81,3.5.38,7.49.14s6.26-.35,8.95.37a16.33,16.33,0,0,1,4.89,2.23"/>
    <path class="cls-6" d="M511.15,172.11a53,53,0,0,1,6.7,1.31,30.48,30.48,0,0,1,4.07,1.31,18,18,0,0,1,4.07,2.11c1.68,1.2,1.75,1.8,3.27,2.83a11.64,11.64,0,0,0,3.57,1.61"/>
    <path class="cls-5" d="M500.34,173.69c2.14.54,4,.88,5.43,1.11a52,52,0,0,0,9.6.73c2.48-.06,2.68-.26,4.37-.15a20.37,20.37,0,0,1,6.25,1.46"/>
    <path class="cls-5" d="M503.3,188.18a12.81,12.81,0,0,1,2.33-1.67c1.74-1,2.74-.95,4.8-1.67s2.12-1.16,4.51-2.19a29,29,0,0,1,5.39-1.69"/>
    <path class="cls-5" d="M513.12,183.54a5.69,5.69,0,0,0-1.53,3c-.16,1.06.14,1.59-.14,2.4s-.9,1.56-2.77,2.25"/>
    <path class="cls-5" d="M521.7,192.11a22.09,22.09,0,0,0,5.24-2.76c1.24-.9,1.69-1.44,4.07-3.28,1.5-1.16,2.27-1.75,3-2.25a17.06,17.06,0,0,1,7.28-2.46"/>
    <path class="cls-5" d="M549.77,181.46a12,12,0,0,1-4.14,4.25c-1.87,1.11-3.12,1.08-4.88,1.82a13.55,13.55,0,0,0-6.18,5.67"/>
    <path class="cls-5" d="M543.45,192a6.62,6.62,0,0,1,1.09-3c.51-.75.91-1,1.52-1.74a9.54,9.54,0,0,0,1.63-3.11"/>
    <path class="cls-5" d="M548,192.25c.89-1.31,1.71-2.36,2.33-3.12,1.65-2,2.56-3.1,4.15-3.93a18.39,18.39,0,0,1,2.32-.87c1.84-.64,3.35-1.16,4.37-1.5"/>
    <path class="cls-5" d="M504.37,211.8a12.21,12.21,0,0,1,6.8-1.47"/>
    <path class="cls-5" d="M502,209.89a12,12,0,0,1,2.62-.54,15.79,15.79,0,0,1,6.16.87c1.24.36,1.87.63,2.56.87,2.77,1,4.88.88,8.68.93,6.5.07,5.16.37,11,.38a89.18,89.18,0,0,0,9.65-.38,27.55,27.55,0,0,0,6.88-1.37,38.55,38.55,0,0,0,5-2.5c4.07-2.09,4.47-1.82,10-4.48a28.15,28.15,0,0,0,6.16-3.6,23.66,23.66,0,0,0,3.22-3.16"/>
    <path class="cls-5" d="M512.12,221.84a10.22,10.22,0,0,1,3.38-3.06,14.53,14.53,0,0,1,4.2-1.31c3.43-.74,3.42-.47,5.89-1a20.83,20.83,0,0,0,6.44-2.19,13.37,13.37,0,0,1,2.18-1.14,11.1,11.1,0,0,1,3.71-.76"/>
    <path class="cls-5" d="M520.79,226.75a7.64,7.64,0,0,1,1.64-2.3c1.28-1.2,2.61-1.55,4.69-2.23,0,0,1.74-.58,5-1.86,4-1.54,6.34-2.47,8.78-4.52A26.88,26.88,0,0,1,544.3,213a18,18,0,0,1,4.15-2"/>
    <path class="cls-5" d="M525.43,228.6a11.82,11.82,0,0,1,.82-2.35,13.13,13.13,0,0,1,5.89-5.89"/>
    <path class="cls-5" d="M539.15,229.78a18.42,18.42,0,0,1,1.68-2.47,19.54,19.54,0,0,1,4.8-4.22c3.84-2.58,3.7-5.13,8.58-11a52.06,52.06,0,0,1,7-6.9"/>
    <path class="cls-5" d="M561.92,251.67c.64-.78,1.65-2,2.94-3.38,2.95-3.21,4.92-4.88,8-7.74,2.6-2.44,5-4.66,7.85-7.75,3.38-3.61,4.63-5.81,8.07-8.07a24.56,24.56,0,0,1,4.3-2.25"/>
    <path class="cls-5" d="M615.88,201.2a47.7,47.7,0,0,0-12.78,9.89c-2.27,2.52-3.25,4.2-7.42,8.67-3.46,3.72-3.8,3.64-5.83,6.17-2.87,3.56-3,4.66-6.11,8.29-1.9,2.18-2.45,2.44-3.49,4a18.44,18.44,0,0,0-2.73,7.1"/>
    <path class="cls-5" d="M583.35,234.66a10.81,10.81,0,0,1-.43,5,10.44,10.44,0,0,1-1.2,2.46"/>
    <path class="cls-5" d="M567.75,230.67a35.9,35.9,0,0,0,7.7-1.31,25.91,25.91,0,0,0,8.12-3.49c2.45-1.66,2.65-2.31,4.86-3.76a21.79,21.79,0,0,1,8-3.17"/>
    <path class="cls-5" d="M581.5,219.65a21,21,0,0,0,3.33-.87c2.46-.86,3-1.56,5.56-2.78s3-1,6.87-2.56a63.94,63.94,0,0,0,6.41-3"/>
    <path class="cls-5" d="M559.63,249.93a9.82,9.82,0,0,1,1.63-2.84c1.75-2.1,3.87-2.76,6-3.71a34.23,34.23,0,0,0,7.2-4.36"/>
    <path class="cls-5" d="M564.7,236.67a45.08,45.08,0,0,1,5-.87c3.88-.46,4.88-.07,6.77-1,1.08-.53,1-.8,4-3.11,1.39-1.07,2.57-1.91,3.36-2.46"/>
    <path class="cls-5" d="M580.68,262.15a48.48,48.48,0,0,1,4.58-4.48,56.8,56.8,0,0,1,9.49-6.32c4.31-2.45,5.18-2.63,13.42-6.88,3.71-1.91,5.57-2.86,7.64-4a83.25,83.25,0,0,0,11.78-7.53c4.49-3.57,3.53-3.92,8.73-8.29s6.71-4.53,10-7.86a35.33,35.33,0,0,0,6.41-8.8"/>
    <path class="cls-5" d="M612.54,223.2a36.5,36.5,0,0,0,6.87,3.38,23.83,23.83,0,0,0,5,1.42,16.82,16.82,0,0,0,10.77-2.43"/>
    <path class="cls-5" d="M610.79,227.67a7.92,7.92,0,0,0,5.13,1c1.06-.19,1.69-.59,3.27-.87a13,13,0,0,1,3.39-.15"/>
    <path class="cls-5" d="M625.08,251.78a16.59,16.59,0,0,1,.11-5,19,19,0,0,1,2.18-5.83c1.74-3.29,2.59-3.29,4-6.33,1.11-2.33.84-2.8,1.8-4.91a20,20,0,0,1,4.61-6.3"/>
    <path class="cls-5" d="M629.39,245.24c.14-1.28.31-2.61.55-4a64.85,64.85,0,0,1,1.47-6.65"/>
    <path class="cls-5" d="M614.76,255.25a11.14,11.14,0,0,1,.61-4.07c.92-2.55,2.46-3.68,3.66-5.29s2.44-4.27,2.37-8.69"/>
    <path class="cls-5" d="M597.1,239.29c.73.07,1.76.15,3,.22,4,.23,7,.17,9.55.11,2.23-.05,5.05-.16,8.31-.4"/>
    <path class="cls-5" d="M589.35,244.58a8.68,8.68,0,0,0,3.93.33c2.49-.4,3.6-1.81,6.55-3.33a22.9,22.9,0,0,1,5.23-1.91"/>
    <path class="cls-5" d="M596.72,259.58a19.08,19.08,0,0,1,1.31-2.45c2-3.12,3.87-4.27,5.89-6.49a22.3,22.3,0,0,0,3.8-5.93"/>
    <path class="cls-5" d="M582.05,251.89c1.5.07,3.13.08,4.85,0a52.22,52.22,0,0,0,9.09-1.23"/>
    <path class="cls-6" d="M620.83,189.71q5.05,2.22,10.4,4.87c5.35,2.67,10.32,5.42,14.91,8.15"/>
    <path class="cls-5" d="M623.88,197.71a61.54,61.54,0,0,1,7.35,2.91,60.87,60.87,0,0,1,9.6,5.67"/>
    <path class="cls-2" d="M557.09,175c-.13.6-.21,1.34.16,1.61s.85-.09,1.7-.24a5.87,5.87,0,0,1,2.56.21,6,6,0,0,1,2.2,1.41c.79.69.8,1,1.65,1.64a5.94,5.94,0,0,0,1.56,1,7.64,7.64,0,0,0,2.81.35l2.4,0c-2-1.15-3.71-2-5-2.7a35.42,35.42,0,0,0-6.2-2.6A24.38,24.38,0,0,0,557.09,175Z"/>
  </g>
  <g id="fejléc_feliratok" data-name="fejléc feliratok">
    <text class="cls-7" transform="translate(1246.62 81.11)">Hát pers<tspan class="cls-8" x="44.69" y="0">z</tspan><tspan x="50.79" y="0">e, hogy a m</tspan><tspan class="cls-8" x="115.51" y="0">o</tspan><tspan x="122.28" y="0">zza</tspan><tspan class="cls-9" x="141.59" y="0">r</tspan><tspan x="145.92" y="0">ella is </tspan><tspan x="21.27" y="13">Compania ta</tspan><tspan class="cls-10" x="90.64" y="13">r</tspan><tspan x="95.35" y="13">tomá</tspan><tspan class="cls-11" x="122.79" y="13">n</tspan><tspan x="129.43" y="13">yból, </tspan><tspan x="4.46" y="26">Nápoly </tspan><tspan class="cls-8" x="47.81" y="26">k</tspan><tspan x="53.91" y="26">ö</tspan><tspan class="cls-12" x="60.81" y="26">r</tspan><tspan class="cls-13" x="65" y="26">n</tspan><tspan x="71.64" y="26">yékéről szá</tspan><tspan class="cls-9" x="133.66" y="26">r</tspan><tspan x="137.99" y="26">mazik!</tspan><tspan x="9.59" y="39">Ez </tspan><tspan class="cls-9" x="25.5" y="39">e</tspan><tspan x="31.99" y="39">gy különl</tspan><tspan class="cls-14" x="82.9" y="39">e</tspan><tspan x="89.39" y="39">ges lágy pizza</tspan><tspan x="-13.43" y="52">m</tspan><tspan class="cls-8" x="-3.14" y="52">o</tspan><tspan x="3.64" y="52">zza</tspan><tspan class="cls-9" x="22.95" y="52">r</tspan><tspan x="27.28" y="52">ella, tökéletes ízélmé</tspan><tspan class="cls-13" x="140.63" y="52">n</tspan><tspan x="147.27" y="52">yt </tspan><tspan class="cls-13" x="161.01" y="52">n</tspan><tspan x="167.65" y="52">yújt.</tspan></text>
    <text class="cls-7" transform="translate(530.93 82.11)">tipikus nápolyi <tspan class="cls-8" x="83.84" y="0">z</tspan><tspan x="89.94" y="0">öldsé</tspan><tspan class="cls-13" x="118.89" y="0">g</tspan><tspan x="125.51" y="0">,</tspan><tspan x="-21.67" y="13">n</tspan><tspan class="cls-13" x="-14.77" y="13">e</tspan><tspan class="cls-8" x="-8.8" y="13">v</tspan><tspan x="-2.03" y="13">e </tspan><tspan class="cls-9" x="7.66" y="13">e</tspan><tspan x="14.14" y="13">gy ősi görög ki</tspan><tspan class="cls-12" x="95.35" y="13">f</tspan><tspan x="99.54" y="13">ejezésből</tspan><tspan x="-19.04" y="26">szá</tspan><tspan class="cls-9" x="-0.4" y="26">r</tspan><tspan class="cls-15" x="3.93" y="26">mazik, amely téli brok</tspan><tspan class="cls-8" x="124.79" y="26">k</tspan><tspan x="130.88" y="26">olit</tspan><tspan x="-6.47" y="39">jelent, mi</tspan><tspan class="cls-8" x="43.52" y="39">v</tspan><tspan x="50.3" y="39">el a tél </tspan><tspan class="cls-8" x="90.12" y="39">köz</tspan><tspan x="109.09" y="39">epén</tspan><tspan x="36.84" y="52">szü</tspan><tspan class="cls-9" x="55.52" y="52">r</tspan><tspan x="59.85" y="52">etelik.</tspan></text>
    <text class="cls-7" transform="translate(317.23 82.11)">Olasz pikáns <tspan class="cls-8" x="74.37" y="0">k</tspan><tspan x="80.47" y="0">olbász,</tspan><tspan x="-16.91" y="13">ami m</tspan><tspan class="cls-9" x="17.38" y="13">e</tspan><tspan x="23.87" y="13">gadja az alaphangot</tspan><tspan x="28.53" y="26">a pizzának!</tspan></text>
    <text class="cls-7"><tspan class="cls-13" x="1522.06" y="206.44">K</tspan><tspan x="1530.05" y="206.44">emé</tspan><tspan class="cls-11" x="1552.8" y="206.44">n</tspan><tspan class="cls-16" x="1559.44" y="206.44">y</tspan><tspan x="1565.44" y="206.44">, só</tspan><tspan class="cls-17" x="1584.72" y="206.44">s</tspan><tspan x="1589.88" y="206.44">, aromá</tspan><tspan class="cls-18" x="1631.7" y="206.44">s</tspan><tspan x="1636.87" y="206.44">,</tspan><tspan x="1523.81" y="219.44">juhtejből készült sajt.</tspan></text>
  </g>
</svg>
