<svg xmlns="http://www.w3.org/2000/svg" viewBox="0 0 1920 312.62">
  <defs>
    <style>
      .cls-1 {
        fill: #729558;
      }

      .cls-2, .cls-7 {
        fill: #e9cfbf;
      }

      .cls-3, .cls-9 {
        fill: #fef9e9;
      }

      .cls-4 {
        fill: #e04817;
      }

      .cls-5 {
        fill: #2b9845;
      }

      .cls-10, .cls-6, .cls-8 {
        fill: #1d1c1a;
      }

      .cls-6, .cls-7, .cls-8, .cls-9 {
        stroke: #1d1c1a;
        stroke-linecap: round;
        stroke-linejoin: round;
      }

      .cls-7, .cls-8, .cls-9 {
        stroke-width: 2px;
      }
    </style>
  </defs>
  <title>étlap footer</title>
  <g id="Layer_23_copy" data-name="Layer 23 copy">
    <path class="cls-1" d="M0,160.74c7.05-.14,18.18-.52,31.74-1.7,69-6,120.71-25.82,148.36-37.08C327.76,61.82,350.48,11,451.08,1.51c40-3.78,70.26,1.09,76.8,2.2C602.39,16.31,639.15,54.24,706.79,98c48.75,31.51,94.9,51.26,187.2,90.77,146.19,62.56,199.71,65.17,222.11,65.44,25.55.3,72.94.27,127.85-20.08,23.9-8.85,55.24-27.69,117-65,76.17-46.08,76.86-49.33,99.93-58.48,28-11.12,75.87-29.44,133.52-20.07,0,0,43.66,7.09,80.73,30.55a180.58,180.58,0,0,1,20.51,15.27,151,151,0,0,1,16.15,16.58c34.26,40.57,89.45,56.29,89.45,56.29,56.61,15.82,104-1,118.81-6.91V312.62H0Z"/>
  </g>
  <g id="luigi_dobál" data-name="luigi dobál">
    <path class="cls-2" d="M388.82,201.45c3.82,4.23,8.93,9.64,15.27,15.62a259.35,259.35,0,0,0,23.24,19.62c9.56,7.08,20.32,13.7,39.59,23a550.79,550.79,0,0,0,61.95,25.37A743.62,743.62,0,0,0,638.7,312.62h327a682.54,682.54,0,0,1-162.57-52.35,678,678,0,0,1-132.53-81.63c-18,2.13-32.64,3.62-42.27,4.57C597,186.29,586,186.89,565.12,189c-17.6,1.79-23.78,2.56-37.63,3.66s-25.24,1.75-32.89,2.12c-5.46.19-14.32.57-25.25,1.38-20.34,1.51-28.74,3.08-45.17,4.25C416.12,201,404,201.63,388.82,201.45Z"/>
    <path class="cls-3" d="M570.12,182.58a65,65,0,0,0,1.73-18.15c-.25-5.49-.71-13.79-5.47-22.87a47.15,47.15,0,0,0-11-13.83q1.59-11.92,3.17-23.83a11.45,11.45,0,0,0,6.34-3.46c.51-.55,3.33-3.64,2.88-7.78-.42-3.93-3.64-7.36-8.07-8.55a52.66,52.66,0,0,0-5.76-20.85,51.44,51.44,0,0,0-5.67-8.65,26.07,26.07,0,0,0-10.09,1.06c-11.23,3.52-16.17,13.81-17.2,16a37.91,37.91,0,0,0-3.36,14c-.16,1.89,0,5.9.48,13.93.53,9.93.84,11.75,1.35,13.73,0,0,.17.69,2.52,8.51l-3.87.53q-8.46,1.13-16.81,2.11l-10-5.57a13.49,13.49,0,0,1-.67-6.63,13.25,13.25,0,0,1,1.92-5.19,14.23,14.23,0,0,1,8.26-5.86c.25-.72.56-1.92,0-2.5s-1.56-.24-3.75.19c-1.1.22-2.67.51-4.61.77Q493,93.32,493.55,87l-1.44-1.15c-1.05,2.34-2.11,4.67-3.17,7q-1.05-5.38-2.11-10.76l-1.44,1.35L484.23,94.1q-2.34-4.27-4.7-8.55l-1.25,1c.22,2.82.45,5.64.67,8.45l-4.51-2.69c.46,3.25,1,5.85,1.44,7.59,1,4.19,1.78,6,1.82,9a19.36,19.36,0,0,1-.86,5.95L458.1,103.61a21.83,21.83,0,0,1,.19-7.4c.72-3.49,2.13-5.73,1.16-6.82-.43-.48-1.38-.78-3.56-.19q-1.49,3.8-3,7.59a22.71,22.71,0,0,1-4.41-5.48,7.33,7.33,0,0,0-3.1-3.46,5.59,5.59,0,0,0-1.9-.48,8.2,8.2,0,0,0,.19,3.66A8.31,8.31,0,0,0,445,93.72L437,89.3a3.44,3.44,0,0,0-.16,1.4,3.92,3.92,0,0,0,.83,2c.81,1.13,1.93,2.79,3.36,4.9l-6.56-1.45a3.66,3.66,0,0,0,0,1A4.72,4.72,0,0,0,436,99.87a11.57,11.57,0,0,0,4.76,2.78,4.62,4.62,0,0,0-3.21-.05,4.54,4.54,0,0,0-1.78,1.2l1.25,2a27.63,27.63,0,0,0,4.61,2.79,28.8,28.8,0,0,0,11.81,2.78,50,50,0,0,0,2.79,5.19,52,52,0,0,0,7.21,9.13,52.91,52.91,0,0,0,8.07,6.72,45.8,45.8,0,0,0,.09,8.55c.48,4.58,1.15,10.93,5.19,16.62,4.87,6.87,12.1,9.21,16.62,10.67a41.37,41.37,0,0,0,16.24,1.82q-2.5,11.73-5,23.45l64-5.67Z"/>
    <path class="cls-4" d="M506.91,123.59c-.25,1.3-.48,2.62-.71,4-1,5.77-1.6,11.32-2,16.61l5.19-.67q.57-9.94,1.15-19.89Z"/>
    <path class="cls-4" d="M515.17,123.11q-.43,4.06-.75,8.38c-.25,3.51-.41,6.9-.5,10.17l5.38-1.16L519,123Z"/>
    <path class="cls-4" d="M524,127.34q0,5.67.1,11.34l4.61-.67c.12-2.6.25-5.19.38-7.79Z"/>
    <path class="cls-4" d="M509.79,143.58c-.37,2.63-.69,5.36-1,8.16-.6,6.31-.86,12.29-.87,17.87l4.62.2q.27-7,.67-14.22.35-6.18.77-12.2Z"/>
    <path class="cls-4" d="M519.85,141.78c-.55,3.79-1,7.86-1.29,12.17a161,161,0,0,0-.25,16.4h4.87c.22-4.63.4-9.37.51-14.22q.18-7.94.13-15.5Z"/>
    <path class="cls-4" d="M530.09,138.58c-.16,3.16-.21,6.49-.12,10a133.32,133.32,0,0,0,2.17,20.88l4.87-.51a114.05,114.05,0,0,0-.51-13.32,112.88,112.88,0,0,0-3.2-17.81Z"/>
    <path class="cls-4" d="M537.33,136.05c.84,3.24,1.81,6.61,2.95,10.09A165.19,165.19,0,0,0,547.74,165l4.74-2.16A116.7,116.7,0,0,0,540.77,135Z"/>
    <path class="cls-4" d="M546.81,132.63c1.71,3.21,3.7,6.63,6,10.18s4.6,6.68,6.82,9.52a20.53,20.53,0,0,0,.61-7.15,19.82,19.82,0,0,0-.54-3.14L550,131.15Z"/>
    <path class="cls-4" d="M558.6,138.65a4.35,4.35,0,0,1,2.74-1.93,3.12,3.12,0,0,1,1.61.07,3.84,3.84,0,0,1,2.18,2.75,5.56,5.56,0,0,1-5.06,1.8Z"/>
    <path class="cls-4" d="M562.12,146c-.09.68-.19,1.39-.32,2.12-.22,1.21-.48,2.35-.77,3.39a28.89,28.89,0,0,0,3.46.13,28.43,28.43,0,0,0,4.74-.51,18,18,0,0,0-.45-3.53A17.29,17.29,0,0,0,568,145a13.79,13.79,0,0,0-5.83,1Z"/>
    <path class="cls-4" d="M559,157.41a13.06,13.06,0,0,1-1.92,3.27,13.31,13.31,0,0,1-3.65,3.14q3.76-.15,7.75-.45c3.37-.26,6.62-.58,9.73-1q-.18-3-.38-6.09A46.36,46.36,0,0,0,559,157.41Z"/>
    <path class="cls-4" d="M570.89,167.47c-1.46.07-3.49.2-5.89.45-3.2.33-6.06.77-10.18,1.53-3.91.73-9.09,1.78-15.31,3.27l-2.18-2.95a196.07,196.07,0,0,1-22.29,1c-1.66,0-3.31-.06-4.93-.12l-6,23.77q8.28-.45,16.72-1,24.56-1.71,47.71-4.42l1.92-10.63a33.65,33.65,0,0,1-7.23,1.73,36.9,36.9,0,0,1-21.46-4.16c3.3.19,6.85.26,10.63.13a114.4,114.4,0,0,0,18.51-2.18Z"/>
    <path class="cls-4" d="M610.59,176.31a18.58,18.58,0,0,0-8.58.06c-1.67.43-2.14.82-7,3-4.61,2.09-6.94,3.14-8.45,3.4a16.15,16.15,0,0,1-9.23-1,15.13,15.13,0,0,1-3.78-2.37,14.84,14.84,0,0,0,5.13.19c1.21-.17,5.1-.73,5.51-2.63a2.31,2.31,0,0,0-.71-2c-.72-.72-1.71-.72-3-.71a11.59,11.59,0,0,0-3.84.71c.46-.34,7.7-5.79,6.59-8.27a2.77,2.77,0,0,0-1.66-1.41,3.35,3.35,0,0,0-2.37.45,7.23,7.23,0,0,0-2.69,2.44,13.52,13.52,0,0,0-1.73,3.71c-.72,2-.67,2.66-1.41,3.78a7.27,7.27,0,0,1-1.79,1.86l-.9,2.56c1.93,1.27,9.63,6,19.15,4a23.41,23.41,0,0,0,8.58-3.71,15.52,15.52,0,0,1,4.11-2.23,14,14,0,0,1,3-.78c1.6-.22,2.56-.05,4.73-.45,1.31-.24,1.48-.37,1.48-.45S611.12,176.35,610.59,176.31Zm-34.26-4.93a11.78,11.78,0,0,1,1.6-3.14c.52-.61,1.46-1.7,2.62-1.54a1.85,1.85,0,0,1,1.54,1.22c.11.44,0,1.14-1.73,2.75a20.23,20.23,0,0,1-5.19,3.46C575.29,173.85,576.32,171.38,576.33,171.38Zm.45,5.06a11.26,11.26,0,0,1,4.67-.39c1,.13,1,.28,1,.32,0,.37-1.91.94-3.33,1.22-2.41.47-5.19.48-5.26.06S576,176.67,576.78,176.44Z"/>
    <path class="cls-3" d="M518,207.82c.75-.33,1.85-.8,3.2-1.35a134.08,134.08,0,0,1,14.6-4.93c6-1.7,11.94-3.68,17.94-5.44L578,189a9,9,0,0,1,5.13,2.5,8.88,8.88,0,0,1,2.11,3.39c1.39-.64,2.49-1.16,3.14-1.47a38.43,38.43,0,0,1,6.47-2.63,4.13,4.13,0,0,1,2.69-.19,3.4,3.4,0,0,1,2.05,2.5,4.06,4.06,0,0,1-1.28,3.46,6.44,6.44,0,0,1-3.91,1.53c-2.15.35-4.76.72-7.75,1a7.57,7.57,0,0,1-.9,5.57,7.75,7.75,0,0,1-5.38,3.46,4.76,4.76,0,0,0,1.41,2.05c1.54,1.24,3.56,1,4.81.9a74.66,74.66,0,0,1,12.48-.07c3.79.38,5.27,1.18,6,1.71l.26.21c1.72,1.59,1.3,4.58,1.18,5.45-.39,2.79-2.43,5.3-5.54,7.65-4.32,3.27-9.35,5.21-16.14,6.44a62.7,62.7,0,0,1-49.32-10.7l-12.68,4a8.34,8.34,0,0,1-7.36-5.25,10,10,0,0,1-2.89,1c-1.37.23-2.41.41-3.2-.19a3.25,3.25,0,0,1-.77-3.46c.61-1.73,2.86-2.89,5.51-2.56a6.69,6.69,0,0,1,.45-4.1A6.77,6.77,0,0,1,518,207.82Z"/>
    <g>
      <path d="M503.68,194.6q1.05-3.81,2.06-7.79c1.31-5.25,2.43-10.35,3.4-15.29-.94,0-2.19-.11-3.68-.22,0,0-1.11-.05-2.09-.16-6.07-.69-12.1-1.6-17.7-4.24-8.41-4-13.16-10.8-14.93-19.71a70.3,70.3,0,0,1-.72-9.76c-.08-1.42,0-2.85,0-4.36a43,43,0,0,1-17.38-20.68l-2-.55c-5-1.39-6.19-1.58-8.74-2.43a16.48,16.48,0,0,1-5.36-2.56c-1.13-.88-2.3-1.79-2.17-2.91s1.38-2,3.11-2.39A10.26,10.26,0,0,1,433,97.28c-.42-.81-.9-1.74-.54-2.29.7-1,4,0,6.27.84a22.72,22.72,0,0,1-2.54-3.45,4,4,0,0,1-.3-3.06c.58-1.21,1.93-.84,3-.34s2,1,3,1.58a5.92,5.92,0,0,1-.11-2.13,2.93,2.93,0,0,1,.79-2.09c.84-.61,2.29.08,3,.41,2.57,1.24,3.69,3.87,6.08,6.49a14.79,14.79,0,0,1,1,1.53c.78-2,1.27-3.34,1.86-4.67A7.22,7.22,0,0,1,456,87.5a3.44,3.44,0,0,1,2.7-.8,3.18,3.18,0,0,1,1.73,2.2,19.23,19.23,0,0,1-.05,4.91c-.25,2.53-.75,5-1,7.56a2.57,2.57,0,0,0,.76,2.11c5.3,3,10.68,5.93,16.53,9.13a8.38,8.38,0,0,0,.37-2.56c-1.19-5.24-2.55-10.45-3.71-15.71-.31-1.41-.79-2.8-.12-3.41.91-.82,3.18.34,3.9.73a46.1,46.1,0,0,1-.19-5.49,2.92,2.92,0,0,1,1.46-2,1.37,1.37,0,0,1,.85-.15c.79.14,1.23,1.08,1.45,1.57.73,1.61,1.78,4,3,6.85a28.09,28.09,0,0,0,.46-5.73c0-.11,0-.77.06-2.09.12-2.53.68-3.17.88-3.4s.95-1.09,1.7-.9,1,1.21,1.45,4.17c.22,1.44.48,3.35.7,5.65a20.91,20.91,0,0,1,1.83-5.17,1.22,1.22,0,0,1,.47-.46c.85-.42,2.36.38,3.06,1.3,1.28,1.67-.29,3.79-.86,9.73-.1,1-.19,2-.32,3.27,1.33-.32,2.27-.58,3.22-.77s2-.36,3-.47a2.55,2.55,0,0,1,2.89,1.8c.44,1.44-.67,2.27-1.81,2.83a24.19,24.19,0,0,0-7.94,6.12,5.16,5.16,0,0,0-1.13,4.27c.22,1.91.56,3.82.9,6.08l8.89,4.5,1.52-.06q9.07-.36,17.78-1.21a4.42,4.42,0,0,0-1.27-2.4,4.33,4.33,0,0,0-1.75-.91c-2.68-.88-5.15-2.09-6-5.16a7.78,7.78,0,0,1-.09-1.41,8.49,8.49,0,0,0,3.2.29,8.31,8.31,0,0,0,2.39-.61,55.21,55.21,0,0,1-.73-7.12c-.11-4.72.1-9.44-.08-14.16a79.73,79.73,0,0,1-.05-10c.68-8.12,4.27-14.54,10.21-19.89a30.47,30.47,0,0,1,15.42-7.58,28.66,28.66,0,0,1,20.07,3.58c1.77,1.06,2.07,2.07,1.49,3.86a21.08,21.08,0,0,1,3,2.57c1.17,1.45.51,2.73-1.37,3-.5.06-1,0-1.54,0s-.81,0-1.67.09A27.28,27.28,0,0,1,564.7,84.8a11.31,11.31,0,0,1,3.63,6.34,10.89,10.89,0,0,1-2.61,9.39,21.24,21.24,0,0,1-3.94,2.84c-1.08.65-2,1.13-2.69,1.45-.26,2.45-.53,4.92-.8,7.52l2.56.46c.28.13.59.32.58.54s-.55.49-.7.55c-.64.26-1.61,1-3.07,3.17l-1.37,9.66c.4.42,1,1,1.69,1.83a59.13,59.13,0,0,1,13.6,26.38,57,57,0,0,1,1,18.08,62.41,62.41,0,0,1-2.06,11.31c-.44,1.59-1.15,2.59-1.77,2.55s-1.05-1.2-1.15-1.5a8.45,8.45,0,0,1,.58-5.63c1.93-4.6,1.84-9.38,1.72-15.67a50.92,50.92,0,0,0-.74-7.56,63.52,63.52,0,0,0-2-7.56,71,71,0,0,0-2.69-7.4,22.06,22.06,0,0,0-2.57-4,71,71,0,0,0-5-6.43,3.58,3.58,0,0,0-1.77-1.12,5.33,5.33,0,0,0-4,.9c-5.21,3.13-18.9,7.67-23.53,9-2,.59-5.86,1.63-9.1,2.47-1.34.35-2.17.55-5.72,1.45l-7.07,1.8L504.48,169c2.2.28,5.55.63,9.64.76,17.69.58,28.69-3.52,31.11-4.47,5.72-2.22,9.55-3.86,12-8a23.4,23.4,0,0,0,2.47-12.44,7.06,7.06,0,0,0-.62-3.22c-.66-1.29-1.64-1.9-1.41-2.63a1.3,1.3,0,0,1,1.15-.77c1,0,1.79,1.46,2.11,2.08.54,1,1.33,3,1,9.18-.06,1.17-.14,2.12-.2,2.75a15.53,15.53,0,0,1-3.07,7.9,13.16,13.16,0,0,1-5,4.13c-3.8,1.74-8,4-14.18,5.59a78.66,78.66,0,0,1-23.2,2.35c-2-.1-3.62-.26-4.74-.38-1.23,5.52-2.61,11.17-4.19,17q-.75,2.77-1.53,5.48ZM484,95.15c-.59.07-1.24-1.39-2.33-3.81-.88-2-1.26-2.73-2-4.3-.44-.88-.63-1.23-.78-1.2-.43.09-.21,3.14.07,5.25.41,3.09,1.09,5.2.69,5.36-.11,0-.22-.07-.9-.68s-1.38-1.28-1.62-1.49c-.72-.8-1.62-1.68-2-1.47s0,1.66.58,3.83c2,6.94,2.68,8.8,2.88,11.81a15.89,15.89,0,0,1-.14,3.85,22.4,22.4,0,0,1-1.29,4.31c-1,2.81-1.53,4.21-1.75,4.77a51.18,51.18,0,0,0-3.23,14.74,43.28,43.28,0,0,0,.93,11.71,24.51,24.51,0,0,0,6.69,12.4,26.44,26.44,0,0,0,7.87,5.08,36.92,36.92,0,0,0,14.18,3.33l1.56-22.07-8.38.76a22.57,22.57,0,0,1-.36,5.73c-.13.61-.34,1-.55,1s-.38,0-.82-1.47a12.4,12.4,0,0,1-.58-4.26c.27-3.11-.27-9.12-1.17-19.09-.28-3.14-.47-3.88-1.2-11.3-.67-6.76-.74-8.5.46-10.27,1.48-2.17,5-4.57,6.54-5.36A8.86,8.86,0,0,0,500,100.2c.27-.32.46-.59.58-.76a20.63,20.63,0,0,0-4,.27c-2.68.45-3.64,1.15-4.43.62-1.12-.75-.74-3.16-.42-5.22.75-4.73,2.59-7.09,1.45-8.41-.32-.36-.91-.71-1.31-.55s-.44.85-.75,2c-.08.28-.38,1-1,2.47-.84,2.09-1.26,3.13-1.54,3.13-.76,0-1.3-3.56-1.44-4.47-.61-4-.27-7-.87-7.06-.13,0-.26.1-.37.23-1.25,1.48-.55,4.32-.69,7.56C485.22,91.9,484.8,95.05,484,95.15Zm71.25,16.24c0,.06.15.18.3.33a6,6,0,0,0,.62.58c.12-1.47.23-2.72.32-3.73a13,13,0,0,0,.21-2c0-.07.11-.74.21-1.63a3.14,3.14,0,0,1,2.49-3,10,10,0,0,0,6.7-10.73c-.23-1.4-.65-2.87-2.34-3.27-1.85-.44-2.84.74-3.62,2.15-1,1.87-2,3.8-3.05,5.62-.57,1-1.38,1.91-2.75,1.39a2.62,2.62,0,0,1-1.68-3.22c.44-2.51.84-5,1.4-7.5a18.76,18.76,0,0,0-.38-9.67c-.77-2.61-2.79-3.54-5.46-3.09-4.13.71-7.7,2.73-11.1,4.91s-6.16,2.7-9.47.2a3.55,3.55,0,0,0-5,.4,13.84,13.84,0,0,0-3.45,5.36c-.05.18-.09.34-.13.5a13.33,13.33,0,0,0-.26,1.41,48.18,48.18,0,0,0-.34,5.63c0,3.75,0,5.63.07,6.73.07,2.26.13,4.09.34,6.56.19,2.19.43,4,.62,5.33A11.65,11.65,0,0,1,526,105a10.19,10.19,0,0,1,2.91-.44c1.36-4.13.53-8.5,2.39-12.38a10,10,0,0,1,.35,3.42c-.17,3.26-.48,6.51-.53,9.77,0,1.52,1.31,2.09,2.61,1.33s2.69-1.6,4.05-2.38a10.19,10.19,0,0,1,12.59,1.56C552.1,107.65,553.62,109.56,555.21,111.39Zm-119-7.35c0,.14,0,.34.28.67a10.94,10.94,0,0,0,3.56,2.12c5.72,1.87,8.57,2.88,10.19,2.93a5.45,5.45,0,0,1,3.34.84,6.07,6.07,0,0,1,2.17,3.61c1.06,3.71,3.55,6.39,7.83,11a40.43,40.43,0,0,0,7.35,6.22c.12-.67.27-1.56.47-2.59.09-.45.24-1.23.42-2.08.05-.2.46-2.06.93-3.75a59,59,0,0,1,3.17-8.4c-2.92-1.53-5.18-2.69-6.45-3.34-3.68-1.89-7-4.44-10.53-6.55a3.76,3.76,0,0,1-1.7-1.79,3.89,3.89,0,0,1,0-2.65c1-3.23,3-9.81,1.24-11.37a1.81,1.81,0,0,0-1.47-.35c-2.05.38-1.36,4.4-4.44,8.88a8.14,8.14,0,0,0-1.78,3.44,20.5,20.5,0,0,0-.24,3,1.67,1.67,0,0,1,0,.24c0,.33-.16.75-.26.76s-.62-1.84-.59-3.52a10.35,10.35,0,0,1,1.79-5.49c-3-4.27-6.44-8.67-7.65-8.06-.34.17-.41.68-.46,1-.38,2.91,3.5,5.5,3.12,6-.17.21-.95-.14-1.24-.28-3.57-1.65-6-4.61-7.65-4.53-.11,0-.43,0-.57.23-.25.38.26,1.14.62,1.65,1.12,1.59,2.11,2.7,2.61,3.3.28.33,2.45,2.93,2,3.41-.22.25-1-.21-2.37-.79-1.92-.81-5.5-2.08-5.84-1.53s1.57,2.67,3.95,4c1.07.6,3.29,1.59,3.25,2.22a.54.54,0,0,1-.12.32c-.21.24-.63.19-.79.17a8.79,8.79,0,0,0-3.14.4C436.43,103.66,436.29,103.9,436.26,104Zm119,14.19a11,11,0,0,1-5.82.29,13.59,13.59,0,0,1-4.92-2.57c-2.17-1.51-4.35-3-6.38-4.72a4.7,4.7,0,0,0-5.42-.51,11.85,11.85,0,0,0-3.45,2.47,61.13,61.13,0,0,1-7.05,6.25,20.67,20.67,0,0,0,2.68,5.72,10.77,10.77,0,0,0,3.38,3.68,10.93,10.93,0,0,0,6.37,1.23,14.48,14.48,0,0,0,3.35-.53,10.28,10.28,0,0,0,4.76-2.32,3.5,3.5,0,0,1,2.09-1.36c.15,0,.82-.06,1,.29.43.69-1.12,2.62-2.8,3.79a10.46,10.46,0,0,1-2.51,1.22,21.3,21.3,0,0,1-7.79,1.24v2.95l.71-.14c4.75-.92,8.19-2.58,18-7.39l2.57-1.26Zm-34.29,5.37-18.82,1.6L500,144.29l30.86-8.64.08-3.24a9.91,9.91,0,0,1-4.77-1.62,11.84,11.84,0,0,1-3.06-3.21A18.45,18.45,0,0,1,520.92,123.6Zm-26.19,21,3-.25,2.16-19.39L492.41,121c.29,3.27.6,6.57.92,9.88Q494,137.8,494.73,144.57Zm37.55-83.1c.19.26,2.76-1.88,7.42-3.74,4.36-1.76,7.17-1.91,7.14-2.16s-4.92-.67-9.52,1.69C534.22,58.85,532.1,61.22,532.28,61.47Z"/>
      <path d="M548.16,91.06c-.86.82-2.4-1-5.19-.87-2,.13-3,1.2-4.77.58-.31-.11-1-.33-1-.74-.1-.78,2.08-1.71,3.48-2.11a11,11,0,0,1,6.15.28,2.31,2.31,0,0,1,1.51,1.12A1.67,1.67,0,0,1,548.16,91.06Z"/>
      <path d="M520.3,91c-.1-.47.44-1,.86-1.39a2.61,2.61,0,0,1,.37-.31,11.28,11.28,0,0,1,7.58-1.46,2.94,2.94,0,0,1,2,1.81,1,1,0,0,1-.12.76c-.43.55-1.69.21-2,.13-1.16-.27-3.4-.27-8.12,1C520.41,91.3,520.32,91,520.3,91Z"/>
      <path d="M561.51,94.24s.44-.56.74-.46.27.45.29.59c.22,1.47-3.36,6.56-4.3,6-.17-.1.17-1.64.84-4.73a11.51,11.51,0,0,1,2-4.24c.08-.09.27-.32.44-.28s.21.35.22.43C561.69,92.46,561.6,93.35,561.51,94.24Z"/>
      <path d="M523.38,94.41c.13,0,.23.28.29.54.1,1.53.61,2.59,1.18,2.64s1.18-.91,1.24-1c.5-.79.37-1.44.64-1.49s.79.65.82,1.37a2.53,2.53,0,0,1-1.14,1.94,2.65,2.65,0,0,1-2.59.16,3.84,3.84,0,0,1-1.1-2.14C522.66,95.43,523.1,94.39,523.38,94.41Z"/>
      <path d="M543.05,96.18a1.13,1.13,0,0,0,1.16-.29,1.5,1.5,0,0,0,.34-1c0-.46-.14-.64,0-.9s.41-.46.6-.39c.47.16.67,2.24-.41,3.16a2.3,2.3,0,0,1-1,.47c-1.63.24-2.47-.76-2.64-3.57a1.26,1.26,0,0,1,.67.14C542.64,94.3,542.27,95.83,543.05,96.18Z"/>
      <path d="M532.23,116.55c2.33-.66,3.35.12,3.57.29,1.16,1,.91,2.84.45,6.3-.23,1.8-.45,3.44-1.09,3.54s-1.63-1.93-1.9-2.54A14.69,14.69,0,0,1,532.23,116.55Z"/>
      <path d="M532.06,111.55a3.53,3.53,0,0,1,.8.46c.86.64,1,1.43,1.32,1.38s.07-1.08.72-1.76a1.88,1.88,0,0,1,.84-.48,2.79,2.79,0,0,1,.42,1.95,2.06,2.06,0,0,1-4,.59A2.82,2.82,0,0,1,532.06,111.55Z"/>
    </g>
    <path class="cls-3" d="M405.84,72.87a7.71,7.71,0,0,0,1.41,2.69,14,14,0,0,0,2.43,2.56c3.49,2.72,11.21,1.09,11.21,1.09,3.64-.77,6.09-1.83,16.78-7.37,7.53-3.9,9.71-5.13,13.77-6.21a38.18,38.18,0,0,1,16-.9,65.14,65.14,0,0,1,15,4.68,33.19,33.19,0,0,0,8,2.11,7.56,7.56,0,0,0,4-.25c.28-.11,3.23-1.3,3.71-3.91.43-2.33-1.39-4.29-2.17-5.12-2.25-2.41-4.51-2.53-9.68-4.55-3.7-1.45-3.24-1.66-6.72-3.08a64.8,64.8,0,0,0-15.63-4,76.06,76.06,0,0,0-12.74-.83,72.43,72.43,0,0,0-19.48,3.13c-5.38,1.65-9.1,3.6-16.52,7.5a31.87,31.87,0,0,0-7.08,5.38,8.41,8.41,0,0,0-1.25,1.6A7.44,7.44,0,0,0,405.84,72.87Z"/>
    <path class="cls-3" d="M419.77,188.54a12.53,12.53,0,0,1,3.55-3.65,19.16,19.16,0,0,1,10.76-4.13,18.33,18.33,0,0,1,7.59,1.25,19.36,19.36,0,0,1,5.19-4.52,21,21,0,0,1,11.24-2.69c2.86,0,8.21,0,13.36,3.75a20.25,20.25,0,0,1,7.3,10.18,20,20,0,0,1,.86,7,19.74,19.74,0,0,1,5.77,8.26c.8,2.24,1.85,5.15.77,8.36-1.41,4.17-5.48,6-7,6.72-3.75,1.71-6.92,1.45-13.06.87a60.91,60.91,0,0,1-19-5c-3.4-1.38-6-2.7-7.39-5.48a9.53,9.53,0,0,1-1-4.8,27.68,27.68,0,0,1-6.92-.19,19.23,19.23,0,0,1-9.32-3.46c-1.59-1.21-3.45-2.63-4.13-5.19C417.41,192.42,419.25,189.39,419.77,188.54Z"/>
    <g>
      <path d="M406,68.89c.06,0,.11.17.19.52a6.59,6.59,0,0,1,.11,2.08,10.12,10.12,0,0,0,.13,1.72A7.07,7.07,0,0,0,408,76.69c.7.82,2.82,2.84,9.41,2.41,5.83-.38,10.14-2.35,14.65-4.54,8.23-4,10.35-5.35,16.34-8.33,8.69-4.33,13.21-6.55,19.42-8.11a59.22,59.22,0,0,1,16-1.78,73.41,73.41,0,0,0-75.38,9.11,14.55,14.55,0,0,1,2-2.49c11.14-8.76,23.71-13.82,38-14.36a82.67,82.67,0,0,1,27.32,3.21c1.93.59,4.88,1.75,7.66,2.89a69.56,69.56,0,0,1,7.95,3.6A16,16,0,0,1,495,60.63c.75.73,4.11,4,3.09,7.35-.93,3.07-4.9,4.35-7.56,4.23a11.23,11.23,0,0,1-2.88-.69c-4.23-1.31-6.34-2-7.76-2.51-5.58-2.12-13.72-5.23-22.31-4a38.28,38.28,0,0,0-6.78,1.88c-9.88,3.29-11.75,6-21.2,9.94-9.68,4-14.51,3.89-18,3-3.95-1-5.15-2.76-5.54-3.44C404.33,73.31,405.72,68.88,406,68.89Zm81.24-1.4a4.31,4.31,0,0,1,1.19,0,13.83,13.83,0,0,0,2.16.11c.4-.06,1.46-.2,1.8-.91s-.18-1.6-.58-2.29a6.94,6.94,0,0,0-1.67-1.93,31.84,31.84,0,0,0-6.34-3.84c-3.74-1.36-14-.58-26.31,4.71a40.73,40.73,0,0,1,6.25,0,48.74,48.74,0,0,1,11,2.35c2.48.8,9,3,13.13,4.51a7.91,7.91,0,0,0,5.36.35c.42-.14,2.87-1,3.42-3.18a4.1,4.1,0,0,0-.23-2.49C495,60.83,488,58.47,487,58.16l-1.65,0a30,30,0,0,1,4.41,2.38q1.11.74,2,1.47s2.38,1.85,2.54,3.47a.35.35,0,0,0,0,.07,3.29,3.29,0,0,1-.44,1.87c-.54.84-1.89.85-3,.86A6.77,6.77,0,0,1,487.27,67.49Z"/>
      <path d="M402.84,63.23c-2.4,8.34-.66,16.59,8.5,21.85-3.63.69-9-4.51-10.42-10a15.42,15.42,0,0,1,1.55-12S402.71,63.18,402.84,63.23Z"/>
      <path d="M436.55,69.6c-.06-.11.75-.69,1.51-1.21a75.59,75.59,0,0,1,29.22-12.82,4,4,0,0,1,1.14-.13s0,0-.14.07a147.75,147.75,0,0,0-16.07,6.32C444.09,65.58,436.73,69.9,436.55,69.6Z"/>
      <path d="M402.3,84.94c-4-.08-7.11-5.67-5.83-11.13C397.64,78.7,398.93,82.78,402.3,84.94Z"/>
      <path d="M417.79,76.23s.14.1.13.18-.22.19-.3.21a9.73,9.73,0,0,1-5.63.23,7,7,0,0,1-2.75-1.5A5.06,5.06,0,0,1,408,73.7c-.82-1.79-.3-3.82-.05-3.83.05,0,.13.08.25.52.41,2.72,1.41,3.81,2.27,4.3C412.37,75.78,417.34,75.93,417.79,76.23Z"/>
    </g>
    <g>
      <path d="M442,181.35a23.25,23.25,0,0,1,10.1-6.08,23.93,23.93,0,0,1,13.39.14,20,20,0,0,1,10.37,6.45,20.2,20.2,0,0,1,3.85,8.11,21.62,21.62,0,0,1,.55,6,15.72,15.72,0,0,1,3.23,3.37,17,17,0,0,1,1.41,2.4c1.21,2.51,2.95,6.11,1.92,10.2a10.44,10.44,0,0,1-2.27,4.33,11.23,11.23,0,0,1-5.42,3.16c-7.07,2.08-15.33,1-16.35.89s-11.08-1.57-18.77-6.27c-2.87-1.75-5.25-3.73-6.19-6.73a9.28,9.28,0,0,1-.38-2.11,30.78,30.78,0,0,1-12.23-1.62,11.65,11.65,0,0,1-4.09-2.33,10.62,10.62,0,0,1-3.19-5.46,11.32,11.32,0,0,1,.17-5.12c1.82-6.36,10.56-10.7,18.2-10.44A19.53,19.53,0,0,1,442,181.35Zm.52,29.26a37.33,37.33,0,0,0,6.93,4.31c4.87,2.33,8.67,3.07,15.41,3.74,8.48.85,12.05-.33,13.05-.69,2.2-.78,4.73-1.73,6.06-4.21,1.68-3.13.48-6.79-.25-8.57a19.76,19.76,0,0,0-3.92-6.13c-5.82-6.12-14-7.11-16.77-7.33a27.48,27.48,0,0,0-17.57,4.57,15.51,15.51,0,0,0-4.63,5.22,7.37,7.37,0,0,0-1,3.29,6.88,6.88,0,0,0,1,3.58,8.41,8.41,0,0,1,0-2.92,9.3,9.3,0,0,1,.52-1.73,8.27,8.27,0,0,1,1.42-2.47,4.1,4.1,0,0,1,2-1.25c.11,0,.26,0,.31,0s-.72,1-1,1.38c-1.89,2-2.47,5.59-1.81,8.21A7,7,0,0,0,442.48,210.61ZM450.4,191l1.4-.46a26.49,26.49,0,0,0-3.33-3c-2.18-1.66-9.38-7.17-17.67-5.18-4.94,1.19-9.35,4.75-10.71,8.61a7.74,7.74,0,0,0-.33,4.73,7.6,7.6,0,0,0,2.16,3.36c2.35,2.35,5.14,3.07,7.64,3.68a26.6,26.6,0,0,0,7.71.73q0-.21.12-.45a3.35,3.35,0,0,1,.14-.38,17.76,17.76,0,0,1-8.71-1.09c-2.3-.94-5.11-2.71-5-3,0-.06.23,0,.4,0a21.18,21.18,0,0,0,5,2.11,21.46,21.46,0,0,0,9.44.39,20.23,20.23,0,0,1,10.35-9.64,26,26,0,0,0-6.46-4.66,25.68,25.68,0,0,0-6.72-2.33c-.12-.08-.23-.18-.21-.25.12-.4,4.47.09,8,1.64A18.59,18.59,0,0,1,450.4,191Zm27.79,3.49c-.11-2.06-.74-8.55-5.78-13.21a19.09,19.09,0,0,0-6.26-3.74,22.68,22.68,0,0,0-10.88-1.34,23.15,23.15,0,0,0-12.33,5.59l.67.34c1.4-.82,3.05-1.71,3.22-1.46.05.07-.05.22-.19.44a4.67,4.67,0,0,1-1.94,1.6,30.43,30.43,0,0,1,9,7.38,36,36,0,0,1,24.48,4.4Z"/>
      <path d="M443.45,208.93c-.21-.39-.66-1.2-.45-1.39.39-.35,2.54,2.06,5.91,4a23.94,23.94,0,0,0,5.37,2.18c1.61.5,4.5,1.21,13.59,1.58,2,.08,4.84.15,8.23.12l.92.14a45.28,45.28,0,0,1-25.72-1,28.49,28.49,0,0,1-4.89-2.61A8.26,8.26,0,0,1,443.45,208.93Z"/>
    </g>
    <g>
      <path class="cls-2" d="M594.93,102.75c6.39,5.44,9.59,8.16,12.1,11.14s4.64,5.51,6.15,9.61a30.93,30.93,0,0,1,1.06,16.23c-.73,3.1-2,5.63-2.12,10.38-.1,3,.29,4.38.87,5.48a8.77,8.77,0,0,0,6.44,4.61c7.63.58,13.74-15.58,14-16.33A45.51,45.51,0,0,0,636,128.3a61.88,61.88,0,0,0-8-31.89c-4.09-7.14-9.22-16.11-19.7-19.89-6.93-2.51-18.49-3.56-23,2.59a12.65,12.65,0,0,0-1.73,9.9c.66,2.76,2.18,4.57,4.61,7.4A52.84,52.84,0,0,0,594.93,102.75Z"/>
      <path d="M595.08,102.56c3.54,3,7.17,5.87,10.48,9.16.83.82,1.61,1.71,2.36,2.59s1.5,1.78,2.21,2.71a24.3,24.3,0,0,1,3.45,6.15,30.77,30.77,0,0,1,1.64,13.91,23.31,23.31,0,0,1-.61,3.5l-.94,3.35a26.32,26.32,0,0,0-.95,6.71,13.05,13.05,0,0,0,.31,3.28,6.84,6.84,0,0,0,1.49,2.78,7.34,7.34,0,0,0,5.46,2.83c2-.08,3.92-1.5,5.42-3.1a29.54,29.54,0,0,0,3.9-5.52,53.69,53.69,0,0,0,3-6.16,34.79,34.79,0,0,0,1.92-6.51,58.7,58.7,0,0,0,.93-13.64,60.07,60.07,0,0,0-7-26.27,82.68,82.68,0,0,0-7.33-11.61,29.43,29.43,0,0,0-10.38-8.53A29.73,29.73,0,0,0,604,76a32.66,32.66,0,0,0-6.74-.8,20.2,20.2,0,0,0-6.63.94,12,12,0,0,0-2.93,1.47A9.6,9.6,0,0,0,585.49,80a12,12,0,0,0-1.66,6.31,10.94,10.94,0,0,0,1.88,6.26,33.08,33.08,0,0,0,2.07,2.72c.73.89,1.47,1.77,2.25,2.61,1.56,1.68,3.32,3.17,5.06,4.71Zm-.31.37a68.69,68.69,0,0,1-5.28-4.56c-.84-.82-1.61-1.69-2.38-2.57a33.45,33.45,0,0,1-2.21-2.74,11.36,11.36,0,0,1-1.63-3.22,13.13,13.13,0,0,1-.58-3.57,12.88,12.88,0,0,1,1.76-7,11,11,0,0,1,2.52-2.7A13.24,13.24,0,0,1,590.21,75a21.55,21.55,0,0,1,7-1.06,34.49,34.49,0,0,1,7,.78A29.76,29.76,0,0,1,622,85.77a78.47,78.47,0,0,1,7.53,11.82,64.29,64.29,0,0,1,6.23,41,34.37,34.37,0,0,1-2,6.78,54.37,54.37,0,0,1-3.12,6.31,30.93,30.93,0,0,1-4.15,5.76,14.11,14.11,0,0,1-2.81,2.33,7.33,7.33,0,0,1-3.6,1.15,7.09,7.09,0,0,1-3.66-1,10.25,10.25,0,0,1-2.83-2.37,8.3,8.3,0,0,1-1.73-3.3,14.37,14.37,0,0,1-.3-3.61,27.14,27.14,0,0,1,1-7l1-3.33a20.37,20.37,0,0,0,.61-3.33,29.67,29.67,0,0,0-1.46-13.45c-1.53-4.28-4.58-7.87-7.63-11.27s-6.78-6.26-10.26-9.31Z"/>
    </g>
    <path d="M578.11,77.66a14.59,14.59,0,0,1,5.79-6.48,18.38,18.38,0,0,1,8.26-2.63.14.14,0,0,1,.15.12.14.14,0,0,1-.11.15,21.27,21.27,0,0,0-7.91,3,16.91,16.91,0,0,0-3.21,2.7,17.47,17.47,0,0,0-2.5,3.39.26.26,0,0,1-.47-.24Z"/>
    <path d="M577.05,69.5a6.31,6.31,0,0,1,.74-1.18,4.61,4.61,0,0,1,1.11-.85,5.18,5.18,0,0,1,2.62-.66.16.16,0,0,1,.16.17.19.19,0,0,1-.11.16,10,10,0,0,0-2.2,1.09,8.36,8.36,0,0,0-.92.75,9.88,9.88,0,0,1-.86.85l-.06,0a.32.32,0,0,1-.45,0A.29.29,0,0,1,577.05,69.5Z"/>
    <path d="M624.47,166.73a20.11,20.11,0,0,0,4-1.93A17.66,17.66,0,0,0,631.9,162a19.16,19.16,0,0,0,4.26-7.82.2.2,0,0,1,.24-.13.19.19,0,0,1,.14.21,16.61,16.61,0,0,1-3.86,8.43,14.53,14.53,0,0,1-8,4.76.37.37,0,0,1-.2-.71Z"/>
    <path d="M638.24,163.62a6.3,6.3,0,0,1-1.83,3.31,7.86,7.86,0,0,1-3.17,2,.2.2,0,0,1-.25-.12.2.2,0,0,1,.07-.22,15,15,0,0,0,2.59-2.35,20.82,20.82,0,0,0,1.89-2.86.38.38,0,0,1,.7.25Z"/>
    <g>
      <path d="M535.82,222.69c-4.09,1.23-7.61,2.23-10.53,3.08a7.86,7.86,0,0,1-3.44.34,8.63,8.63,0,0,1-4.32-2.13,10.33,10.33,0,0,1-2.29-2.77,15.94,15.94,0,0,1-2,.88,6,6,0,0,1-2,.47,3.75,3.75,0,0,1-2-.54,3.59,3.59,0,0,1-1-1,3.47,3.47,0,0,1-.59-1.53,3.81,3.81,0,0,1,.59-2.47,5,5,0,0,1,2-1.78,7.28,7.28,0,0,1,2.84-.93A8.67,8.67,0,0,1,514.2,210c1.71-2.78,4.74-3.71,6.11-4.16,5.64-1.83,11.27-3.68,16.93-5.43Q555.8,194.65,574.4,189c1.88-.57,3.74-1.31,5.88-.55a9.5,9.5,0,0,1,4.65,3.15c.43.55.84,1.12,1.21,1.63a29.72,29.72,0,0,0,4.07-1.68,27,27,0,0,1,3.23-1.55,9.38,9.38,0,0,1,3-.67,3.55,3.55,0,0,1,3.9,2.19,4.6,4.6,0,0,1-.25,4.86,5.44,5.44,0,0,1-1,1,6.6,6.6,0,0,1-3.11,1.2c-1.87.27-4.57.75-8,1.32-.22,1.28-.6,3.33-1.17,5.44a3.81,3.81,0,0,1-.93,1.82,5.61,5.61,0,0,1-2,1.08,24.15,24.15,0,0,1-2.33.8,15.29,15.29,0,0,0,2.73,1.19c3,1,5.18.64,8.47.5,6.05-.25,9.13-.34,11.72,1.56a7,7,0,0,1,2.8,3.71c1.1,4.11-2.91,8.12-4,9.24-2,2-4,2.94-6.87,4.22a50.61,50.61,0,0,1-13.78,3.84,67.8,67.8,0,0,1-11.82.46c-3-.07-12.29-.32-19.87-2.84-2.3-.76-4.94-1.9-8-3.2a19.85,19.85,0,0,1-2.42-1.19A19,19,0,0,1,535.82,222.69ZM579,209.8l-40.32,12.07a63.18,63.18,0,0,0,12.13,4.42c6.42,1.61,12.69,2.34,12.65,2.68,0,.16-1.58.1-1.94.09-6.94-.26-18.12-3.67-21.88-4.85,1.52.79,3.61,1.8,6.14,2.82a70.7,70.7,0,0,0,17.73,4.61,69.33,69.33,0,0,0,21.32-.6c9.84-1.88,13.74-4.14,15.76-5.74,1.28-1,6.08-4.82,5.26-8.31a5.73,5.73,0,0,0-1.44-2.47,6.38,6.38,0,0,0-4.57-2c-2.82,0-5.64.08-8.45.18C587.08,212.81,582.72,213.16,579,209.8Zm-52.28,13.92,57.65-17.6c.38-.72,2.85-5.64.55-10.4a10.1,10.1,0,0,0-2.66-3.36c-5.65,1.57-10.2,2.95-13.27,3.9,0,0-13.71,4.26-25.58,7.22a8.31,8.31,0,0,1-1.73.35c-.06-.18,6.64-2.47,12.87-4.37,2.87-.88,5.13-1.54,9.87-3,1.13-.35,2.25-.71,3.38-1.08,4.23-1.4,8.61-2.4,12.91-4.21a7.36,7.36,0,0,0-.63-.59,5.9,5.9,0,0,0-2.19-1.07l-8.2,2.43c-12.25,3.63-18.88,5.51-23.51,6.87-6.48,1.91-15.79,4.77-27.42,8.76a11,11,0,0,1,1.54,0,13.5,13.5,0,0,1,1.55.14c4.75-1.31,5.82-1.45,5.87-1.32s-.49.39-1.57.88l-2.78,1.17a12.1,12.1,0,0,1,3.35,15.33Zm-3.33-4c-.34.38-1.36-.55-2.87-.66a5.61,5.61,0,0,0-3.81,1.39c.64.77,1.16,1.47,1.76,2.1a7.32,7.32,0,0,0,1.38,1.16c2.77,1.74,5.16.75,6.54-2.18,1.48-3.13-1-10.17-4.38-11.93a7.82,7.82,0,0,0-1.94-.76,4.5,4.5,0,0,0-3,.32,4.24,4.24,0,0,0-1.6,1.49,5.84,5.84,0,0,0-1,3.53c1-.15,1.88-.3,2.53-.41a13.55,13.55,0,0,0,1.51-.37c1.14-.33,1.58-.59,1.67-1a1.25,1.25,0,0,0-.4-1,.88.88,0,0,1,.64-.09c.67.21,1,1.58.58,2.41-.27.54-.82.85-2,1.11-2.25.51-4.56.75-6.83,1.16-1.84.34-2.27.89-2.53,1.26a2.66,2.66,0,0,0,.08,3.2,1.7,1.7,0,0,0,.87.39,5.14,5.14,0,0,0,3.31-.72,51.94,51.94,0,0,1,6.53-2.7,2.33,2.33,0,0,1,1.6,0,2.28,2.28,0,0,1,.49.32C523.28,218.31,523.73,219.39,523.42,219.73Zm63.33-25c.33,1.21.66,2.43,1,3.64,2.18-.38,4.76-.85,7.67-1.43,1.7-.33,2.79-.57,3.42-1.52a3.25,3.25,0,0,0-.47-4.07,3.17,3.17,0,0,0-2.43-.26,14.35,14.35,0,0,0-4.86,1.89A33.75,33.75,0,0,1,586.75,194.69Z"/>
      <path d="M578,211.21a3.29,3.29,0,0,1,1,.36s.29.13,3.54,1.33a23.19,23.19,0,0,0,5.71,1.17c3.19.35,5.89.17,5.91.33s-.23.1-.46.14c-2.58.38-8.55,1-12.66-1.23A14.39,14.39,0,0,1,578,211.21Z"/>
      <path d="M583,203.9q-6.43,2.31-13.3,4.53t-13.16,4c-.14,0-.3-.07-.32-.17-.06-.3,1.37-.87,5-2.11,3-1,5.27-1.76,5.41-1.8l5.71-1.82c9.32-2.93,10.89-3.29,11-3C583.36,203.57,583.34,203.67,583,203.9Z"/>
      <path d="M519.32,221.75a1,1,0,0,1,.13-.57,3.2,3.2,0,0,0,2.59,1.43,3.1,3.1,0,0,0,2.29-1.63c1.4-2.16.14-4.89,0-5.19,0-.13,0-.29,0-.32s.78.64,1.06,1.08a5,5,0,0,1-1,5.87,4.18,4.18,0,0,1-1.43.78,3.33,3.33,0,0,1-1.74.07C520.54,223.1,519.38,222.58,519.32,221.75Z"/>
    </g>
    <path class="cls-4" d="M618.87,84.65a22.32,22.32,0,0,0-6.67-3.71c-2.31-.76-5.69-1.9-9.22-.39-.79.34-3.76,1.62-4.87,4.49-.61,1.59-1,4.44,3.72,11.65,4.07,6.29,5.75,6.32,9.73,11.66,3.77,5.05,8.62,11.56,8.72,19.6,0,4,.15,6,.38,10.12.17,3.05.32,4.92,1.66,6.66.26.33,2.29,2.89,5.13,2.82,3.66-.09,5.93-4.48,6.66-5.89,2.25-4.36,1.94-8.61,1.54-12.81-1.17-12.2-1.76-18.3-2.95-21.78h0C630.16,93.5,620.11,85.6,618.87,84.65Z"/>
    <path d="M594.9,102.56c3.54,3,7.17,5.87,10.48,9.16.83.82,1.61,1.71,2.36,2.59s1.5,1.78,2.21,2.71a24.3,24.3,0,0,1,3.45,6.15A30.77,30.77,0,0,1,615,137.08a23.31,23.31,0,0,1-.61,3.5l-.94,3.35a26.32,26.32,0,0,0-1,6.71,13.05,13.05,0,0,0,.31,3.28,6.84,6.84,0,0,0,1.49,2.78,7.34,7.34,0,0,0,5.46,2.83c2.05-.08,3.92-1.5,5.42-3.1a29.54,29.54,0,0,0,3.9-5.52,53.69,53.69,0,0,0,3-6.16,34.79,34.79,0,0,0,1.92-6.51,58.7,58.7,0,0,0,.93-13.64,60.07,60.07,0,0,0-7-26.27,82.68,82.68,0,0,0-7.33-11.61,29.43,29.43,0,0,0-10.38-8.53A29.73,29.73,0,0,0,603.82,76a32.66,32.66,0,0,0-6.74-.8,20.2,20.2,0,0,0-6.63.94,12,12,0,0,0-2.93,1.47A9.6,9.6,0,0,0,585.31,80a12,12,0,0,0-1.66,6.31,10.94,10.94,0,0,0,1.88,6.26,33.08,33.08,0,0,0,2.07,2.72c.73.89,1.47,1.77,2.25,2.61,1.56,1.68,3.32,3.17,5.06,4.71Zm-.31.37a68.69,68.69,0,0,1-5.28-4.56c-.84-.82-1.61-1.69-2.38-2.57a33.45,33.45,0,0,1-2.21-2.74,11.36,11.36,0,0,1-1.63-3.22,13.13,13.13,0,0,1-.58-3.57,12.88,12.88,0,0,1,1.76-7,11,11,0,0,1,2.52-2.7A13.07,13.07,0,0,1,590,75a21.55,21.55,0,0,1,7.05-1.06,34.49,34.49,0,0,1,7,.78,29.76,29.76,0,0,1,17.69,11.1,78.47,78.47,0,0,1,7.53,11.82,64.29,64.29,0,0,1,6.23,41,34.37,34.37,0,0,1-2,6.78,54.37,54.37,0,0,1-3.12,6.31,30.93,30.93,0,0,1-4.15,5.76,14.11,14.11,0,0,1-2.81,2.33,7.33,7.33,0,0,1-3.6,1.15,7.09,7.09,0,0,1-3.66-1,10.25,10.25,0,0,1-2.83-2.37,8.3,8.3,0,0,1-1.73-3.3,14.37,14.37,0,0,1-.3-3.61,27.14,27.14,0,0,1,1-7l1-3.33a20.37,20.37,0,0,0,.61-3.33,29.67,29.67,0,0,0-1.46-13.45c-1.53-4.28-4.58-7.87-7.63-11.27-3.2-3.3-6.78-6.26-10.26-9.31Z"/>
    <g>
      <path class="cls-4" d="M681.89,85.81A15.36,15.36,0,0,1,675,79.4c-.92-1.48-5.14-8.26-1.92-15.12a13.88,13.88,0,0,1,8.71-7.3c6.72-1.71,12,2.86,12.81,3.59A17,17,0,0,1,700,71.2c.42,2.72,1.21,7.76-1.92,11.66C694.26,87.55,686.91,88,681.89,85.81Z"/>
      <path d="M681.58,86.5a14.62,14.62,0,0,1-4.88-3.6,23.92,23.92,0,0,1-3.3-5,19.39,19.39,0,0,1-1.87-5.67,13.73,13.73,0,0,1,.28-6,9.24,9.24,0,0,1,.48-1.43,10.62,10.62,0,0,1,.64-1.37A16,16,0,0,1,674.65,61a13.9,13.9,0,0,1,4.72-3.64,13.3,13.3,0,0,1,5.83-1.21A14.24,14.24,0,0,1,691,57.65a17.5,17.5,0,0,1,4.84,3.44,15.63,15.63,0,0,1,3.31,5,22.43,22.43,0,0,1,1.51,5.74,20.12,20.12,0,0,1,.21,6,11.28,11.28,0,0,1-2.34,5.63,11.67,11.67,0,0,1-5,3.53,14.69,14.69,0,0,1-3,.78,17.21,17.21,0,0,1-3,.15A16.2,16.2,0,0,1,681.58,86.5Zm.61-1.39a15.42,15.42,0,0,0,5.37,1.15,14.13,14.13,0,0,0,5.41-.77,10.15,10.15,0,0,0,4.44-3,9.79,9.79,0,0,0,2.15-4.92,19.22,19.22,0,0,0-.09-5.61,21.69,21.69,0,0,0-1.34-5.5,15.15,15.15,0,0,0-7.56-8,13.4,13.4,0,0,0-5.4-1.41,11.89,11.89,0,0,0-5.44,1.12,13.2,13.2,0,0,0-4.38,3.44,13.44,13.44,0,0,0-1.59,2.32,9.6,9.6,0,0,0-.56,1.27,8.92,8.92,0,0,0-.42,1.33c-1,3.63,0,7.52,1.74,10.81a22.37,22.37,0,0,0,3.2,4.62A13,13,0,0,0,682.19,85.11Z"/>
    </g>
    <path class="cls-3" d="M678.85,69.22c1.39-.91,1.85-3.07,1-4.17a1.62,1.62,0,0,0-1.27-.65c-1.66.13-3,4.15-2,5.1C677.08,70,678.23,69.62,678.85,69.22Z"/>
    <path class="cls-3" d="M684.77,66.56a1.88,1.88,0,0,0-.54,1.47,1.9,1.9,0,0,0,1.15,1.6,2,2,0,0,0,2.44-.86,1.9,1.9,0,0,0-.29-2A2,2,0,0,0,684.77,66.56Z"/>
    <path class="cls-3" d="M686,60.6a1.22,1.22,0,0,0-.67,1.22c.14.62,1.09.87,1.76.77s1.36-.58,1.34-1.06C688.36,60.87,686.88,60.09,686,60.6Z"/>
    <path class="cls-3" d="M693.71,67.46a1.46,1.46,0,0,0,1.15,2.43A1.33,1.33,0,0,0,696,68.77a1.48,1.48,0,0,0-.48-1.25A1.37,1.37,0,0,0,693.71,67.46Z"/>
    <path class="cls-3" d="M692.27,77.86c-.73,1.11-1.31,1.08-1.57,2a2.5,2.5,0,0,0,.7,2.66c1.18.72,3.08-.82,3.2-.93,2.21-1.83,2-5,1.93-7.08-.08-1.45-.36-1.88-.68-2-.6-.26-1.52.45-2,1C692.63,75,693.42,76.1,692.27,77.86Z"/>
    <path class="cls-3" d="M687.56,77.38a6.31,6.31,0,0,0-2.43-3,4.77,4.77,0,0,0-3-1.31,2.9,2.9,0,0,0-2.27,1c-.92,1.39.58,3.57.83,3.94a6.06,6.06,0,0,0,4.65,2.6,2.68,2.68,0,0,0,2.21-.61C688.16,79.2,687.75,78,687.56,77.38Z"/>
    <g>
      <path class="cls-5" d="M652.88,155a65.49,65.49,0,0,1-3.11-9.64c-1.84-7.71-1.24-11.48-1.06-12.49.41-2.26,1.07-5.61,3.75-7.21a5.27,5.27,0,0,1,3.94-.57c2.9.88,3.58,4.71,4.42,4.51s-.27-4.89,2-10c.45-1,1.34-3,2.59-3,1.53,0,2.21,2.83,3.27,2.69,1.4-.19.45-5.34,3.74-9.41.33-.41,2.8-3.4,5.1-2.89,1.57.35,1.62,2,2.88,2.21,2,.31,3-3.91,7.4-7.39,2.65-2.12,6.71-4.08,8.26-2.79.16.13.5.48.67,1.63.3,2.08-.38,4-3.17,8.75,0,0-1.75,3-3.75,7.2-.44,1-1,2.24-.57,2.69.73.73,3.24-1.7,4.8-.86,1.11.59,1.75,2.82,1.06,4.51-1.37,3.34-7.19,2.73-11.44,7-.21.22-1.24,1.27-1,1.82.43.84,3.33-.44,4.23.67.6.74.07,2.25-.48,3.17-2.29,3.88-8.64,4-8.55,4.71.06.52,3.15-.13,4.71,1.63a4.1,4.1,0,0,1,.77,3.85c-1,2.49-5.13,2.08-14.7,3.94-7.22,1.39-9.84,2.46-12.11,3.94a16.11,16.11,0,0,0-5.12,5,14.92,14.92,0,0,0-2.08,8.77"/>
      <path d="M652.17,155.23a64.65,64.65,0,0,1-3.86-13.38,33.49,33.49,0,0,1-.53-7,19.62,19.62,0,0,1,.5-3.53,13.77,13.77,0,0,1,1.19-3.42,7.16,7.16,0,0,1,2.53-2.8,6.05,6.05,0,0,1,3.75-.88,5.14,5.14,0,0,1,3.36,1.92,11,11,0,0,1,1,1.52l.43.74a3,3,0,0,0,.37.54s0,0-.07,0a.32.32,0,0,0-.3,0c-.19.13-.12.15-.11.06a3.75,3.75,0,0,0,.09-.7l.08-1.71a24.82,24.82,0,0,1,.41-3.52,17.11,17.11,0,0,1,1.05-3.42,8.55,8.55,0,0,1,2-3.16,2.23,2.23,0,0,1,1.07-.51,1.85,1.85,0,0,1,1.25.23,4.56,4.56,0,0,1,1.39,1.43c.17.24.33.47.48.66a1.32,1.32,0,0,0,.36.34s0,0,0,0,0,0,0,0,0,0,0,0a2.88,2.88,0,0,0,.22-.62c.25-1,.4-2.23.69-3.37a14.49,14.49,0,0,1,1.27-3.37,11.46,11.46,0,0,1,2.21-2.87,7.32,7.32,0,0,1,3.19-1.92,3.18,3.18,0,0,1,2,.2,3.85,3.85,0,0,1,1.41,1.36c.6.93,1.32.86,2.08,0s1.36-1.77,2.07-2.68a24.21,24.21,0,0,1,2.32-2.64,21.6,21.6,0,0,1,2.73-2.23,18.28,18.28,0,0,1,3.08-1.75,9,9,0,0,1,1.73-.58,4.13,4.13,0,0,1,2,0,2.13,2.13,0,0,1,1,.6,2.61,2.61,0,0,1,.5,1,6.4,6.4,0,0,1,.25,1.88,9.2,9.2,0,0,1-.9,3.54c-.48,1.09-1,2.12-1.6,3.13-1.18,2-2.28,4-3.32,6-.51,1-1,2.06-1.49,3.08a4.7,4.7,0,0,0-.45,1.42c0,.08,0,.13,0,.11s-.06,0,0,0a1.56,1.56,0,0,0,.56-.14c.5-.2,1-.46,1.59-.69a3.6,3.6,0,0,1,2-.29,2,2,0,0,1,1,.52,3.26,3.26,0,0,1,.63.83,5,5,0,0,1,.32,3.78,5,5,0,0,1-.43.9,5.19,5.19,0,0,1-.63.76,9.82,9.82,0,0,1-3.19,1.77,23.06,23.06,0,0,0-6.06,2.89,11.68,11.68,0,0,0-1.26,1.07,4,4,0,0,0-.9,1.17.63.63,0,0,0,0,.12s-.06-.09,0-.07a1.53,1.53,0,0,0,.59,0c.53,0,1.12-.11,1.75-.1a3.11,3.11,0,0,1,1,.14,1.67,1.67,0,0,1,1,.75,2.77,2.77,0,0,1,.06,2.11,6.54,6.54,0,0,1-2,3.1c-1.89,1.64-4.3,2.25-6.49,2.82a5,5,0,0,0-.69.23l0,0,.06-.07c.11-.09,0-.5-.09-.53a.05.05,0,0,0-.05,0h.05l.15,0c.51.06,1.13.08,1.73.18a5.8,5.8,0,0,1,1.81.58,3.8,3.8,0,0,1,1.47,1.37,4.61,4.61,0,0,1,.52,3.83,3.24,3.24,0,0,1-1.33,1.62,6.62,6.62,0,0,1-1.76.74c-2.33.6-4.6.84-6.86,1.23s-4.5.8-6.74,1.26c-4.47,1-8.92,2-12.3,5a17,17,0,0,0-2.32,2.33,12.73,12.73,0,0,0-1.67,2.8,15.75,15.75,0,0,0-1.23,6.5.41.41,0,0,1-.81.05,15.21,15.21,0,0,1,.89-7,13.74,13.74,0,0,1,1.72-3.17,15.7,15.7,0,0,1,2.47-2.61,18.88,18.88,0,0,1,6.16-3.59,53.23,53.23,0,0,1,6.78-1.76c2.26-.47,4.55-.83,6.83-1.16s4.6-.57,6.73-1.08c1.06-.28,2-.71,2.27-1.52a3.47,3.47,0,0,0-.36-2.79,3.35,3.35,0,0,0-2.46-1.46c-.53-.1-1.06-.12-1.7-.2A2.32,2.32,0,0,1,678,141l-.15,0a2,2,0,0,1-.25-.14.8.8,0,0,1-.25-.41.67.67,0,0,1,.1-.49.74.74,0,0,1,.2-.22l.16-.1a5,5,0,0,1,.93-.33c2.23-.57,4.43-1.18,6.07-2.59a5.53,5.53,0,0,0,1.69-2.59,1.88,1.88,0,0,0,0-1.26c-.1-.22-.53-.35-1.05-.34s-1.08.07-1.7.1a2.43,2.43,0,0,1-1.1-.14,1,1,0,0,1-.57-.7,1.24,1.24,0,0,1,.08-.72,4.81,4.81,0,0,1,1.15-1.57,13.87,13.87,0,0,1,1.37-1.17,24.4,24.4,0,0,1,6.33-3,8.62,8.62,0,0,0,2.81-1.53,3.17,3.17,0,0,0,1-2.69,3.87,3.87,0,0,0-.41-1.44,1.37,1.37,0,0,0-.89-.79,2.6,2.6,0,0,0-1.38.24c-.5.2-1,.45-1.57.69a2.48,2.48,0,0,1-1.11.2,1,1,0,0,1-.75-.45,1.34,1.34,0,0,1-.19-.72,5.1,5.1,0,0,1,.53-1.86c.48-1.07,1-2.1,1.5-3.14,1-2.06,2.15-4.12,3.31-6.08a31.65,31.65,0,0,0,1.54-3,8,8,0,0,0,.8-3.09,5.18,5.18,0,0,0-.19-1.53,1,1,0,0,0-.72-.81,3,3,0,0,0-1.43,0,8.33,8.33,0,0,0-1.56.45,16.59,16.59,0,0,0-5.59,3.63,21.77,21.77,0,0,0-2.19,2.58c-.68.9-1.27,1.87-2.09,2.8a2.53,2.53,0,0,1-1.82,1,1.77,1.77,0,0,1-1.11-.33,3.23,3.23,0,0,1-.71-.73,2.92,2.92,0,0,0-1-1,2,2,0,0,0-1.31-.07,6.23,6.23,0,0,0-2.61,1.67,11,11,0,0,0-1.94,2.6,12.57,12.57,0,0,0-1.14,3.07c-.28,1.09-.41,2.18-.69,3.39a3.26,3.26,0,0,1-.38,1,1.18,1.18,0,0,1-.24.29.77.77,0,0,1-.35.23,1.13,1.13,0,0,1-.88,0,2.24,2.24,0,0,1-1-.74c-.2-.26-.37-.5-.54-.73a3.39,3.39,0,0,0-1-1c-.29-.17-.52-.11-.86.15a7.68,7.68,0,0,0-1.61,2.66,16.54,16.54,0,0,0-.95,3.17,22.93,22.93,0,0,0-.37,3.33l-.08,1.73a4.42,4.42,0,0,1-.14,1,1.15,1.15,0,0,1-.58.76,1,1,0,0,1-.72.06,1.5,1.5,0,0,1-.42-.25,3.62,3.62,0,0,1-.64-.86l-.44-.75a9.16,9.16,0,0,0-.91-1.33,3.74,3.74,0,0,0-2.46-1.42,4.61,4.61,0,0,0-2.85.69,5.71,5.71,0,0,0-2,2.27,12,12,0,0,0-1,3.07,16.92,16.92,0,0,0-.46,3.29,32.23,32.23,0,0,0,.54,6.7,62.68,62.68,0,0,0,3.82,13.06.76.76,0,0,1-1.4.58Z"/>
    </g>
    <path d="M650.58,158.74a108.53,108.53,0,0,1,6.08-11.67,113,113,0,0,1,7.4-10.87,107.12,107.12,0,0,1,8.68-9.87c1.55-1.55,3.15-3.06,4.78-4.51a45,45,0,0,1,5.15-4.08.24.24,0,0,1,.33.07.26.26,0,0,1,0,.3c-1.57,1.52-3.2,3-4.8,4.42s-3.15,3-4.66,4.55a115.45,115.45,0,0,0-8.49,9.86,105.56,105.56,0,0,0-13.14,22.37.7.7,0,0,1-.93.37.71.71,0,0,1-.37-.93Z"/>
    <g>
      <path class="cls-5" d="M649.31,100.14c-1.91-2.76-4.48-6.5-7.51-10.94-8-11.77-8.84-13.13-9.52-15.47-.43-1.48-3.09-11.16,1.73-20.27a17.06,17.06,0,0,1,7-7.59c1.36-.72,4.66-2.47,8.26-1.44s5.33,4.13,6.92,6.92a24.44,24.44,0,0,1,3,15,25.85,25.85,0,0,1-3.05,9c-1.85,3.52-2.79,3.59-4.48,6.41-.59,1-5.29,9.08-2.51,17.93a19.65,19.65,0,0,0,4.08,7.14"/>
      <path d="M648.69,100.58c-3.33-4.87-6.69-9.7-10-14.59-1.64-2.45-3.29-4.89-4.86-7.41a20.23,20.23,0,0,1-2.05-4.08,26.48,26.48,0,0,1-1-4.42,30.1,30.1,0,0,1,0-9,25.3,25.3,0,0,1,1.1-4.38,31,31,0,0,1,1.92-4.08,19.62,19.62,0,0,1,6-6.7A14.93,14.93,0,0,1,644,44a10.09,10.09,0,0,1,4.64-.3,8.65,8.65,0,0,1,4.18,2.07,15.34,15.34,0,0,1,2.84,3.57,27.16,27.16,0,0,1,3.55,8.23,24.35,24.35,0,0,1,.48,9A25.72,25.72,0,0,1,656.9,75a21.06,21.06,0,0,1-2.4,3.84A20.08,20.08,0,0,0,652,82.38a26.44,26.44,0,0,0-2.69,8.11,20.59,20.59,0,0,0,.4,8.42,20.94,20.94,0,0,0,3.81,7.6.4.4,0,0,1-.07.57.41.41,0,0,1-.54,0,18.31,18.31,0,0,1-4.62-7.74,19.75,19.75,0,0,1-.79-4.51,24.79,24.79,0,0,1,.29-4.56,26.09,26.09,0,0,1,3.09-8.49,23.63,23.63,0,0,1,2.71-3.61,18.28,18.28,0,0,0,2.33-3.61,24.77,24.77,0,0,0,2.71-8.16,22.71,22.71,0,0,0-.46-8.57,26.23,26.23,0,0,0-3.46-7.9,13.83,13.83,0,0,0-2.65-3.3,7.54,7.54,0,0,0-3.64-1.77,8.92,8.92,0,0,0-4.1.27,21.29,21.29,0,0,0-3.89,1.71,14.38,14.38,0,0,0-5.68,6.29,27.43,27.43,0,0,0-2.61,16.79,25.35,25.35,0,0,0,1,4.18,18.78,18.78,0,0,0,1.95,3.77c1.56,2.47,3.23,4.89,4.88,7.32l10,14.55h0a.76.76,0,0,1-.19,1,.77.77,0,0,1-1.06-.19Z"/>
    </g>
    <path d="M646.56,57.65c-.6,3.92-.95,7.85-1.21,11.8a89.28,89.28,0,0,0-.11,11.79q.19,2.94.66,5.84c.35,1.92.48,3.88.89,5.8a33.65,33.65,0,0,0,4.53,10.76.51.51,0,0,1-.16.7.49.49,0,0,1-.69-.16h0a43.34,43.34,0,0,1-5-11,40.68,40.68,0,0,1-1.93-11.88,76.21,76.21,0,0,1,.5-12,107,107,0,0,1,1.84-11.81.35.35,0,0,1,.42-.27A.34.34,0,0,1,646.56,57.65Z"/>
  </g>
  <g id="luigi_tűz_és_dobozok" data-name="luigi tűz és dobozok">
    <path class="cls-4" d="M837.85,193.53c-4.12-.81-12.8-2.63-20.08-10.19a34.79,34.79,0,0,1-9.31-20.07c-1.25-11.36,3.71-20.28,7-26.18,4.86-8.77,8.21-9.63,13.09-19A66.57,66.57,0,0,0,834.65,101,16.73,16.73,0,0,1,840,110c.73,3.81-.47,6.46-4.18,16.66C831.29,139,830.56,142,832,143.45s4.74,1,6.69,0c3.46-1.62,4-5,7.85-12.8,2.67-5.46,4-8.19,5.24-9.89,2.4-3.31,6.78-7.45,15.42-10.18a20.56,20.56,0,0,0-6.11,10.76c-.73,3.87.29,7.82,2.33,15.71,2.28,8.86,3.49,9.56,3.2,13.67s-1.63,6-.3,8.44,4.83,4.07,7.28,3.49c4.11-1,7-8.37,6.11-18.62a21.05,21.05,0,0,1,7,8.73c4.73,11.5-3.77,23.53-5.24,25.6C871.46,192.57,852,196.29,837.85,193.53Z"/>
    <path class="cls-4" d="M1072.25,177.16c-4.66-1.93-10.91-4.62-15.28-11.13-3.68-5.48-4.42-11.3-5.23-17.67a59.49,59.49,0,0,1,0-14c.43-3.84.68-5.8,1.74-7.86,2.91-5.61,9.32-7.6,12.22-8.29a17.21,17.21,0,0,0-5,9c-.17.88-1.7,9.11,2.62,11.56,2.87,1.63,7.13,0,9.6-2.18,3.79-3.38,1.69-6.64,5.24-12.22,3.32-5.23,6.26-4.07,10.25-10a24.8,24.8,0,0,0,3.93-10,23.92,23.92,0,0,0-1.53-12.22,33.58,33.58,0,0,1,7.2,8.29c2,3.34,5.68,9.26,4.8,16.15s-5.35,8.82-3.93,13.09c1,2.83,4,5.16,6.77,5,5.14-.28,7.86-9.1,8.07-9.82,2.54-8.57-2.31-13,.44-19.2,1.07-2.42,3.54-5.65,10-8.07a26.17,26.17,0,0,0-2.83,11.12c-.14,6.58,2.5,10.39,4.36,15.28,5.17,13.59,1.08,27.16,0,30.76-1.59,5.28-4.56,15.16-13.75,21.6C1096.4,187.2,1076.42,178.9,1072.25,177.16Z"/>
    <path class="cls-3" d="M840.07,195.7c0,2.73,0,6.58.1,11.21.24,9.41.36,14.39,1.17,20.51.62,4.73,2.25,11,5.52,23.56,2.41,9.24,3.18,11.37,4.51,14,2.19,4.25,5.22,10,11.78,13.24a22.11,22.11,0,0,0,10.19,2.33c7.09-.16,12.24-4,14.83-5.82,8-5.73,18.58-12.41,32.88-20.8a49.89,49.89,0,0,0-.22,17.06,48.71,48.71,0,0,0,1.38,6.07,62.7,62.7,0,0,1,7.85-19.79c4.3-6.94,8.08-9.77,12.37-17.89a63.89,63.89,0,0,0,5.38-14l43.93-.44c.93,2.71,2.33,6.6,4.21,11.2,4.18,10.23,6.55,15.91,11.2,21.82a53.47,53.47,0,0,0,10.67,10.2q-.54-5.6-1.07-11.17c6.27,2.79,11.16,5.4,14.4,7.23,9.83,5.53,14.74,8.29,16.88,9.74,3.21,2.18,5.58,4,9.45,4.51a17.37,17.37,0,0,0,8.58-1.16c1.54-.59,6.59-2.74,12.22-11.35,2.72-4.15,4.77-8.58,7.42-17.31a163,163,0,0,0,5.82-25.45,178.62,178.62,0,0,0,1.8-30.29,31.84,31.84,0,0,0,6-4.18c6.08-5.36,8.51-11.76,11.17-18.77,2.13-5.61,1.53-6.24,3.16-11.56a22.26,22.26,0,0,0,.55-4.26,3.06,3.06,0,0,0-.5-2.45,2.18,2.18,0,0,0-1.52-.6c-1.49,0-2.55,1.84-3,2.51a87.13,87.13,0,0,1-7.42,10.63c-.09,0,1.6-3.22,3.22-7.47a68.47,68.47,0,0,0,2.51-8c.59-2.36,1-4.41,1.2-6a1.66,1.66,0,0,0-1-.71c-1.48-.23-3,2.41-3.87,3.93-3.92,7.11-6.62,16-6.84,15.93s.44-5.12,2.1-12.17c.68-2.91.65-5.94,1.14-8.89.2-1.17.57-3.29-.43-4a1.82,1.82,0,0,0-1.37-.17c-2,.44-3.15,3.27-3.76,5-2.19,6.24-3.82,15.43-4.31,18.33a39.32,39.32,0,0,1-.49-7.64c.14-4.21,1-8.08.22-13.58-.22-1.57-.54-3.15-1.42-3.38-1-.27-2.27,1.44-2.62,1.91-2,2.78-2.09,5.92-2.18,8.13-.21,5.13-.29-3-1.26,12.32-.19,3.14-.43,7.24-.64,12.09a9.3,9.3,0,0,1-3-1.12,8.91,8.91,0,0,1-2.56-2.24c-.86-1.12-1-2-1.7-4.64a60,60,0,0,0-2.5-7.34,5.79,5.79,0,0,0-2.24-2.8,5.21,5.21,0,0,0-.93-.44,3.31,3.31,0,0,0-1.42,1,4.54,4.54,0,0,0-.6,3.49c.72,5,1.08,7.45,1.26,8a84.82,84.82,0,0,1,2.83,14.29,56.37,56.37,0,0,0,1.75,9c.45,1.53.89,2.77,1.2,3.6q-9.35,16.67-18.44,34.47c-1.59,3.14-3.17,6.27-4.71,9.39a4.39,4.39,0,0,0-6.11-5A41,41,0,0,0,1043,220a43.77,43.77,0,0,0-8.4-14.72c-3.34-3.91-9.46-11.06-19-13.2-4.35-1-6.12-.17-13.24-1.92a27,27,0,0,1-10.11-4.63c-2.56-2-3.55-3.59-4-5.13a8.83,8.83,0,0,1-.33-3.65,8.86,8.86,0,0,0,3.38,1.58c.84.19,3.47.78,5.45-.6,1.64-1.13,1.18-2.45,2.84-3.27a5.69,5.69,0,0,1,3.87-.16c1.66.47,1.92,1.34,3,1.3,1.33,0,2.28-1.39,2.89-2.29s1.6-2.56,2.19-7.14c.52-4.12.83-6.82-.82-8.89a4.72,4.72,0,0,0-1.75-1.42c-1-.45-2.25-.55-5.51.54-3.9,1.32-4.53,2.29-7,2.62a11,11,0,0,1-4-.22,3.74,3.74,0,0,1-.6-2.12,4.66,4.66,0,0,1,1.69-3.06c2.33-2.31,3.79-3.77,6.43-5a20.26,20.26,0,0,1,12.66-1,92.21,92.21,0,0,0-1-12.27c-1.49-9.75-3.15-20.65-10.91-29.45-2.67-3-8-9.08-16.14-10.48-17.06-2.92-36.27,16.24-36.88,31.64A63.33,63.33,0,0,0,950.39,146c.59,1.92,1.65,5,2.73,9.71a62.7,62.7,0,0,1,1.63,9.49c.46,5.43.77,9.1-1.09,13.2a18.65,18.65,0,0,1-5.34,6.77c-2.14,1.74-4.85,3.21-12.33,4.9-9.15,2.08-9.62.9-14.73,2.4-5.46,1.61-8.87,4.12-15.19,8.77-6.77,5-10.45,7.68-13.61,12.73a34.08,34.08,0,0,0-5,17,5.13,5.13,0,0,0-2.84.66c-1.93,1.14-2.92,3.69-2.51,6.43q-7.38-14-14.73-28.36-4.75-9.31-9.38-18.54a117,117,0,0,0,2.4-11.57c1-6.57.45-6.73,1.47-10,.48-1.51,1.8-5.26,2.89-9.93a5.51,5.51,0,0,0-.32-4.36,4.44,4.44,0,0,0-2.18-1.64,9.14,9.14,0,0,0-2.4,2.13c-1.31,1.66-1.43,3.08-2.19,5.67a22.27,22.27,0,0,1-2.72,6.71,13,13,0,0,1-5.05,4.19,104.4,104.4,0,0,1-1.28-16.24c0-4,.25-8-1.53-13.09a27.74,27.74,0,0,0-2.62-5.46l-1.85.38q-.35,2.88-.55,5.95a112.78,112.78,0,0,0,.28,18,24,24,0,0,1-2-4.15c-.81-2.16-.84-3.21-1.75-7.91-1-5.21-1.45-6.45-2.23-7.74a13.47,13.47,0,0,0-2.68-3.16,2.81,2.81,0,0,0-1.09.76c-1.21,1.38-.68,3.63-.43,4.74.67,3.06.74,6.22,1.36,9.28a78.66,78.66,0,0,1,1.3,9.3,43.08,43.08,0,0,0-10.14-18.74,4.2,4.2,0,0,0-.87,1.36c-.83,2.17.51,4.51,1,5.4,1.16,2.18,2.5,5.74,3.59,12a18.32,18.32,0,0,0-5.39-7.53,17.23,17.23,0,0,0-3.16-2.08l-1.53,2c.1,1.46.28,3.47.66,5.84a70,70,0,0,0,4,14.4,44.84,44.84,0,0,0,4.36,9.16,26.62,26.62,0,0,0,7.8,8.35A23.21,23.21,0,0,0,840.07,195.7Z"/>
    <path class="cls-6" d="M1108,227.45l67.74-39.38,24.33,56.29c0,.87-.07,1.75-.11,2.62l-61.85,37.85-44.51-10.47,43.31,7.31,59-36.44q-10.85-25.08-21.7-50.18l-61.14,32.79Z"/>
    <path class="cls-7" d="M773.55,282.33q11.69-31.75,23.35-63.5l-6.55-1.09Q779,250,767.66,282.33Z"/>
    <path class="cls-7" d="M772.26,186.11q9.24,16,18.46,31.92l6.18.44-21.09-33.24Z"/>
    <path class="cls-7" d="M771.86,186.86l-13.8,55.9q4.59,19.71,9.17,39.42L790.72,218Z"/>
    <path class="cls-7" d="M776.6,274.05l72.66,4.35q-.82,5.16-1.67,10.33l-74-6.4Z"/>
    <path class="cls-7" d="M807.74,252.36l27.92,25.22,13.6.82-40.21-36.07C808.61,245.67,808.17,249,807.74,252.36Z"/>
    <path class="cls-8" d="M785.24,250.54l22.5,1.82c.43-3.34.87-6.69,1.31-10L789.3,239.5Z"/>
    <path class="cls-9" d="M785.24,250.54l22.5,1.82,27.92,25.22-59.06-3.53Z"/>
    <path class="cls-7" d="M1112,227.05q12.22,25,24.44,50l-6.76-1.2L1108,227.45Z"/>
    <path class="cls-7" d="M1112.5,226.58l63.16-33.93,21.06,51.93-58.15,36.33Z"/>
    <path class="cls-7" d="M1090.68,267.16l3,7.2,44.07,6.22c-.44-1.16-.87-2.33-1.31-3.49Z"/>
    <path class="cls-8" d="M1101.45,269.5l18.8-10.41-3.06-7.64-26.51,15.71Z"/>
    <path class="cls-9" d="M1129.39,275.35l-27.94-5.85,19.45-10.45Z"/>
    <path class="cls-7" d="M1315.47,207.15l-73.26,65.58,10.91,10.9L1327,214.36Z"/>
    <path class="cls-8" d="M1249.19,162.54l85.09,46.69-7.31,5.13L1247,163Z"/>
    <path class="cls-7" d="M1255.74,154.83l-7.71,7.28,86.69,45.82Z"/>
    <path class="cls-7" d="M1334.5,208.65,1309.7,157l-61.38-53.09q3.71,25.45,7.42,50.9Z"/>
    <path class="cls-7" d="M1241.92,106.83q2.55,28.08,5.09,56.15l8.73-8.15q-3.72-25.46-7.42-50.9Z"/>
    <path class="cls-7" d="M1254.28,199.93q-6,36.39-12.07,72.8l13.47-12.06q5.34-26,10.67-52Q1260.32,204.29,1254.28,199.93Z"/>
    <path class="cls-8" d="M1254.28,199.93l18.33-21.39,15,9.31-21.24,20.8Q1260.32,204.29,1254.28,199.93Z"/>
    <path class="cls-9" d="M1266.23,209.28Q1261,235,1255.68,260.67l59.84-53-27.93-19.86Z"/>
    <path class="cls-6" d="M1335.3,208.58q.75-.35-23.49-54.87-62.88-50.54-63.49-49.78T1309.7,157Q1334.55,208.92,1335.3,208.58Z"/>
    <path class="cls-7" d="M1322.06,100.8l-5.67,12.65,86.84,53.89q2.18-6.76,4.36-13.52Z"/>
    <path class="cls-7" d="M1322.06,100.8,1397.41,94q-3.5,6.33-7,12.66l-52,4.27Z"/>
    <path class="cls-8" d="M1430.14,75.71,1408,171.38l-4.8-4Z"/>
    <path class="cls-7" d="M1430.14,75.71l10.11,5.74q-14.14,46-28.3,92l-3.38-1.85Z"/>
    <path class="cls-8" d="M1412,173.45l46-39.27q14.51-36.87,29-73.75L1455.37,132Z"/>
    <path class="cls-7" d="M1440.25,81.45l46.76-21-30,72.44-44.28,39.92Q1426.49,127.12,1440.25,81.45Z"/>
    <path class="cls-7" d="M1430.14,75.71l51.2-20.08,5.67,4.8-46.76,21Z"/>
    <path class="cls-8" d="M1390.43,106.69l25.29,13.64,4.91-15.93L1397.41,94Q1393.92,100.36,1390.43,106.69Z"/>
    <path class="cls-9" d="M1416.21,121.09l-9.54,32.15L1338.46,111l52-4.27Z"/>
    <path class="cls-10" d="M1377.29,67l16.58,16.58a3.5,3.5,0,0,0,3,.34,2.9,2.9,0,0,0,1.7-1.48,3.13,3.13,0,0,0-1.07-3.47c-3-2.29-16.62-12.89-18.68-13.67-.32-.12-1.22-.46-1.63-.08a1.2,1.2,0,0,0-.24.84A1.56,1.56,0,0,0,1377.29,67Z"/>
    <path class="cls-10" d="M1396.68,54.11c.23,3.61,3,17.23,3.2,18.11.15.7.74,3.5,1.46,6.25a4,4,0,0,0,.87,1.75,3,3,0,0,0,1.82,1.09,3.15,3.15,0,0,0,2.69-1.6c1-1.64.28-3.75,0-4.58-1.24-3.72-3.55-11.58-6.69-22.19a2.18,2.18,0,0,0-1.6-1.63,1.5,1.5,0,0,0-1.06.14C1397.09,51.63,1396.56,52.15,1396.68,54.11Z"/>
    <path class="cls-10" d="M1415.33,80.62a3.36,3.36,0,0,1-3.38-.77,3.91,3.91,0,0,1-.43-3.34c1-5.24,7.54-20,8.36-21.89a3.41,3.41,0,0,1,.95-1.31c.33-.29.82-.71,1.23-.58s.79,1,.66,2a199,199,0,0,1-3.93,20.44C1418.32,77,1417.49,79.93,1415.33,80.62Z"/>
    <path class="cls-10" d="M1240.32,95.93c2,.45,3.38-.25,4.94-.59,3.83-.81,7.35.9,8.8,1.6a14.31,14.31,0,0,1,4.51,2.91c.66.68,1.25,1.46,1.6,1.31s.28-1.53.08-2.33c-.79-3.08-4.38-4.68-6.4-5.6a17.43,17.43,0,0,0-9.17-1.52,11.64,11.64,0,0,0-4.58,1.6c-1.64.89-1.69,1.34-1.67,1.52C1238.5,95.52,1240,95.86,1240.32,95.93Z"/>
    <path class="cls-10" d="M1252,85.23c-.4.07-2.57.42-2.8,1.5a1.15,1.15,0,0,0,.11.69c.49.85,2,.35,4.15.72a10.2,10.2,0,0,1,3.85,1.6c1.75,1.23,2.31,2.6,2.84,2.4s.55-1.28.36-2.18C1259.82,86.9,1255.34,84.69,1252,85.23Z"/>
    <path class="cls-10" d="M1227.08,164.76c2.85,1.14,4.37,1.93,4.37,1.93,3.12,1.62,6.24,3,15,7.93a4.38,4.38,0,0,1,2.4,2.4,4.55,4.55,0,0,1-2.76,5c-1.85.66-3.81-.55-5-1.34a139,139,0,0,1-16.14-13c-1.21-1.43-2.85-3.55-2.37-4.15C1222.67,163.44,1223.06,163.15,1227.08,164.76Z"/>
    <path class="cls-10" d="M1215,185.56c10.43-2.51,26.37-1.2,26.37-1.2,1.16.1,3.17.29,4.09,1.73a3.33,3.33,0,0,1-.09,3.65c-.94,1.19-2.76,1.17-3.77,1.14-7.15-.2-12.47-.68-15.22-.85-1.28-.07-7.27-.4-11.3-2.07-1.78-.73-1.91-1.21-1.9-1.42C1213.2,186,1214.38,185.71,1215,185.56Z"/>
    <path class="cls-10" d="M1223.94,207.27c2.25-2.22,7-6.4,17.21-13.34a2.85,2.85,0,0,1,1.64-.62,2.94,2.94,0,0,1,1.93.65,3.45,3.45,0,0,1,1.25,1.91,3.61,3.61,0,0,1-.11,2.18c-4,2.74-8.31,5.48-12.87,8.18q-3.36,2-6.65,3.82a8.05,8.05,0,0,1-2.79,1.2c-.76.17-2.07.46-2.37,0C1220.74,210.57,1222.67,208.52,1223.94,207.27Z"/>
    <path class="cls-10" d="M812.18,207.26l-8.28,19a1.69,1.69,0,0,0,.81,1.86,2.43,2.43,0,0,0,1.93.1,4.53,4.53,0,0,0,2.63-2.62c.9-3,5-16.84,5-18.45,0-.25-.05-.95-.54-1a1.65,1.65,0,0,0-.82.35A2.09,2.09,0,0,0,812.18,207.26Z"/>
    <path class="cls-10" d="M826.76,216.58c-2.54,1.54-11.51,8.49-12.08,8.93s-2.3,1.81-4.07,3.3a3.74,3.74,0,0,0-1,1.19,2,2,0,0,0-.21,1.51,2.07,2.07,0,0,0,2,1,5.46,5.46,0,0,0,3.31-1.78c2.29-2.18,7.25-6.6,13.92-12.59a1.63,1.63,0,0,0,.67-1.58.87.87,0,0,0-.44-.58C828.68,215.87,828.14,215.75,826.76,216.58Z"/>
    <path class="cls-10" d="M814,237.54a1.72,1.72,0,0,1-.24-2.06,3.34,3.34,0,0,1,2.14-1.15c3.73-.83,15.06-1.24,16.48-1.29a2.54,2.54,0,0,1,1.09.17c.26.1.65.26.66.52s-.47.69-1.21.91c-3,.8-9.15,2.42-14.53,3.35C817.08,238.21,814.92,238.55,814,237.54Z"/>
    <path class="cls-10" d="M763.68,190.77c1.57-.83.75-3.12,2-6.12a13.14,13.14,0,0,1,4.15-5.09c1.6-1.2,2.92-1.56,2.81-2s-1.5-.63-2.6-.51c-2.37.25-4,1.9-5,3s-4.13,4.6-3.64,8.8c.07.58.14,1.75.87,2.11A1.71,1.71,0,0,0,763.68,190.77Z"/>
    <path class="cls-10" d="M762.86,176.65c.31.44-1.09,1.25-1.81,3.13s-.08,3.12-1.1,4c-.38.34-1.08.68-1.52.44-.89-.48-.56-3.11.36-4.95a4.87,4.87,0,0,1,2.6-2.57C761.56,176.64,762.62,176.29,762.86,176.65Z"/>
    <path class="cls-4" d="M846.43,89.45c-.6.86,3.24,3,5.12,8.08a18.49,18.49,0,0,1,.66,9.49,23.24,23.24,0,0,1-5.35,11.56,22.17,22.17,0,0,0,8.19-7.64c1.49-2.39,4.28-6.85,2.94-12.11a12.9,12.9,0,0,0-4.36-6.65C850.84,89.88,847,88.64,846.43,89.45Z"/>
    <path class="cls-4" d="M874.9,119.13a24,24,0,0,0,3.6-6.11c1-2.55,1.9-4.71,1.53-7.42-.26-1.93-1-3.26-.66-3.49s1.81,1.08,2.73,2.4c.64.92,2.92,4.19,1.75,8.07a9.15,9.15,0,0,1-4.15,5A10.55,10.55,0,0,1,874.9,119.13Z"/>
    <path class="cls-4" d="M874.35,142a14.57,14.57,0,0,1-.54-11c.11-.3,2.52-6.46,8.62-8.29,3.73-1.13,8.1-.4,8.29.65.08.48-.71.92-2.29,2-2.22,1.46-4.24,3.21-6.44,4.69S877,134.63,874.35,142Z"/>
    <path class="cls-4" d="M885.15,140.18a13.56,13.56,0,0,0,4-4.91c1.14-2.4.87-3.82,2.07-5.24.94-1.1,2.79-2.21,6.77-2.07a15.79,15.79,0,0,0-2.29,3.38,29.31,29.31,0,0,0-1.53,4.37C893.51,137.38,891.42,139.3,885.15,140.18Z"/>
    <path class="cls-4" d="M1057.19,96.22c-1.6.64-1,5.35-.87,6a14.75,14.75,0,0,0,3.2,7.27,15.33,15.33,0,0,0,3.34,3.06,16,16,0,0,1-1.45-7.57c.14-2.15.72-3.23.14-4.94C1060.78,97.7,1058.42,95.72,1057.19,96.22Z"/>
    <path class="cls-4" d="M1064.32,95.49c-.38,1.08,3,2.23,4.94,5.53.63,1,1.14,2.36,1.46,6.69a73.33,73.33,0,0,1-.15,12.36,18.29,18.29,0,0,0,6.11-10.62c.32-1.9,1.12-6.7-1.89-10.62-.18-.24-3-3.84-7.42-4.07C1067,94.74,1064.62,94.62,1064.32,95.49Z"/>
    <path class="cls-4" d="M1080.9,99c-.55-.32-5.06-3-5.53-8.15-.27-3,.83-6.69,3.49-8.29,1.22-.73,3-1.12,3.35-.58s-.81,1.52-1.75,3.49a15.1,15.1,0,0,0-.87,8.58A19.33,19.33,0,0,0,1080.9,99Z"/>
    <path class="cls-4" d="M1106.06,107.42a19.48,19.48,0,0,1-3.78-12.08c.07-1.65.31-7.9,5.09-11.92,4.51-3.79,11.12-4,11.64-2.77.33.77-1.87,1.77-5.67,5.68-2.7,2.76-5.38,5.5-6.84,9.16C1105.76,97.33,1104.53,101.41,1106.06,107.42Z"/>
    <path class="cls-7" d="M1516.46,93.82l28.26,41.67,4.91-1.42-31-43Z"/>
    <path class="cls-7" d="M1499.55,135.27l40-6.23,4.77,6.53-41.08,6.36Q1501.42,138.6,1499.55,135.27Z"/>
    <path class="cls-8" d="M1511.88,131.89l16.8-17.46-4.36-7-24.77,27.82Z"/>
    <path class="cls-7" d="M1518.65,91.09l37.89-43.89q15,21.75,30.11,43.49-18.3,21.56-36.59,43.13Z"/>
    <path class="cls-6" d="M1550.06,133.82l40.22-43.57-30.69-43.16-2.91-.33,30.62,44.29Z"/>
    <path class="cls-9" d="M1510.19,133.62l19.73-20,9.65,15.37Z"/>
    <path class="cls-10" d="M1491.83,48.43c-.53,1.55,1.36,3.18,2.44,5.46,1.36,2.87,1,5.88.82,7.85-.56,5.1-3.25,8.31-2.4,9.17.36.37,1.1,0,1.44-.11,2.92-1.3,3.73-6.18,4-8s1.08-6.54-1.24-10.9c-1.12-2.1-3.34-4.81-4.51-4.26A1.32,1.32,0,0,0,1491.83,48.43Z"/>
    <path class="cls-10" d="M1503.32,56.23c-.5.34.26,1.69.43,3.88a11.84,11.84,0,0,1-.6,4.69c-.79,2.26-2.1,3.43-1.8,3.76s1.28-.21,2-.76c3.29-2.43,2.73-7.6,2.68-8-.26-2-1-2.79-1.42-3.11C1504.53,56.59,1503.71,56,1503.32,56.23Z"/>
    <path class="cls-7" d="M1620.43,120.22q8-15.82,15.92-31.64l-4.58-.11-14.4,29.13Z"/>
    <path class="cls-7" d="M1604.1,91.27l15.39,20.39-2.12,5.94-16.09-21.33Z"/>
    <path class="cls-7" d="M1620.43,120.22l35.34,7.74L1671.7,97l-35.35-8.45Q1628.4,104.41,1620.43,120.22Z"/>
    <path class="cls-8" d="M1609.26,97.2l14.62,4.54,2.22-4.14-21.27-6.73Z"/>
    <path class="cls-9" d="M1609.11,97.91l14.81,5q-2.36,4.38-4.69,8.77Z"/>
    <path class="cls-10" d="M1491.93,119.19l16-5.59a1.36,1.36,0,0,0,.67-1.51,2,2,0,0,0-1-1.22,3.7,3.7,0,0,0-3-.11c-2.3,1.12-12.91,6.34-13.83,7.29-.14.15-.54.56-.27.86a1.42,1.42,0,0,0,.67.3A1.68,1.68,0,0,0,1491.93,119.19Z"/>
    <path class="cls-10" d="M1489.77,104.56c2.31.75,11.41,2.6,12,2.72s2.35.46,4.22.75a3,3,0,0,0,1.26,0,1.6,1.6,0,0,0,1-.67,1.74,1.74,0,0,0-.47-1.78,4.55,4.55,0,0,0-2.87-1.1c-2.58-.26-8-1-15.24-1.9a1.38,1.38,0,0,0-1.35.43.73.73,0,0,0-.12.58C1488.3,103.75,1488.52,104.15,1489.77,104.56Z"/>
    <path class="cls-10" d="M1510.91,101.3a1.73,1.73,0,0,1-1.05,1.66,2.79,2.79,0,0,1-2.12-.42c-3-1.59-10.94-8-11.94-8.77a2.3,2.3,0,0,1-.63-.77c-.12-.23-.29-.58-.15-.78s.73-.23,1.36,0c2.48,1.16,7.62,3.61,11.81,6.11C1509.2,99,1510.86,100,1510.91,101.3Z"/>
    <path class="cls-10" d="M1619.6,77.33l4.3,9.81a.89.89,0,0,1-.42,1,1.25,1.25,0,0,1-1,0,2.31,2.31,0,0,1-1.37-1.35c-.47-1.56-2.62-8.72-2.58-9.56,0-.13,0-.49.28-.5a1,1,0,0,1,.43.18A1.14,1.14,0,0,1,1619.6,77.33Z"/>
    <path class="cls-10" d="M1626.12,76.51c-.3,1.35-.86,6.61-.89,6.94s-.14,1.36-.2,2.43a1.69,1.69,0,0,0,.08.72,1,1,0,0,0,.45.56,1,1,0,0,0,1-.36,2.59,2.59,0,0,0,.47-1.69c0-1.47.11-4.57.24-8.74a.76.76,0,0,0-.32-.74.41.41,0,0,0-.34,0C1626.5,75.63,1626.28,75.78,1626.12,76.51Z"/>
    <path class="cls-10" d="M1620.79,88.21a.79.79,0,0,1-.62.82,2.16,2.16,0,0,1-1.33-.34c-1.89-1-6.92-4.8-7.55-5.28a1.71,1.71,0,0,1-.41-.43c-.07-.13-.18-.32-.1-.42s.45-.08.85.1c1.55.75,4.78,2.32,7.42,3.87C1619.69,86.9,1620.74,87.53,1620.79,88.21Z"/>
    <path class="cls-4" d="M911.12,197.45c5.63-.18,14.77-.45,26.07-.65,21.29-.39,30.24-.18,48.44-.55,7.64-.15,19.16-.45,33.38-1.09a32.25,32.25,0,0,1,9.27,6.66q-31.23.35-62.94.43-30.5.08-60.55-.11Z"/>
    <path class="cls-4" d="M896.37,211.94c8.84-.51,20.86-1.15,35.15-1.72,11-.45,20.74-.75,34.25-1.09,16.54-.43,39.71-.93,68.62-1.31l5,7.41c-7.83,0-45.09,0-52.69,0-25.24,0-37.65,0-54.66.11-16.43.12-29.8.31-38.4.44Z"/>
    <path class="cls-4" d="M888.32,225.27c8.18-.74,16.85-1.28,26-1.53,11.18-.3,21.74-.13,31.59.35,0-.42.07-.84.1-1.26l47.91-.47.69.95q12.54-.51,25.53-.77,11.3-.21,22.25-.21l3.39,6.54L996,228.76c.37,1.08.81,2.21,1.31,3.38.67,1.56,1.37,3,2.07,4.26q18.27.4,37.31.22,6.71-.08,13.31-.22l-2.29,5.34a257,257,0,0,1-27.49,1.53c-6.12,0-11.94-.19-17.46-.54a13.63,13.63,0,0,0,.88,2.29,12.84,12.84,0,0,0,1.63,2.51q5.72.28,11.68.43c8.53.19,16.72.1,24.54-.22a48,48,0,0,1-3.6,4.26c-.66.7-1.32,1.35-2,2-4.12.2-8.42.32-12.87.33-5,0-9.74-.11-14.3-.33a23,23,0,0,0,1.53,3.6,23.92,23.92,0,0,0,7.2,8.18c1.37,9.72,2.5,20,3.27,30.77q.6,8.25.88,16.11H916.79a82.28,82.28,0,0,1,13.09-59.31q-12.66-.47-25.85-.55-5.12,0-10.15,0c-1.85-2.07-3.71-4.14-5.56-6.22q5.71-.3,11.67-.43c11.35-.24,22.14.07,32.29.76l5.13-4.47-22-.33-31.52-.44c-.44-1.41-.88-2.83-1.31-4.25,6.22-.91,12.81-1.66,19.74-2.18a279.62,279.62,0,0,1,38.51-.22l2.51-5.24q-11.38.13-22.8.22-16.46.14-32.84.22Z"/>
    <path class="cls-10" d="M939.15,191.67c-1.88.25-4.69.64-8.1,1.16-5.63.86-8.44,1.29-10,1.68-6.37,1.56-10.57,5.13-14.95,8.83a48.87,48.87,0,0,0-12,14.4,47.78,47.78,0,0,0-4.91,13.75,16.79,16.79,0,0,1,1.64,2.51,17.45,17.45,0,0,1,2,6.87,2.81,2.81,0,0,1-1.64-.33c-1.55-.89-1.2-3-2.61-5.56a9.67,9.67,0,0,0-2.19-2.62,4.15,4.15,0,0,0-3.6,4.26c-.65-1.46-1.3-2.91-2-4.37a3.79,3.79,0,0,1,1.64-1.85,3.91,3.91,0,0,1,3.16-.22,66.11,66.11,0,0,1,2.4-7.75c2.23-5.83,6.54-17.17,17.46-24.76a39.92,39.92,0,0,1,16.69-7c3.73-.58,8.22-.65,16.14-2.33a21,21,0,0,0,7.42-2.69,19.38,19.38,0,0,0,6.55-7.09,32.35,32.35,0,0,0,.29-15.53,28.9,28.9,0,0,1-6.72-8.13c-3-5.33-3.43-10.32-4.05-16.59a77.9,77.9,0,0,1-.26-11.58l13.14,13.83a120.73,120.73,0,0,1,1.58,21.64,119.3,119.3,0,0,1-1.48,16.8,15.42,15.42,0,0,1-1,2.18c-3,5.66-8.58,8.26-11.67,9.38.77,6.45,1.58,11.59,2.18,15.16s1.36,7.65,2,13.64c.21,2.16.35,3.94.43,5.13a3,3,0,0,1-1.42,2,2.81,2.81,0,0,1-1.63.33q-.25-4.19-.66-8.51A266.11,266.11,0,0,0,939.15,191.67Z"/>
    <path class="cls-10" d="M948.14,228.33a1.91,1.91,0,0,0-.33,1.41,1.74,1.74,0,0,0,.65,1.24,1.65,1.65,0,0,0,1.6.15,2.11,2.11,0,0,0,.88-2.4,1.56,1.56,0,0,0-.59-.95A1.77,1.77,0,0,0,948.14,228.33Z"/>
    <path class="cls-10" d="M991.63,228.4a2.25,2.25,0,0,0-.73,2c.13.88.82,1.91,1.78,1.93,1.26,0,1.83-1.73,1.86-1.82a2.1,2.1,0,0,0-.11-1.78A2.07,2.07,0,0,0,991.63,228.4Z"/>
    <path class="cls-10" d="M944.83,188.4a30.82,30.82,0,0,0,2.45,2.94,31.9,31.9,0,0,0,9.87,7,33.69,33.69,0,0,0,8.62,2.56,34.86,34.86,0,0,0,13-.55,36.1,36.1,0,0,0,18-10.69l-2.73-1.42a51.23,51.23,0,0,1-4.69,3.5c-3.52,2.32-8,5.26-13.53,6.32-7.5,1.44-13.73-1.18-17.67-2.83a39.78,39.78,0,0,1-11.78-7.64Z"/>
    <path class="cls-10" d="M972.81,150.16c.29-.38,1.55.77,3.38.49,1.29-.19,2.32-1,3.76-2.78,2.29-2.77,2.57-4.13,4.42-7s3.83-5.87,5.84-5.67c1.5.14,1.43,2.46,3.76,3.27,1.3.45,1.62-.12,3.37.42s2,1.3,3.23,1.38a3.89,3.89,0,0,0,3.22-1.42c1.35-1.83-.21-4.66.44-5,.32-.15,1,.41,3.22,3.27,1.9,2.41,1.94,2.64,3,3.93a36.72,36.72,0,0,0,4.9,4.91c2.58,2.2,3.49,2.46,4,2.56,2,.42,3.38-.46,3.65,0,.38.64-1.79,3.38-4.25,4.2-5.85,2-13.16-6.9-13.8-7.69a5.52,5.52,0,0,0-2.84-.87c-1.7,0-3,.83-4.91,2.4-3.89,3.23-3.93,4.27-6.76,6.43a13.41,13.41,0,0,1-6,3.11,11.31,11.31,0,0,1-7-1C974.37,153.56,972.41,150.69,972.81,150.16Z"/>
    <path class="cls-10" d="M989.19,175.85a6.1,6.1,0,0,0-.29,3.93,6.36,6.36,0,0,0,2.18,3.05,25.53,25.53,0,0,0,7.35,4.66c3.05,1.13,4.2.89,8.87,1.74,0,0,4,.73,9.16,2.26,10.78,3.18,20.21,13.2,24.73,21a37.51,37.51,0,0,1,4.58,11.71,34.41,34.41,0,0,1,.58,4l-2.47,2.25A44.08,44.08,0,0,0,1040,218a47.09,47.09,0,0,0-11-14.33c-3.24-2.88-9.72-8.67-19.06-10.47-2.87-.55-5.11-.55-9.38-1.89a28.13,28.13,0,0,1-9.89-5.16c-3-2.51-3.66-4.24-3.86-4.88a9.09,9.09,0,0,1,.15-5.6Z"/>
    <path class="cls-10" d="M1000.45,189.89q-1,5.12-2,10.34-2.25,10.92-4.78,21.27a4.45,4.45,0,0,0-.17,2c.09.58.16,1.06.57,1.34a2.11,2.11,0,0,0,2-.15c1.24-.73,1.34-2.49,1.38-3,.2-2.78,2.15-14.79,4.94-31.53Z"/>
    <path class="cls-10" d="M1014.54,245.09c-.76.17.28,7.17,1.09,13.89.68,5.73,1.21,11.48,1.63,17.24.49,6.66,1.27,16.39,2.51,29a1.91,1.91,0,0,0,.88,1.1,2.28,2.28,0,0,0,2.18-.44,3.7,3.7,0,0,0,1.09-2.73c.29-4.65.43-7,.11-8.51-1-4.57-3.55-21.32-7.2-44.51a10.12,10.12,0,0,0-1.57-4.21C1014.88,245.34,1014.69,245.05,1014.54,245.09Z"/>
    <path class="cls-10" d="M1040.9,239.16a35.57,35.57,0,0,0,2.25-4.54c1.33-2.69,2-3.26,2.7-3.57a2.47,2.47,0,0,1,1.81-.22c1.16.42,1.49,2,1.6,2.55.2.93.44,3.18-2.32,7.56a28.42,28.42,0,0,1-4,5c-6.78,6.4-12.56,11.68-16.22,15l2.25,1.6c1-.77,1.89-1.57,2.84-2.4,3.93-3.41,7.5-6.86,10.74-10.27a12.17,12.17,0,0,1-.82,2.4c-.65,1.4-1.4,2.28-1.12,2.64s.65.1.8.07c1.94-.46,3.86-4.33,5.53-7.49,2.35-4.44,3-5.08,4-7.86,1.31-3.48,1.26-4.85,1.23-5.3s-.39-5.12-3.63-6.33a5.38,5.38,0,0,0-3.86.22c-3.15,1.29-4.2,4.86-4.87,7.12-.71,2.41-1,5.34-.44,5.53C1039.71,241,1040.28,240.11,1040.9,239.16Z"/>
    <path class="cls-10" d="M1016.46,255c1.87.94,4.19,2.12,6.84,3.49,2.11,1.09,5.39,2.78,9.31,4.87,6.32,3.37,9.49,5.05,11.27,6.11,3.38,2,8.29,5.15,13.31,6.69a9.79,9.79,0,0,0,9-1.38,31.49,31.49,0,0,0,8.29-7.05c4.48-5.6,6.91-13,9.45-22.11,2.87-10.26,4.3-15.39,5.53-22.4a174.83,174.83,0,0,0,2.62-30.11l2.91-.44c0,2.69,0,6.21-.15,10.33a189.86,189.86,0,0,1-6.54,41.75c-.64,2.28-2,7.16-4.37,13.23-1.93,5.05-2.93,7.64-4.8,10.33a29.62,29.62,0,0,1-9.45,8.87,19.66,19.66,0,0,1-6.69,2.62,18.7,18.7,0,0,1-8.87-.58,19.36,19.36,0,0,1-5.68-2.91c-4.13-3-14.23-8.89-31.56-18.26C1016.75,257,1016.61,256,1016.46,255Z"/>
    <path class="cls-10" d="M941.88,130.69a17.81,17.81,0,0,1-.11-6.87,40.14,40.14,0,0,1,4.48-14.19,7.07,7.07,0,0,0-3.71,2.51c-1.29,1.82-1.19,4-1.86,4s-1.14-1.58-1.2-1.75c-1.39-4.1,3.25-10.54,5.24-13.09a13.41,13.41,0,0,0-6.11,4.48c-2.28,3.12-2.47,6.71-3.06,6.65s-.73-2.28-.65-4.47c.25-6.7,3.83-11.88,5.56-14.07,5.91-7.47,13.88-9.88,17.68-11a36.56,36.56,0,0,1,16.69-1.42,30.86,30.86,0,0,1,14.94,6.11,27.43,27.43,0,0,1,7.2,8.62,14.37,14.37,0,0,1,2.08,7.41c0,1.08-.07,2.2-.77,2.62-1.31.8-3.54-1.7-6.43-3.16-5-2.54-10.49-1.17-12.11-.76-5.55,1.39-12.08,5.83-13.53,12.1a23.25,23.25,0,0,0,1.45,13.75c.34.73,1.11,2.23.69,2.58-.76.65-5-3-5.41-3.45-3.86-3.39-4.33-5.17-6.66-5.57a6.1,6.1,0,0,0-4.36,1.09c-3.23,2.26-2.76,6.66-2.73,6.88a8.59,8.59,0,0,0,3.71,5.78,13.18,13.18,0,0,0,7.31,2.07c.72,0,1.15-.1,1.2,0,.17.51-4.63,4.31-9.82,3.56C944.4,140.13,942,131.16,941.88,130.69Z"/>
    <path class="cls-10" d="M997.6,104.37c.45.45,1.06,1.07,1.72,1.86a28.71,28.71,0,0,1,3.13,4.55c.41.73,1.19,2.18,3.41,8.24.82,2.21,1.56,4.24,2.46,7.06a44.83,44.83,0,0,1,1.91,7.23c.11.83.1,1,.41,4.58.18,2.18.34,4,.45,5.15l3.19,3.5c-.15-1.72-.41-4.21-.87-7.2a84.59,84.59,0,0,0-6.33-23.12,69.62,69.62,0,0,0-9.16-14.91Z"/>
    <path class="cls-10" d="M1012.19,149.48a19.27,19.27,0,0,0-4.66-.9,16.25,16.25,0,0,0-5.62.46,15.64,15.64,0,0,0-5.16,2.52,18.21,18.21,0,0,0-3.85,4.66,1.45,1.45,0,0,0-.29,1.23c.18.45.77.6,1,.66,1.77.42,4.34-.64,5.45-1.09a34.83,34.83,0,0,1,5.82-2.11,9.56,9.56,0,0,1,4.07-.15,8.74,8.74,0,0,1,2.4.87,23.64,23.64,0,0,1,.88,3.6,27.21,27.21,0,0,1,0,7.9,17.06,17.06,0,0,1-.85,4.22,14.58,14.58,0,0,1-1.85,3.56l-1.23-2.33a18,18,0,0,0,1.31-2.62,18.45,18.45,0,0,0,1.09-8.58c-.16-2.49-.26-3.75-1.24-4.47s-2.18-.52-3.71-.26c-2.22.38-3,1-6.47,2.4s-4.71,1.58-5.89,1.17a3.32,3.32,0,0,1-1.82-1.39c-.14-.25-.68-1.32.26-3.6,1.66-4,5.71-6.37,6.21-6.65a18.93,18.93,0,0,1,12.51-1.82Z"/>
    <path class="cls-10" d="M977.15,166.83c.28.46.72,1.15,1.31,2a35.3,35.3,0,0,0,4.88,5.34,30.8,30.8,0,0,0,2.4,2.11,17.9,17.9,0,0,0,4,2.66c1.56.69,3.05,1.34,4.8,1a8.25,8.25,0,0,0,3.93-2.44c1.35-1.33,1.47-2.16,2.44-2.32.61-.11.82.18,3,1a7.88,7.88,0,0,0,2.51.73c.6,0,1.75-.26,3.09-2l-1.23-2.33c0,1.31-.5,1.71-.71,1.84s-.7.29-3.27-.65c-1.79-.66-1.83-.82-2.43-.86a5.31,5.31,0,0,0-3.29,1.22c-2.26,1.51-2,2.54-3.47,3a6.2,6.2,0,0,1-3.81-.5,9.06,9.06,0,0,1-1.65-.87,77.76,77.76,0,0,1-6.79-5.09,44.71,44.71,0,0,1-4.55-3.78c-.18-.2-.82-.93-1.1-.79S977.11,166.52,977.15,166.83Z"/>
    <path class="cls-10" d="M999.08,163.78c-.23.58.06,1.56.66,3.49.79,2.58,1.33,3.38,2,4,.4.36.94.84,1.52.73.31-.06.78-.3,1.57-2.58A18.77,18.77,0,0,0,1006,163c0-.4,0-.72,0-1a6.55,6.55,0,0,0-3.42-.33C1001.86,161.86,999.7,162.25,999.08,163.78Z"/>
    <path class="cls-10" d="M980.54,122.54c-1.07.3-1.41,2.48-1.09,4,.11.58.38,1.9,1.45,2.33a2,2,0,0,0,1.75-.14c1.26-.87,1.16-3.73-.22-5.24C982.27,123.31,981.36,122.32,980.54,122.54Z"/>
    <path class="cls-10" d="M999.45,122.51c.4-.11.93,1.19,2.8,4.72s2,3.53,2.47,4.7a18.49,18.49,0,0,1,1.2,6.25l-1.09,1a36.26,36.26,0,0,0-1.71-6.87c-.18-.49-2-5.52-3.38-7a2.17,2.17,0,0,1-.51-.8C998.92,123.68,999.1,122.6,999.45,122.51Z"/>
    <path class="cls-10" d="M1004.66,123.11c-.92.09-1.56,1.68-1.38,2.92,0,.23.19,1.34,1,1.67a1.54,1.54,0,0,0,1.19-.08c1-.53,1.29-2.3.61-3.47C1006,124.06,1005.42,123,1004.66,123.11Z"/>
    <path class="cls-10" d="M974.46,124.8c.38,0,.26-2.11,1.46-4.37a5.23,5.23,0,0,1,2.47-2.76,7.22,7.22,0,0,1,3.38-.36,3.18,3.18,0,0,0,1.82-.18c.22-.11.55-.27.58-.51.07-.53-1.25-1.26-2.36-1.53a6.71,6.71,0,0,0-5.16,1.16,7,7,0,0,0-2.44,3.38,7.34,7.34,0,0,0-.22,4C974.07,124,974.23,124.8,974.46,124.8Z"/>
    <path class="cls-10" d="M1000.86,116c.94-.15,1.3-.68,1.95-1.08,1.77-1.07,4.35-.29,4.66-.19.77.24,1.33.59,1.54.37s-.07-.94-.36-1.35c-1.21-1.67-4.94-1.89-7.13-.25-1,.73-1.87,2-1.6,2.4C1000.08,116.17,1000.62,116.07,1000.86,116Z"/>
    <path class="cls-10" d="M955.14,125.4a11,11,0,0,0,3.21,3.22c-.39-.05-1-.11-1.69-.17-1.35-.1-1.45,0-1.47,0-.06.21,1.22.77,1.86,1,1.06.46,1.15.4,1.69.65a7.51,7.51,0,0,1,2.83,2.51c.87,1.19,1.15,2.18,1.31,2.13s0-1.24-.16-1.76c-1.15-4.87-7.65-8.87-8-8.46C954.64,124.63,954.8,124.89,955.14,125.4Z"/>
    <path class="cls-10" d="M1050.57,231.31l22.88-41.93,1.3,2.62q-11.71,22.78-23.45,45.56C1051.06,235.48,1050.82,233.39,1050.57,231.31Z"/>
    <path class="cls-10" d="M1079,192.05a8.86,8.86,0,0,1-3.82-3c-1.28-1.82-1.34-3.54-1.64-6.54-.22-2.3-.65-4.66-1.52-9.38a66.86,66.86,0,0,0-2.13-9.44c-.84-2.51-1.92-5-1.8-8.56,0-.94.1-2.8.82-3,1-.28,2.52,2.58,2.85,3.19l1.08-1.61a3.83,3.83,0,0,0-3.17-3.33,3.66,3.66,0,0,0-2.94,1.25,4.69,4.69,0,0,0-.93,3.28c.17,5.22,2.27,13.08,3.22,17.18.68,2.93,1.13,5.53,1.74,9,.49,2.79.24,4.45,1.15,7.09,1.55,4.51,3.67,5.34,4.14,5.51a2.5,2.5,0,0,0,2.29-.06A2.05,2.05,0,0,0,1079,192.05Z"/>
    <path class="cls-10" d="M1072.85,153.71c.18.51.47,1.34.81,2.36.58,1.72.94,2.91,1.09,3.38,1.5,4.74,2.24,7.1,4.31,8.38a10,10,0,0,0,3.39,1.15c1.78.33,2.14,0,3.38.22,1.7.33,2.77,1.39,4.91,3.49a12.68,12.68,0,0,1,3.27,4.42c.35.92.84,2.26.16,3.32-.24.39-.82,1-1.42.93-.93-.12-1-1.84-2.12-4.14-.58-1.17-1.77-3.58-4-4.75-1.67-.86-2.09-.1-4.53-.87a11.87,11.87,0,0,1-5.34-3.44c-.92-1.08-1.48-2.67-2.55-5.8-1.18-3.47-2.05-6-2.4-7Z"/>
    <path class="cls-10" d="M1083.1,170.23q.68-10.17,1.36-20.34a36.15,36.15,0,0,1,1.64-10c.29-.88,1.08-3.24,1.69-3.16.11,0,.24.11.38.47.7,1.83.82,8.72.84,9.89l-.26,14.08a1.18,1.18,0,0,0,1.42.58,1.2,1.2,0,0,0,.62-.86c0-5.14.21-9.21.44-12,.07-.86-.08-4.44-.38-11.62,0-1.09-.15-2.93-1.26-3.49-.94-.47-2.37.11-3.22.82a3.84,3.84,0,0,0-1,1.37c-1.83,3.89-3.29,16.4-3.33,16.74-.42,3.55-.52,3.22-.93,6.93-.43,3.91-.65,7.27-.76,9.87Z"/>
    <path class="cls-10" d="M1091.4,159.6c.36-1.07.86-2.67,1.35-4.66.63-2.49,1-4.46,2.08-9.49a20.73,20.73,0,0,1,1.6-4.76c.31-.65,1.47-3.05,2.18-2.87.3.07.44.59.51,1a80.62,80.62,0,0,1-.5,8.31c-1,9-3.34,15.8-2.37,16.17.16.06.48-.05,1.12-.88,1-3.54,1.81-7.42,2.51-11.63.51-3,.87-6,1.13-8.69.18-3.74-.66-6.48-2-6.77s-3.13,2.12-3.53,2.66a12.32,12.32,0,0,0-1.75,3.85,53.65,53.65,0,0,0-1.56,6q-1.15,6.92-2.32,13.84l.66-.25Z"/>
    <path class="cls-10" d="M1098.21,161.62c1-3,2-5.43,2.84-7.31a74.17,74.17,0,0,1,4-7.91c1.08-2,1.85-3.24,2.23-3.11s.22,1.38.17,1.85c-.43,4-4.39,14.26-6.6,19.8-.09.86.18,1.45.49,1.5s.59-.36.65-.46c2.22-5.63,4-9.71,5.35-12.87a34.27,34.27,0,0,0,2.18-8.18c.48-3.39.07-4.17-.38-4.42-.91-.51-2.57.85-3.19,1.36-4.63,3.8-7.82,15.56-9.17,21.24Z"/>
    <path class="cls-10" d="M1102.57,165.65c.3-.4.73-1,1.23-1.69,1.81-2.56,3.17-4.73,3.65-5.51.77-1.24,1.57-2.46,2.32-3.71,1-1.64,1.7-2.92,2.4-2.81.36.06.62.46.8.72a3.25,3.25,0,0,1,.46,1.41,28.79,28.79,0,0,1-1.42,7.34,72.73,72.73,0,0,1-2.18,7.25,52.08,52.08,0,0,1-4.78,10.51,43.84,43.84,0,0,1-5.7,7.33,26.94,26.94,0,0,1-5,4.09c-2.43,1.5-3.47,1.45-4.09,1.25-.29-.08-.66-.26-.82-.1s.25,1.63,1,2.18c.37.25,1.68,1,5.57-1.26a28,28,0,0,0,9-8.65c3.17-4.65,4.63-8.55,6.58-13.75.37-1,1.27-4.53,3-11.6a15.53,15.53,0,0,0-.11-7.31c-.26-1-.53-1.51-1-1.74-1.64-.74-4.44,2.39-5,3a21.11,21.11,0,0,0-3.46,5.79c-1,2.12-2.18,4.81-3.5,8a3.84,3.84,0,0,0,.63-.4A5.26,5.26,0,0,0,1102.57,165.65Z"/>
    <path class="cls-10" d="M921.37,251.67a94.5,94.5,0,0,1-14.27,10.07c-2.4,1.38-3,1.58-9.08,4.92-5.64,3.11-7.7,4.39-11,6.17-7.14,3.85-10.72,5.78-13.1,5.79-6.4,0-11.89-4.54-13.09-5.53a25.71,25.71,0,0,1-2.84-2.76c-5.74-6.53-8.39-15.47-10.07-21.58-2.92-10.64-4.38-15.95-5.39-22.61a144,144,0,0,1-1.34-30.32L839,195.6c-.15,2.37-.32,5.69-.38,9.65a148.32,148.32,0,0,0,.92,23.09c.81,6.25,1.91,10.67,4.12,19.53,1.76,7.06,2.84,10.21,4.25,13.36a44.49,44.49,0,0,0,6.14,10.4c2.24,2.78,4.9,6,9.53,8.22a19.91,19.91,0,0,0,6.91,2,21.67,21.67,0,0,0,11.42-2.33c6.85-3.14,20.28-10.93,37.05-22.33q-.37,8-.76,15.93c0,.37.51,3.94,1.64,4,.2,0,.66-.06,1.3-1.2q1-11.73,2-23.46Z"/>
    <path class="cls-10" d="M882.54,234.54q-11.52-21.64-23-43.29l-1.37,1.51c7.08,14.33,12.19,25,15.71,32.4,2.74,5.8,6.34,13.49,12.12,23.57,2.1,3.65,3.92,6.64,5.18,8.67a3.42,3.42,0,0,0,.37-.6,3.7,3.7,0,0,0,.14-2.55,60.62,60.62,0,0,0,10.91,8.66c.79.49,1.58.95,2.36,1.38l3.1-1.38a51.37,51.37,0,0,1-25.49-28.37Z"/>
    <path class="cls-10" d="M852.75,194.7a8.76,8.76,0,0,0,3.72-3c1.25-1.84,1.32-3.57,1.6-6.61.22-2.31.64-4.7,1.49-9.47a68,68,0,0,1,2.08-9.52c.82-2.54,1.87-5,1.75-8.65,0-.94-.09-2.82-.8-3-.94-.28-2.46,2.61-2.78,3.22l-1-1.63a3.82,3.82,0,0,1,3.09-3.36,3.57,3.57,0,0,1,2.87,1.27,4.87,4.87,0,0,1,.91,3.3c-.16,5.27-2.22,13.21-3.14,17.35-.66,3-1.11,5.58-1.7,9.08-.57,3.33-.12,4.76-1.12,7.16a11.83,11.83,0,0,1-4.84,5.35,2.57,2.57,0,0,1-2,.33,1,1,0,0,1-.66-.49A1.23,1.23,0,0,1,852.75,194.7Z"/>
    <path class="cls-10" d="M858.76,156c-.19.63-.46,1.44-.8,2.39-.56,1.6-1,2.79-1.3,3.44-2.86,7.09-3.61,7.8-4.16,8.2a8.26,8.26,0,0,1-3.1,1.39l-.71.1-.47,0c-.63,0-1.84.23-2.05.27a9.9,9.9,0,0,0-4.86,3.33,15,15,0,0,0-1.83,3c-1.55,2.94-1.35,4-1.23,4.36.15.56.58,1.44,1.09,1.44s.81-1.54,2.07-4.19c.57-1.18,1.73-3.61,3.94-4.79,1.63-.86,2-.1,4.42-.88a11.49,11.49,0,0,0,5.21-3.47c.9-1.09,1.44-2.69,2.49-5.85,1.16-3.5,2-6.06,2.34-7.11Z"/>
    <path class="cls-10" d="M848.76,172.68q-.68-10.27-1.33-20.54a38.05,38.05,0,0,0-1.6-10.13c-.29-.9-1.05-3.28-1.65-3.2-.1,0-.24.12-.37.48-.68,1.85-.8,8.8-.82,10l.25,14.2a1.12,1.12,0,0,1-1.38.59,1.2,1.2,0,0,1-.61-.86c0-5.19-.2-9.3-.42-12.12-.07-.87.08-4.49.37-11.72,0-1.11.14-3,1.23-3.53.91-.47,2.31.11,3.14.83a4.21,4.21,0,0,1,1,1.37c1.78,3.94,3.2,16.56,3.24,16.91.41,3.58.51,3.24.91,7,.42,3.95.63,7.34.74,10Z"/>
    <path class="cls-10" d="M840.66,161.94c-.35-1.08-.84-2.7-1.32-4.7-.61-2.52-.94-4.5-2-9.58a22,22,0,0,0-1.56-4.81c-.31-.65-1.44-3.07-2.13-2.9-.3.08-.43.6-.5,1a81,81,0,0,0,.48,8.38c1,9.13,3.27,15.95,2.32,16.32-.16.07-.47,0-1.1-.88-.92-3.57-1.76-7.5-2.45-11.74-.49-3.07-.84-6-1.1-8.78-.17-3.77.65-6.54,1.92-6.82s3,2.13,3.44,2.68a12.59,12.59,0,0,1,1.71,3.89,57.45,57.45,0,0,1,1.52,6q1.13,7,2.26,14l-.64-.25Z"/>
    <path class="cls-10" d="M834,164c-1-3-2-5.48-2.77-7.38-.43-1-.82-1.93-1.21-2.76a51.88,51.88,0,0,0-2.68-5.22c-.8-1.32-1.67-2.74-2.1-2.59s-.26,1-.24,1.32c.19,3.12,4.68,15.28,6.44,20,.09.87-.17,1.47-.48,1.52s-.57-.37-.64-.47c-2.16-5.68-3.84-9.8-5.21-13a24.39,24.39,0,0,1-2.13-8.26c-.24-3.33.47-3.86.74-4,.87-.46,2.22.53,2.75.92,4.17,3.06,7.77,16.7,8.94,21.43Z"/>
    <path class="cls-10" d="M829.76,168.05c-.29-.4-.71-1-1.2-1.71-1.77-2.58-3.09-4.77-3.56-5.56-.3-.5-.61-1-.92-1.5-1-1.62-1-1.71-1.35-2.24-1-1.45-1.69-2.55-2.48-2.46a1.08,1.08,0,0,0-.64.35,3.24,3.24,0,0,0-.44,1.42,29.58,29.58,0,0,0,1.38,7.41c.44,1.82,1.11,4.36,2.13,7.32a53,53,0,0,0,4.67,10.61,44.19,44.19,0,0,0,5.55,7.39,26.47,26.47,0,0,0,4.9,4.13c1.67,1.11,2.43,1.32,3.15,1.16s1.32-.63,1.77-.33a1,1,0,0,1,.33.71c0,1-1.39,1.77-1.48,1.82-1.44.75-3.45-.09-5.42-1.27a27.7,27.7,0,0,1-8.8-8.73c-.78-1.17-2.85-4.53-6.42-13.88-.46-1.18-5.15-13.66-3.16-19.2.43-1.18,1-1.52,1.31-1.64,1.72-.62,4.14,2.18,4.91,3.07a21.5,21.5,0,0,1,3.37,5.84c1,2.14,2.13,4.86,3.41,8.05a6.53,6.53,0,0,1-.61-.41C830,168.28,829.88,168.16,829.76,168.05Z"/>
  </g>
</svg>
